<svg xmlns="http://www.w3.org/2000/svg" xmlns:xlink="http://www.w3.org/1999/xlink" viewBox="0 0 500 500"><defs><clipPath id="freepik--clip-path--inject-6"><path d="M169.73,420.32V284.5a16.23,16.23,0,0,1,12.41-15.77,294.53,294.53,0,0,1,67.9-8.22,278.15,278.15,0,0,1,68.13,8.79A16.23,16.23,0,0,1,330.27,285v180.9" style="fill:#fff;stroke:#263238;stroke-linecap:round;stroke-linejoin:round"></path></clipPath><clipPath id="freepik--clip-path-2--inject-6"><path d="M204.6,109.39c7.66-3.75,30.51-3.85,33.81-4.4s14.85,20.07,14.85,20.07l-18.15,22.55s6.88,19.51,3.58,20.06-23.37,10.2-25.57,12.52,6.6,8.37-1.65,12.49-12.92,3.91-12.92,3.91L193.88,185s14.3-4.13,12.92-9.35-5.77-13.47-1.65-17.59,11.82-3.3,10.17-8.52S194.83,114.18,204.6,109.39Z" style="fill:#37474F;stroke:#263238;stroke-linecap:round;stroke-linejoin:round"></path></clipPath><clipPath id="freepik--clip-path-3--inject-6"><path d="M239.66,259.74l-22.63-56a4,4,0,0,1,2-5.17l21.39-10-22.65-33.11a4.16,4.16,0,0,1,.87-5.63l53.17-41.37-40.33-3-9.59.8,5.76-8.19s52.58,1.58,59.73,5.56-31.69,37.31-31.69,37.31l14.59,5.47a2.3,2.3,0,0,1,.88,3.73l-12.32,13.26-3.15,25.75,27.49,10a4,4,0,0,1,2.25,5.55l-26.59,55,14.67,2.74v9.29s-13.28,5.14-26.82,5.14-21.26-5.14-21.26-5.14V264.5Z" style="fill:#37474F;stroke:#263238;stroke-linecap:round;stroke-linejoin:round"></path></clipPath><clipPath id="freepik--clip-path-4--inject-6"><path d="M71.4,389.36V324.54a5,5,0,1,1,10,0v70.82" style="fill:#999;stroke:#263238;stroke-linecap:round;stroke-linejoin:round"></path></clipPath><clipPath id="freepik--clip-path-5--inject-6"><path d="M82,316.44a5.62,5.62,0,1,1-.77-2.84A5.47,5.47,0,0,1,82,316.44Z" style="fill:#999;stroke:#263238;stroke-linecap:round;stroke-linejoin:round"></path></clipPath><clipPath id="freepik--clip-path-6--inject-6"><path d="M249.22,349.68v11.78s-50.17,15.91-99.23,6.42-71.6-31.44-71.6-31.44V326C79.48,326.92,144,383.81,249.22,349.68Z" style="fill:#37474F;stroke:#263238;stroke-linecap:round;stroke-linejoin:round"></path></clipPath><clipPath id="freepik--clip-path-7--inject-6"><path d="M428.6,416.36V324.54a5,5,0,1,0-10,0v99.82" style="fill:#999;stroke:#263238;stroke-linecap:round;stroke-linejoin:round"></path></clipPath><clipPath id="freepik--clip-path-8--inject-6"><path d="M418,316.44a5.62,5.62,0,0,0,11,1.7,5.36,5.36,0,0,0,.27-1.7,5.62,5.62,0,0,0-10.47-2.84A5.48,5.48,0,0,0,418,316.44Z" style="fill:#999;stroke:#263238;stroke-linecap:round;stroke-linejoin:round"></path></clipPath><clipPath id="freepik--clip-path-9--inject-6"><path d="M250.78,349.68v11.78S301,377.37,350,367.88s71.61-31.44,71.61-31.44V326C420.52,326.92,356,383.81,250.78,349.68Z" style="fill:#37474F;stroke:#263238;stroke-linecap:round;stroke-linejoin:round"></path></clipPath><clipPath id="freepik--clip-path-10--inject-6"><path d="M245,458.36V344.54a5,5,0,0,1,9.71-1.76,4.7,4.7,0,0,1,.32,1.76V464.36" style="fill:#999;stroke:#263238;stroke-linecap:round;stroke-linejoin:round"></path></clipPath><clipPath id="freepik--clip-path-11--inject-6"><path d="M255.63,336.44a5.63,5.63,0,0,1-11.25,0,1.62,1.62,0,0,1,0-.22,5.62,5.62,0,0,1,11.24.22Z" style="fill:#999;stroke:#263238;stroke-linecap:round;stroke-linejoin:round"></path></clipPath><clipPath id="freepik--clip-path-12--inject-6"><path d="M371.29,382.8l-5.08,21.71s-5.94,4.37-8.07,3.69-.66-3-.56-3.13a3.57,3.57,0,0,1-2.45.7,13.85,13.85,0,0,1-4.39-1s-1.22,1.39-2.42,1.16-4.21-2.71-4.21-2.71c-2.24.64-4.62-2.38-4.62-2.38a3.2,3.2,0,0,1-.53-1.17,26.13,26.13,0,0,1-.87-5c-.46-5.16.13-12.05,4.42-14.43Z" style="fill:#fff;stroke:#263238;stroke-linecap:round;stroke-linejoin:round"></path></clipPath><clipPath id="freepik--clip-path-13--inject-6"><path d="M379.63,299.67c-2.22,2.31-5.64,3.41-8.18,7.52-13.86,22.34-15.5,36.63-21.94,54s-29.1,38-37.48,24.31,11.81-40.07,21.63-51.57,19.58-23.72,21.14-28.85c.24-.76,3.7-5.7,3.63-7.15s4.36-14,5.66-14.81c2.72-1.75,3.18-1.86,3.62-3.56.54-2.07,2.69-2.19,6-5.8a1.27,1.27,0,0,1,1.55-.24c1.39.55,3.06,2.48,4,3.47,2.47,2.47.42,5.88.42,5.88l-3.46-2.09a19.12,19.12,0,0,0,.7,3.68s0,0,0,.05c.67,2.28,2,5,4.44,6.29C385.33,292.91,380,299.31,379.63,299.67Z" style="fill:#fff;stroke:#263238;stroke-linecap:round;stroke-linejoin:round"></path></clipPath><clipPath id="freepik--clip-path-14--inject-6"><path d="M320.86,368c11.59-16.73,15.7-15.89,37.85-29.24l21.66,33.11s-5.22,2.45-11.9,5.64c-7.81,3.73-17.6,8.46-23.31,11.43-10.59,5.49-29.24,6.45-31.7,3.33a9,9,0,0,1-.66-1c-2.08-3.38-3.35-9.29-2.66-15.43" style="fill:#fff;stroke:#263238;stroke-linecap:round;stroke-linejoin:round"></path></clipPath><clipPath id="freepik--clip-path-15--inject-6"><path d="M75.89,396l52.33-60.65c5.23-8.65,11.28-24.42,12.23-27.44,6-18.89,4.6-13.92,9.14-21s5.94-18.3,12.6-18.15l.29,0c6.9.49,20.9,2.87,20.44,4.53s7.42,45.86,6.37,46.7-4,17-4,17-7.72-.77-6.3-6.95c0,0-20.26,25.34-27.36,25.83-1.37.09-15,25.2-24.25,42.45l0,0c-4.83,9-8.44,15.9-8.44,15.9" style="fill:#fff;stroke:#263238;stroke-linecap:round;stroke-linejoin:round"></path></clipPath><clipPath id="freepik--clip-path-16--inject-6"><path d="M211.93,238.23,211.48,299l-.21,29.3a2.57,2.57,0,0,1-3,2.52l-41-4.5-3.12-.35a3.28,3.28,0,0,1-2.92-3.18l.65-90.07a2.57,2.57,0,0,1,3-2.52l10.55,1.16.88,2.26L197.54,236l.92-2.07L209,235.05A3.3,3.3,0,0,1,211.93,238.23Z" style="fill:#fff;stroke:#263238;stroke-linecap:round;stroke-linejoin:round"></path></clipPath><clipPath id="freepik--clip-path-17--inject-6"><path d="M178.81,251.22c2.28-1.07,9-1,10-1.14s4.3,6,4.3,6l-5.47,6.58s1.94,5.8,1,5.95a38.52,38.52,0,0,0-7.62,3.59c-.66.67,1.91,2.5-.55,3.68a8.6,8.6,0,0,1-3.84,1.1l-1.32-3.45s4.24-1.16,3.86-2.71-1.64-4-.4-5.21,3.51-.92,3-2.47S175.9,252.59,178.81,251.22Z" style="fill:#37474F"></path></clipPath><clipPath id="freepik--clip-path-18--inject-6"><path d="M188.48,295.86l-6.43-16.67a1.19,1.19,0,0,1,.62-1.52l6.38-2.85-6.55-9.9a1.24,1.24,0,0,1,.29-1.67l15.92-12-11.92-1.09-2.84.19,1.74-2.39s15.55.71,17.65,1.92-9.55,10.89-9.55,10.89l4.29,1.69a.68.68,0,0,1,.24,1.11l-3.7,3.86-1.06,7.6,8.09,3.1a1.19,1.19,0,0,1,.64,1.65L194.17,296l4.32.88,0,2.75a25.21,25.21,0,0,1-8,1.4,12,12,0,0,1-6.26-1.63l0-2.15Z" style="fill:#37474F"></path></clipPath></defs><g id="freepik--background-simple--inject-6"><path d="M256.21,43.31c124.53.11,118.47,69.83,168.29,139.77s59.09,100.45,31.38,173.41-103.7,125.29-188.19,84.17S130.22,427,77.7,392.49s-67.87-93.37-21.44-157S102.67,43.18,256.21,43.31Z" style="fill:#37474F"></path><path d="M256.21,43.31c124.53.11,118.47,69.83,168.29,139.77s59.09,100.45,31.38,173.41-103.7,125.29-188.19,84.17S130.22,427,77.7,392.49s-67.87-93.37-21.44-157S102.67,43.18,256.21,43.31Z" style="fill:#fff;opacity:0.7000000000000001"></path></g><g id="freepik--Room--inject-6"><polyline points="74.94 162.8 74.94 116.56 79.49 116.56" style="fill:none;stroke:#263238;stroke-linecap:round;stroke-linejoin:round"></polyline><polyline points="79.49 178.49 74.94 178.49 74.94 174.44" style="fill:none;stroke:#263238;stroke-linecap:round;stroke-linejoin:round"></polyline><line x1="87.06" y1="178.49" x2="84.95" y2="178.49" style="fill:none;stroke:#263238;stroke-linecap:round;stroke-linejoin:round"></line><polyline points="91.01 116.56 119.75 116.56 119.75 178.49 92.2 178.49" style="fill:none;stroke:#263238;stroke-linecap:round;stroke-linejoin:round"></polyline><line x1="84.95" y1="116.56" x2="87.06" y2="116.56" style="fill:none;stroke:#263238;stroke-linecap:round;stroke-linejoin:round"></line><line x1="79.49" y1="139.89" x2="79.49" y2="136.52" style="fill:none;stroke:#263238;stroke-linecap:round;stroke-linejoin:round"></line><polyline points="107.03 173.95 79.49 173.95 79.49 147.53" style="fill:none;stroke:#263238;stroke-linecap:round;stroke-linejoin:round"></polyline><polyline points="79.49 132.18 79.49 121.1 115.21 121.1 115.21 173.95 112.77 173.95" style="fill:none;stroke:#263238;stroke-linecap:round;stroke-linejoin:round"></polyline><rect x="93.98" y="141.99" width="7.52" height="11.07" style="fill:none;stroke:#263238;stroke-linecap:round;stroke-linejoin:round"></rect><line x1="109.23" y1="165.1" x2="113.06" y2="170.77" style="fill:none;stroke:#263238;stroke-linecap:round;stroke-linejoin:round"></line><line x1="102.39" y1="154.98" x2="108.02" y2="163.31" style="fill:none;stroke:#263238;stroke-linecap:round;stroke-linejoin:round"></line><line x1="84.95" y1="129.18" x2="91.2" y2="138.43" style="fill:none;stroke:#263238;stroke-linecap:round;stroke-linejoin:round"></line><line x1="81.25" y1="123.71" x2="83.48" y2="127.01" style="fill:none;stroke:#263238;stroke-linecap:round;stroke-linejoin:round"></line><polyline points="380.25 132.25 380.25 178.49 384.79 178.49" style="fill:none;stroke:#263238;stroke-linecap:round;stroke-linejoin:round"></polyline><polyline points="384.79 116.56 380.25 116.56 380.25 120.62" style="fill:none;stroke:#263238;stroke-linecap:round;stroke-linejoin:round"></polyline><line x1="392.36" y1="116.56" x2="390.25" y2="116.56" style="fill:none;stroke:#263238;stroke-linecap:round;stroke-linejoin:round"></line><polyline points="396.31 178.49 425.06 178.49 425.06 116.56 397.5 116.56" style="fill:none;stroke:#263238;stroke-linecap:round;stroke-linejoin:round"></polyline><line x1="390.25" y1="178.49" x2="392.36" y2="178.49" style="fill:none;stroke:#263238;stroke-linecap:round;stroke-linejoin:round"></line><line x1="420.51" y1="139.89" x2="420.51" y2="136.52" style="fill:none;stroke:#263238;stroke-linecap:round;stroke-linejoin:round"></line><polyline points="392.97 173.95 420.51 173.95 420.51 147.53" style="fill:none;stroke:#263238;stroke-linecap:round;stroke-linejoin:round"></polyline><polyline points="420.51 132.18 420.51 121.1 384.79 121.1 384.79 173.95 387.23 173.95" style="fill:none;stroke:#263238;stroke-linecap:round;stroke-linejoin:round"></polyline><polygon points="391.3 136.52 410.69 126.79 414.04 152.05 391.3 136.52" style="fill:none;stroke:#263238;stroke-linecap:round;stroke-linejoin:round"></polygon><polygon points="396.31 155.37 399.2 165.14 406.74 160.74 396.31 155.37" style="fill:none;stroke:#263238;stroke-linecap:round;stroke-linejoin:round"></polygon><path d="M170,99.9v18.69" style="fill:none;stroke:#263238;stroke-linecap:round;stroke-linejoin:round"></path><path d="M170,62.71v31.2" style="fill:none;stroke:#263238;stroke-linecap:round;stroke-linejoin:round"></path><path d="M170,53.28v4.91" style="fill:none;stroke:#263238;stroke-linecap:round;stroke-linejoin:round"></path><polyline points="162.56 143.47 157.35 143.47 162.35 120.62 171.53 120.62" style="fill:none;stroke:#263238;stroke-linecap:round;stroke-linejoin:round"></polyline><polyline points="181.55 138.47 182.65 143.47 167.31 143.47" style="fill:none;stroke:#263238;stroke-linecap:round;stroke-linejoin:round"></polyline><polyline points="174.16 120.62 177.65 120.62 180.86 135.3" style="fill:none;stroke:#263238;stroke-linecap:round;stroke-linejoin:round"></polyline><path d="M330,99.9v18.69" style="fill:none;stroke:#263238;stroke-linecap:round;stroke-linejoin:round"></path><path d="M330,62.71v31.2" style="fill:none;stroke:#263238;stroke-linecap:round;stroke-linejoin:round"></path><path d="M330,53.28v4.91" style="fill:none;stroke:#263238;stroke-linecap:round;stroke-linejoin:round"></path><polyline points="337.44 143.47 342.65 143.47 337.65 120.62 328.47 120.62" style="fill:none;stroke:#263238;stroke-linecap:round;stroke-linejoin:round"></polyline><polyline points="318.45 138.47 317.35 143.47 332.69 143.47" style="fill:none;stroke:#263238;stroke-linecap:round;stroke-linejoin:round"></polyline><polyline points="325.83 120.62 322.35 120.62 319.14 135.3" style="fill:none;stroke:#263238;stroke-linecap:round;stroke-linejoin:round"></polyline></g><g id="freepik--Statue--inject-6"><path d="M169.73,420.32V284.5a16.23,16.23,0,0,1,12.41-15.77,294.53,294.53,0,0,1,67.9-8.22,278.15,278.15,0,0,1,68.13,8.79A16.23,16.23,0,0,1,330.27,285v180.9" style="fill:#fff"></path><g style="clip-path:url(#freepik--clip-path--inject-6)"><path d="M327.51,275.94c-27.24,27.2-107.14,22.53-107.14,22.53L169.73,399.75V284.5a16.23,16.23,0,0,1,12.41-15.77,294.53,294.53,0,0,1,67.9-8.22,278.15,278.15,0,0,1,68.13,8.79A16.14,16.14,0,0,1,327.51,275.94Z" style="fill:#37474F;opacity:0.4"></path><path d="M330.27,315.32s-6-3.61-19.43,10.63-12.66,29-14.64,43S280.79,386.39,277,398.69s-10.1,24.18,1.77,36.44,37.27,28.49,51.47,24.53Z" style="fill:#37474F;opacity:0.4"></path></g><path d="M169.73,420.32V284.5a16.23,16.23,0,0,1,12.41-15.77,294.53,294.53,0,0,1,67.9-8.22,278.15,278.15,0,0,1,68.13,8.79A16.23,16.23,0,0,1,330.27,285v180.9" style="fill:none;stroke:#263238;stroke-linecap:round;stroke-linejoin:round"></path><path d="M204.6,109.39c7.66-3.75,30.51-3.85,33.81-4.4s14.85,20.07,14.85,20.07l-18.15,22.55s6.88,19.51,3.58,20.06-23.37,10.2-25.57,12.52,6.6,8.37-1.65,12.49-12.92,3.91-12.92,3.91L193.88,185s14.3-4.13,12.92-9.35-5.77-13.47-1.65-17.59,11.82-3.3,10.17-8.52S194.83,114.18,204.6,109.39Z" style="fill:#37474F"></path><g style="clip-path:url(#freepik--clip-path-2--inject-6)"><path d="M235.11,147.61s6.87,19.51,3.58,20.06-23.37,10.2-25.56,12.52,6.59,8.37-1.66,12.49-12.92,3.91-12.92,3.91L193.88,185s14.3-4.13,12.92-9.35-5.77-13.47-1.65-17.59,11.82-3.3,10.17-8.53-20.5-35.34-10.72-40.13a18.76,18.76,0,0,1,3.09-1.13c-1,5.3-1.94,15.48,4.06,18.93,8.25,4.74,16.31,0,16.31,0s11.73-10.1,11.73-14.5-18.47-6.45-18.93-6.5h0c7.91-.72,15.71-.88,17.54-1.19,3.3-.55,14.84,20.07,14.84,20.07Z" style="fill-opacity:0.7000000000000001;opacity:0.30000000000000004"></path></g><path d="M204.6,109.39c7.66-3.75,30.51-3.85,33.81-4.4s14.85,20.07,14.85,20.07l-18.15,22.55s6.88,19.51,3.58,20.06-23.37,10.2-25.57,12.52,6.6,8.37-1.65,12.49-12.92,3.91-12.92,3.91L193.88,185s14.3-4.13,12.92-9.35-5.77-13.47-1.65-17.59,11.82-3.3,10.17-8.52S194.83,114.18,204.6,109.39Z" style="fill:none;stroke:#263238;stroke-linecap:round;stroke-linejoin:round"></path><path d="M239.66,259.74l-22.63-56a4,4,0,0,1,2-5.17l21.39-10-22.65-33.11a4.16,4.16,0,0,1,.87-5.63l53.17-41.37-40.33-3-9.59.8,5.76-8.19s52.58,1.58,59.73,5.56-31.69,37.31-31.69,37.31l14.59,5.47a2.3,2.3,0,0,1,.88,3.73l-12.32,13.26-3.15,25.75,27.49,10a4,4,0,0,1,2.25,5.55l-26.59,55,14.67,2.74v9.29s-13.28,5.14-26.82,5.14-21.26-5.14-21.26-5.14V264.5Z" style="fill:#37474F"></path><g style="clip-path:url(#freepik--clip-path-3--inject-6)"><path d="M255.73,140.93l14.59,5.47a2.31,2.31,0,0,1,.88,3.74l-12.32,13.25-3.15,25.75s-26.12,13.71-15.27-.56l-22.65-33.11a3.18,3.18,0,0,1-.35-.62c5.32.66,10.39.81,13.25-.38,7.13-2.94,49.35-39.28,57.29-50.31C291.83,110,255.73,140.93,255.73,140.93Z" style="fill-opacity:0.7000000000000001;opacity:0.30000000000000004"></path><path d="M273.54,262.47s-17.79,14.28-48.07,3.9V264.5l14.19-4.76-22.63-56a4,4,0,0,1,1-4.47c4,4,12.68,6.92,12.68,6.92l9.18-3.68s-3,5.41-2.3,9,11.73,11.69,11.73,11.69l-7.89,39.86s8.51,3.26,17.45-3.32Z" style="fill-opacity:0.7000000000000001;opacity:0.30000000000000004"></path></g><path d="M239.66,259.74l-22.63-56a4,4,0,0,1,2-5.17l21.39-10-22.65-33.11a4.16,4.16,0,0,1,.87-5.63l53.17-41.37-40.33-3-9.59.8,5.76-8.19s52.58,1.58,59.73,5.56-31.69,37.31-31.69,37.31l14.59,5.47a2.3,2.3,0,0,1,.88,3.73l-12.32,13.26-3.15,25.75,27.49,10a4,4,0,0,1,2.25,5.55l-26.59,55,14.67,2.74v9.29s-13.28,5.14-26.82,5.14-21.26-5.14-21.26-5.14V264.5Z" style="fill:none;stroke:#263238;stroke-linecap:round;stroke-linejoin:round"></path><path d="M242.54,112.69c3.57,6.32-11.82,18-11.82,18l2.58,7.81" style="fill:none;stroke:#263238;stroke-linecap:round;stroke-linejoin:round"></path><path d="M255.73,140.93s-11.57,8.6-12.66,12.44,3.59,8.8,3.59,8.8" style="fill:none;stroke:#263238;stroke-linecap:round;stroke-linejoin:round"></path><path d="M241.71,199.28S235.1,210,236.9,212.75s10.86,11.82,10.86,11.82l-9.07,41s7.83,4.25,18.14,0" style="fill:none;stroke:#263238;stroke-linecap:round;stroke-linejoin:round"></path><path d="M225.47,264.5a47.33,47.33,0,0,0,21.24,5.43,48.36,48.36,0,0,0,21.39-5.43" style="fill:none;stroke:#263238;stroke-linecap:round;stroke-linejoin:round"></path><path d="M231.52,105.46l-9.59.79,5.24-7.45a24.77,24.77,0,0,0,5.2,2.59c12.09,4.7,42.33,3.59,42.33,3.59l-3.18,3.46Z" style="fill-opacity:0.7000000000000001;opacity:0.30000000000000004"></path><path d="M216.36,194.27a3.72,3.72,0,0,1,.37-.75Z" style="fill-opacity:0.7000000000000001;opacity:0.30000000000000004"></path><path d="M241.8,211.19s12.28,5.32,15,5.87,25.11-13,26-14.48-9.53,2-18.87,4-22.18-.37-22.18-.37S239.48,210.2,241.8,211.19Z" style="fill:#fff;opacity:0.4"></path><path d="M211.93,121.21c0-3,4.75-1.07,10-2.5,6-1.65,12.76-6.35,13.64-5.56,1.65,1.46-10.26,12.4-14.47,12.43S211.93,126,211.93,121.21Z" style="fill:#fff;opacity:0.4"></path><path d="M223.57,149.62c-.51,1,3,0,5,0s41.86-35,42-35.74S225.86,145.22,223.57,149.62Z" style="fill:#fff;opacity:0.4"></path><path d="M248.09,150.79l16.52-2.29a1.11,1.11,0,0,0,.22-2.15l-8.08-2.87C256.34,143.34,249.6,146.69,248.09,150.79Z" style="fill:#37474F"></path><path d="M198.92,185.17s11.62,5.07,13.74,2.31c1.23-1.58-3.29-7.29-3.29-7.29Z" style="fill:#37474F"></path><path d="M206.62,162.17s14.11,2.47,13.74,1.92-4.4-8.24-5.31-7.88S206.07,159,206.62,162.17Z" style="fill:#37474F"></path><path d="M176.88,279.7s22.56,14.15,69.83,14.15S322,276.91,322,276.91" style="fill:none;stroke:#263238;stroke-linecap:round;stroke-linejoin:round"></path></g><g id="freepik--Stanchion--inject-6"><path d="M105.59,360.45q-.07-27.6,0-55.21" style="fill:none;stroke:#263238;stroke-linecap:round;stroke-linejoin:round"></path><path d="M105.64,375.7c0-1.16,0-2.32,0-3.48" style="fill:none;stroke:#263238;stroke-linecap:round;stroke-linejoin:round"></path><path d="M110.39,386.29V390" style="fill:none;stroke:#263238;stroke-linecap:round;stroke-linejoin:round"></path><path d="M110.43,375.39c0,2.56,0,5.12,0,7.68" style="fill:none;stroke:#263238;stroke-linecap:round;stroke-linejoin:round"></path><path d="M110.49,335.79q0,17,0,34" style="fill:none;stroke:#263238;stroke-linecap:round;stroke-linejoin:round"></path><path d="M110.39,305.24q.08,13.18.1,26.38" style="fill:none;stroke:#263238;stroke-linecap:round;stroke-linejoin:round"></path><path d="M108,303.58A3.08,3.08,0,0,1,106.3,298" style="fill:none;stroke:#263238;stroke-linecap:round;stroke-linejoin:round"></path><path d="M108,297.43a3.08,3.08,0,0,1,2.38,5" style="fill:none;stroke:#263238;stroke-linecap:round;stroke-linejoin:round"></path><path d="M103.4,310.82S93.91,324.24,76.24,326" style="fill:none;stroke:#263238;stroke-linecap:round;stroke-linejoin:round"></path><path d="M96.77,324a37.06,37.06,0,0,1-14.08,7.74" style="fill:none;stroke:#263238;stroke-linecap:round;stroke-linejoin:round"></path><path d="M103.4,316.53a36.55,36.55,0,0,1-2.68,3.51" style="fill:none;stroke:#263238;stroke-linecap:round;stroke-linejoin:round"></path><path d="M112.9,308.47s37.57,13.38,53.86.52" style="fill:none;stroke:#263238;stroke-linecap:round;stroke-linejoin:round"></path><path d="M124.52,317.67c13.06,2.79,30,5,41.72-3.1" style="fill:none;stroke:#263238;stroke-linecap:round;stroke-linejoin:round"></path><path d="M112.9,314.57c2.63.88,5.32,1.61,8,2.27" style="fill:none;stroke:#263238;stroke-linecap:round;stroke-linejoin:round"></path><path d="M394.41,360.45q.07-27.6-.05-55.21" style="fill:none;stroke:#263238;stroke-linecap:round;stroke-linejoin:round"></path><path d="M394.36,375.7c0-1.16,0-2.32,0-3.48" style="fill:none;stroke:#263238;stroke-linecap:round;stroke-linejoin:round"></path><path d="M389.61,386.29V390" style="fill:none;stroke:#263238;stroke-linecap:round;stroke-linejoin:round"></path><path d="M389.57,375.39c0,2.56,0,5.12,0,7.68" style="fill:none;stroke:#263238;stroke-linecap:round;stroke-linejoin:round"></path><path d="M389.51,335.79q0,17,0,34" style="fill:none;stroke:#263238;stroke-linecap:round;stroke-linejoin:round"></path><path d="M389.61,305.24q-.08,13.18-.1,26.38" style="fill:none;stroke:#263238;stroke-linecap:round;stroke-linejoin:round"></path><path d="M392,303.58A3.08,3.08,0,0,0,393.7,298" style="fill:none;stroke:#263238;stroke-linecap:round;stroke-linejoin:round"></path><path d="M392,297.43a3.08,3.08,0,0,0-2.38,5" style="fill:none;stroke:#263238;stroke-linecap:round;stroke-linejoin:round"></path><path d="M396.6,310.82s9.49,13.42,27.16,15.13" style="fill:none;stroke:#263238;stroke-linecap:round;stroke-linejoin:round"></path><path d="M403.23,324a37.06,37.06,0,0,0,14.08,7.74" style="fill:none;stroke:#263238;stroke-linecap:round;stroke-linejoin:round"></path><path d="M396.6,316.53a36.55,36.55,0,0,0,2.68,3.51" style="fill:none;stroke:#263238;stroke-linecap:round;stroke-linejoin:round"></path><path d="M387.1,308.47s-37.57,13.38-53.86.52" style="fill:none;stroke:#263238;stroke-linecap:round;stroke-linejoin:round"></path><path d="M375.48,317.67c-13.06,2.79-30,5-41.72-3.1" style="fill:none;stroke:#263238;stroke-linecap:round;stroke-linejoin:round"></path><path d="M387.1,314.57c-2.63.88-5.32,1.61-8,2.27" style="fill:none;stroke:#263238;stroke-linecap:round;stroke-linejoin:round"></path><path d="M71.4,389.36V324.54a5,5,0,1,1,10,0v70.82" style="fill:#999"></path><g style="clip-path:url(#freepik--clip-path-4--inject-6)"><path d="M81.41,330.18v65.18h-10V343.79a98.37,98.37,0,0,0,7-17.84Z" style="fill-opacity:0.7000000000000001;opacity:0.30000000000000004"></path></g><path d="M71.4,389.36V324.54a5,5,0,1,1,10,0v70.82" style="fill:none;stroke:#263238;stroke-linecap:round;stroke-linejoin:round"></path><path d="M82,316.44a5.62,5.62,0,1,1-.77-2.84A5.47,5.47,0,0,1,82,316.44Z" style="fill:#999"></path><g style="clip-path:url(#freepik--clip-path-5--inject-6)"><path d="M82,316.44a5.62,5.62,0,0,1-11,1.7c2.85,1,6.5.49,10.21-4.54A5.47,5.47,0,0,1,82,316.44Z" style="fill-opacity:0.7000000000000001;opacity:0.30000000000000004"></path></g><path d="M82,316.44a5.62,5.62,0,1,1-.77-2.84A5.47,5.47,0,0,1,82,316.44Z" style="fill:none;stroke:#263238;stroke-linecap:round;stroke-linejoin:round"></path><path d="M249.22,349.68v11.78s-50.17,15.91-99.23,6.42-71.6-31.44-71.6-31.44V326C79.48,326.92,144,383.81,249.22,349.68Z" style="fill:#37474F"></path><g style="clip-path:url(#freepik--clip-path-6--inject-6)"><path d="M249.22,351.13v10.33s-50.17,15.91-99.23,6.42-71.6-31.44-71.6-31.44V326c.62.73,20.66,24.32,68.69,33.24C195.89,368.27,236.35,358,249.22,351.13Z" style="fill-opacity:0.7000000000000001;opacity:0.30000000000000004"></path></g><path d="M249.22,349.68v11.78s-50.17,15.91-99.23,6.42-71.6-31.44-71.6-31.44V326C79.48,326.92,144,383.81,249.22,349.68Z" style="fill:none;stroke:#263238;stroke-linecap:round;stroke-linejoin:round"></path><path d="M428.6,416.36V324.54a5,5,0,1,0-10,0v99.82" style="fill:#999"></path><g style="clip-path:url(#freepik--clip-path-7--inject-6)"><path d="M418.58,330.18v94.18l10-8V343.79a98.37,98.37,0,0,1-7-17.84Z" style="fill-opacity:0.7000000000000001;opacity:0.30000000000000004"></path></g><path d="M428.6,416.36V324.54a5,5,0,1,0-10,0v99.82" style="fill:none;stroke:#263238;stroke-linecap:round;stroke-linejoin:round"></path><path d="M418,316.44a5.62,5.62,0,0,0,11,1.7,5.36,5.36,0,0,0,.27-1.7,5.62,5.62,0,0,0-10.47-2.84A5.48,5.48,0,0,0,418,316.44Z" style="fill:#999"></path><g style="clip-path:url(#freepik--clip-path-8--inject-6)"><path d="M418,316.44a5.62,5.62,0,0,0,11,1.7c-2.85,1-6.5.49-10.2-4.54A5.48,5.48,0,0,0,418,316.44Z" style="fill-opacity:0.7000000000000001;opacity:0.30000000000000004"></path></g><path d="M418,316.44a5.62,5.62,0,0,0,11,1.7,5.36,5.36,0,0,0,.27-1.7,5.62,5.62,0,0,0-10.47-2.84A5.48,5.48,0,0,0,418,316.44Z" style="fill:none;stroke:#263238;stroke-linecap:round;stroke-linejoin:round"></path><path d="M250.78,349.68v11.78S301,377.37,350,367.88s71.61-31.44,71.61-31.44V326C420.52,326.92,356,383.81,250.78,349.68Z" style="fill:#37474F"></path><g style="clip-path:url(#freepik--clip-path-9--inject-6)"><path d="M250.78,351.13v10.33S301,377.37,350,367.88s71.61-31.44,71.61-31.44V326c-.61.73-20.66,24.32-68.68,33.24C304.11,368.27,263.65,358,250.78,351.13Z" style="fill-opacity:0.7000000000000001;opacity:0.30000000000000004"></path></g><path d="M250.78,349.68v11.78S301,377.37,350,367.88s71.61-31.44,71.61-31.44V326C420.52,326.92,356,383.81,250.78,349.68Z" style="fill:none;stroke:#263238;stroke-linecap:round;stroke-linejoin:round"></path><path d="M245,458.36V344.54a5,5,0,0,1,9.71-1.76,4.7,4.7,0,0,1,.32,1.76V464.36" style="fill:#999"></path><g style="clip-path:url(#freepik--clip-path-10--inject-6)"><path d="M254.69,342.78a12.12,12.12,0,0,1-7.51,3.6s2.2,73.58,0,98c-.28,3-2.2,12-2.2,12V344.54a5,5,0,0,1,9.71-1.76Z" style="fill-opacity:0.7000000000000001;opacity:0.30000000000000004"></path></g><path d="M245,458.36V344.54a5,5,0,0,1,9.71-1.76,4.7,4.7,0,0,1,.32,1.76V464.36" style="fill:none;stroke:#263238;stroke-linecap:round;stroke-linejoin:round"></path><path d="M255.63,336.44a5.63,5.63,0,0,1-11.25,0,1.62,1.62,0,0,1,0-.22,5.62,5.62,0,0,1,11.24.22Z" style="fill:#999"></path><g style="clip-path:url(#freepik--clip-path-11--inject-6)"><path d="M255.14,338.73a5.62,5.62,0,0,1-10.76-2.29,1.62,1.62,0,0,1,0-.22C246.59,338.3,250,339.87,255.14,338.73Z" style="fill-opacity:0.7000000000000001;opacity:0.30000000000000004"></path></g><path d="M255.63,336.44a5.63,5.63,0,0,1-11.25,0,1.62,1.62,0,0,1,0-.22,5.62,5.62,0,0,1,11.24.22Z" style="fill:none;stroke:#263238;stroke-linecap:round;stroke-linejoin:round"></path></g><g id="freepik--Character--inject-6"><path d="M371.29,382.8l-5.08,21.71s-5.94,4.37-8.07,3.69-.66-3-.56-3.13a3.57,3.57,0,0,1-2.45.7,13.85,13.85,0,0,1-4.39-1s-1.22,1.39-2.42,1.16-4.21-2.71-4.21-2.71c-2.24.64-4.62-2.38-4.62-2.38a3.2,3.2,0,0,1-.53-1.17,26.13,26.13,0,0,1-.87-5c-.46-5.16.13-12.05,4.42-14.43Z" style="fill:#fff"></path><g style="clip-path:url(#freepik--clip-path-12--inject-6)"><path d="M371.29,382.8l-5.08,21.71s-5.94,4.37-8.07,3.69-.66-3-.56-3.13a3.57,3.57,0,0,1-2.45.7,13.85,13.85,0,0,1-4.39-1s-1.22,1.39-2.42,1.16-4.21-2.71-4.21-2.71c-2.24.64-4.62-2.38-4.62-2.38a3.2,3.2,0,0,1-.53-1.17c1,.76,2.4,1.61,3.5.88a3.12,3.12,0,0,0,5,.31s4.92,3.21,7.87-.48a39.21,39.21,0,0,0,4.43.86c.89,0,.69-13.06.69-13.06s-3.82,2.67-5.12,1.29-7.83,2.47-9.42,2.67a73.56,73.56,0,0,0-7.83,2.56c-.46-5.16.13-12.05,4.42-14.43Z" style="fill:#37474F;opacity:0.4"></path></g><path d="M371.29,382.8l-5.08,21.71s-5.94,4.37-8.07,3.69-.66-3-.56-3.13a3.57,3.57,0,0,1-2.45.7,13.85,13.85,0,0,1-4.39-1s-1.22,1.39-2.42,1.16-4.21-2.71-4.21-2.71c-2.24.64-4.62-2.38-4.62-2.38a3.2,3.2,0,0,1-.53-1.17,26.13,26.13,0,0,1-.87-5c-.46-5.16.13-12.05,4.42-14.43Z" style="fill:none;stroke:#263238;stroke-linecap:round;stroke-linejoin:round"></path><path d="M357.85,390.85s-2.43,8.95-2.51,10.71,2.25,3.5,2.25,3.5,2.86.44,4-.92,2.6-6.56,2.6-6.56" style="fill:none;stroke:#263238;stroke-linecap:round;stroke-linejoin:round"></path><path d="M350.74,404.74s-3.32-3-3.27-3.91,1.9-8.14,1.9-8.14" style="fill:none;stroke:#263238;stroke-linecap:round;stroke-linejoin:round"></path><path d="M344.11,403.19a18.83,18.83,0,0,1-1.65-2.67c-.31-.83-.19-6.82-.19-6.82" style="fill:none;stroke:#263238;stroke-linecap:round;stroke-linejoin:round"></path><path d="M379.63,299.67c-2.22,2.31-5.64,3.41-8.18,7.52-13.86,22.34-15.5,36.63-21.94,54s-29.1,38-37.48,24.31,11.81-40.07,21.63-51.57,19.58-23.72,21.14-28.85c.24-.76,3.7-5.7,3.63-7.15s4.36-14,5.66-14.81c2.72-1.75,3.18-1.86,3.62-3.56.54-2.07,2.69-2.19,6-5.8a1.27,1.27,0,0,1,1.55-.24c1.39.55,3.06,2.48,4,3.47,2.47,2.47.42,5.88.42,5.88l-3.46-2.09a19.12,19.12,0,0,0,.7,3.68s0,0,0,.05c.67,2.28,2,5,4.44,6.29C385.33,292.91,380,299.31,379.63,299.67Z" style="fill:#fff"></path><g style="clip-path:url(#freepik--clip-path-13--inject-6)"><path d="M379.7,282.91l-3.46-2.09a19.12,19.12,0,0,0,.7,3.68L374.41,278a6.08,6.08,0,0,0,.83-4.41c1.39.55,3.06,2.48,4,3.47C381.75,279.5,379.7,282.91,379.7,282.91Z" style="fill:#37474F;opacity:0.4"></path></g><path d="M379.63,299.67c-2.22,2.31-5.64,3.41-8.18,7.52-13.86,22.34-15.5,36.63-21.94,54s-29.1,38-37.48,24.31,11.81-40.07,21.63-51.57,19.58-23.72,21.14-28.85c.24-.76,3.7-5.7,3.63-7.15s4.36-14,5.66-14.81c2.72-1.75,3.18-1.86,3.62-3.56.54-2.07,2.69-2.19,6-5.8a1.27,1.27,0,0,1,1.55-.24c1.39.55,3.06,2.48,4,3.47,2.47,2.47.42,5.88.42,5.88l-3.46-2.09a19.12,19.12,0,0,0,.7,3.68s0,0,0,.05c.67,2.28,2,5,4.44,6.29C385.33,292.91,380,299.31,379.63,299.67Z" style="fill:none;stroke:#263238;stroke-linecap:round;stroke-linejoin:round"></path><path d="M432.39,300.84l-33.47,7.63s1.59-16.19-2.28-19c-2.22-1.63-6.79,1.3-11,0a6.4,6.4,0,0,1-1.71-.78c-4.28-2.89-8.83-14.88-8.88-29.72,0-2.41,1.18-8.91,1.34-11.37.67-10.12-3.25-16.36,4.87-26.25C398,201,432.07,205,438.66,220.71s-13.3,40.5-13.14,54C425.61,281.6,432.39,300.84,432.39,300.84Z" style="fill:#fff;stroke:#263238;stroke-linecap:round;stroke-linejoin:round"></path><path d="M392.28,203.52s-18.92,6.4-18.79,19.09,2.77,19.7,7.61,20.31,3.37,10.46,3.37,10.46,8.06,1.76,9.26,7.48,10.11,15.68,10.11,15.68,20,2.45,25.07-1.29,19.16-48.55,11-59.19S405,205.16,405,205.16A24.08,24.08,0,0,0,392.28,203.52Z" style="fill:#263238"></path><path d="M386,249.67s-.88-3.91,2.88-4.42c2-.27,3,6,3,6s1.15.19,2.16,5.52-3.7,9.29-3.7,9.29-1.42,6.12-3.38,3.93c-2.37-2.65,2.38-6.63.75-12.5" style="fill:#fff;stroke:#263238;stroke-linecap:round;stroke-linejoin:round"></path><path d="M391.73,253.76a30.59,30.59,0,0,1-1.37,12.34" style="fill:none;stroke:#263238;stroke-linecap:round;stroke-linejoin:round"></path><path d="M398.76,283.32c-1.65,1.9-2.12,6.14-2.12,6.14s-6.79,1.3-11,0C390,286.13,398.42,283.43,398.76,283.32Z" style="fill:#263238"></path><path d="M379.37,289.44a4.19,4.19,0,0,0,5.94.63c1.5-1.1,4.77-2.46,7-1.24s2.31,3.64.49,4-6.11,3.57-8.44,5.59-8.93,4.46-8.93,4.46" style="fill:#fff;stroke:#263238;stroke-linecap:round;stroke-linejoin:round"></path><path d="M377.94,287.08s-1.42-1.45-1.7-6.26c-.14-2.46-2.77-3.31-2.77-3.31" style="fill:none;stroke:#263238;stroke-linecap:round;stroke-linejoin:round"></path><path d="M375.5,278.91a3,3,0,0,0,.2-2.7" style="fill:none;stroke:#263238;stroke-linecap:round;stroke-linejoin:round"></path><path d="M320.86,368c11.59-16.73,15.7-15.89,37.85-29.24l21.66,33.11s-5.22,2.45-11.9,5.64c-7.81,3.73-17.6,8.46-23.31,11.43-10.59,5.49-29.24,6.45-31.7,3.33a9,9,0,0,1-.66-1c-2.08-3.38-3.35-9.29-2.66-15.43" style="fill:#fff"></path><g style="clip-path:url(#freepik--clip-path-14--inject-6)"><path d="M369.92,373.67l-1.45,3.79c-7.81,3.73-17.6,8.46-23.31,11.43-10.59,5.49-29.24,6.45-31.7,3.33a9,9,0,0,1-.66-1c9.9-.87,26.53-6.79,26.53-6.79-3.17-12.26,5.83-32.83,5.83-32.83Z" style="fill:#37474F;opacity:0.4"></path></g><path d="M320.86,368c11.59-16.73,15.7-15.89,37.85-29.24l21.66,33.11s-5.22,2.45-11.9,5.64c-7.81,3.73-17.6,8.46-23.31,11.43-10.59,5.49-29.24,6.45-31.7,3.33a9,9,0,0,1-.66-1c-2.08-3.38-3.35-9.29-2.66-15.43" style="fill:none;stroke:#263238;stroke-linecap:round;stroke-linejoin:round"></path><path d="M460.75,367.19s3.79-21.79-1.47-44.08-19.52-24.48-19.52-24.48-5.8-10.7-12.56-8.89c-25.91,7-32.55,18.48-32.55,18.48s-20.51,2.16-30.52,13.66-20.33,24.56-20.33,24.56-9.54,32,14.91,39c0,0,1.59,8.59,4.18,13.87l-3.12,58.53C385.36,454.21,440,422.13,460.75,367.19Z" style="fill:#263238"></path><g style="opacity:0.2"><path d="M382.4,328a37.64,37.64,0,0,0-3.11-7.2" style="fill:none;stroke:#fff;stroke-linecap:round;stroke-linejoin:round"></path><path d="M361.62,385.13C372,388,379,375,386,369c5-12,0-25-2.48-37.47" style="fill:none;stroke:#fff;stroke-linecap:round;stroke-linejoin:round"></path><path d="M361.62,331.43S353.7,348,353.18,363" style="fill:none;stroke:#fff;stroke-linecap:round;stroke-linejoin:round"></path><path d="M405.81,308.21c10.63-.68,22.68-1.89,32-7.43" style="fill:none;stroke:#fff;stroke-linecap:round;stroke-linejoin:round"></path><path d="M398.92,308.47c1.06,0,2.12,0,3.18-.08" style="fill:none;stroke:#fff;stroke-linecap:round;stroke-linejoin:round"></path><path d="M423.73,311.08c4.52.09,10.24.12,14.11-2.61" style="fill:none;stroke:#fff;stroke-linecap:round;stroke-linejoin:round"></path><path d="M413.57,310.25c2.23.33,4.47.55,6.72.69" style="fill:none;stroke:#fff;stroke-linecap:round;stroke-linejoin:round"></path><path d="M408.31,404q-1.55,3.9-2.72,7.92" style="fill:none;stroke:#fff;stroke-linecap:round;stroke-linejoin:round"></path><path d="M449.44,347.2C433,363,419,380,410.15,399.66" style="fill:none;stroke:#fff;stroke-linecap:round;stroke-linejoin:round"></path><path d="M369.06,433.55q-.78,7.83-1.64,15.67" style="fill:none;stroke:#fff;stroke-linecap:round;stroke-linejoin:round"></path><path d="M370.85,385.48C370,390,374,394,373,399c-1,2-2,4-2,6,0,8,0,17-1.58,24.92" style="fill:none;stroke:#fff;stroke-linecap:round;stroke-linejoin:round"></path></g><g style="opacity:0.2"><path d="M385.9,240.25c5.72-1.34,9.93,6.23,12.86,9s11.47,1.39,13.43,8.44" style="fill:none;stroke:#fff;stroke-linecap:round;stroke-linejoin:round"></path><path d="M379.29,225.26s4.19,9.7,8.85,9.3,11-.69,14,5.69,16.61,5.44,17.41,10.36" style="fill:none;stroke:#fff;stroke-linecap:round;stroke-linejoin:round"></path><path d="M388.14,210.82c-2.06,3.17-.49,15.43,4.07,15.43s9.52,0,11.39,4.55,6.61,5.74,10.76,8.11" style="fill:none;stroke:#fff;stroke-linecap:round;stroke-linejoin:round"></path><path d="M440,233.57s.08,5.73-3.29,6.52" style="fill:none;stroke:#fff;stroke-linecap:round;stroke-linejoin:round"></path><path d="M438.86,243.86s-1.48,4.37-5,6.14" style="fill:none;stroke:#fff;stroke-linecap:round;stroke-linejoin:round"></path><path d="M436.71,252.65s-.79,3.27-3.75,3.67" style="fill:none;stroke:#fff;stroke-linecap:round;stroke-linejoin:round"></path></g></g><g id="freepik--Hand--inject-6"><path d="M75.89,396l52.33-60.65c5.23-8.65,11.28-24.42,12.23-27.44,6-18.89,4.6-13.92,9.14-21s5.94-18.3,12.6-18.15l.29,0c6.9.49,20.9,2.87,20.44,4.53s7.42,45.86,6.37,46.7-4,17-4,17-7.72-.77-6.3-6.95c0,0-20.26,25.34-27.36,25.83-1.37.09-15,25.2-24.25,42.45l0,0c-4.83,9-8.44,15.9-8.44,15.9" style="fill:#fff"></path><g style="clip-path:url(#freepik--clip-path-15--inject-6)"><path d="M189.29,320c-1,.83-4,17-4,17s-7.72-.77-6.3-6.95c0,0-20.26,25.34-27.36,25.83-1.37.09-15,25.2-24.25,42.45,2.85-8.53,14.3-30.74,14.49-31.25-.22.19-15.11,18.89-15.6,19.31s18.26-30.59,23.81-32.56,9.71-10.45,9.71-10.45a7.82,7.82,0,0,1-7.71-1.06s-1.06-23.18.93-32.8.05-14.58-.1-15,3.84-5.69,4.53-10.89,2.74-14.2,2.74-14.2l2-.76.29,0c6.9.49,20.9,2.87,20.44,4.53S190.34,319.18,189.29,320Z" style="fill:#37474F;opacity:0.4"></path></g><path d="M75.89,396l52.33-60.65c5.23-8.65,11.28-24.42,12.23-27.44,6-18.89,4.6-13.92,9.14-21s5.94-18.3,12.6-18.15l.29,0c6.9.49,20.9,2.87,20.44,4.53s7.42,45.86,6.37,46.7-4,17-4,17-7.72-.77-6.3-6.95c0,0-20.26,25.34-27.36,25.83-1.37.09-15,25.2-24.25,42.45l0,0c-4.83,9-8.44,15.9-8.44,15.9" style="fill:none;stroke:#263238;stroke-linecap:round;stroke-linejoin:round"></path><path d="M211.53,335.23,165,328.83a4.51,4.51,0,0,1-3.78-4.56l-1.37-96.85c0-2.29,3.8-3.08,5.91-2.85l47.74,5.26a4.53,4.53,0,0,1,3.78,4.56l-.7,96C216.52,332.65,213.63,335.46,211.53,335.23Z" style="fill:#263238"></path><path d="M210.08,335.27,162.34,330a4.55,4.55,0,0,1-3.78-4.57l.7-96a3.54,3.54,0,0,1,3.84-3.73L210.84,231a4.53,4.53,0,0,1,3.78,4.56l-.7,96A3.54,3.54,0,0,1,210.08,335.27Z" style="fill:#757575;stroke:#263238;stroke-linecap:round;stroke-linejoin:round"></path><path d="M211.93,238.23,211.48,299l-.21,29.3a2.57,2.57,0,0,1-3,2.52l-41-4.5-3.12-.35a3.28,3.28,0,0,1-2.92-3.18l.65-90.07a2.57,2.57,0,0,1,3-2.52l10.55,1.16.88,2.26L197.54,236l.92-2.07L209,235.05A3.3,3.3,0,0,1,211.93,238.23Z" style="fill:#fff"></path><g style="clip-path:url(#freepik--clip-path-16--inject-6)"><path d="M211.48,299l-.21,29.3a2.57,2.57,0,0,1-3,2.52l-41-4.5.43-27.11a83,83,0,0,1,20.77-3.07c1,0,2,0,3.05,0A82.09,82.09,0,0,1,211.48,299Z" style="fill:#37474F;opacity:0.4"></path><path d="M178.81,251.22c2.28-1.07,9-1,10-1.14s4.3,6,4.3,6l-5.47,6.58s1.94,5.8,1,5.95a38.52,38.52,0,0,0-7.62,3.59c-.66.67,1.91,2.5-.55,3.68a8.6,8.6,0,0,1-3.84,1.1l-1.32-3.45s4.24-1.16,3.86-2.71-1.64-4-.4-5.21,3.51-.92,3-2.47S175.9,252.59,178.81,251.22Z" style="fill:#37474F"></path><g style="clip-path:url(#freepik--clip-path-17--inject-6)"><path d="M187.66,262.67s1.94,5.8,1,5.95a38.52,38.52,0,0,0-7.62,3.59c-.66.67,1.91,2.5-.55,3.68a8.63,8.63,0,0,1-3.84,1.1l-1.32-3.45s4.24-1.16,3.86-2.71-1.64-4-.4-5.21,3.51-.92,3-2.47-5.89-10.56-3-11.93a6.09,6.09,0,0,1,.92-.32c-.31,1.57-.65,4.57,1.11,5.62a5.1,5.1,0,0,0,4.83.08s3.51-2.94,3.53-4.24-5.43-2-5.56-2h0c2.34-.18,4.65-.19,5.19-.27,1-.15,4.3,6,4.3,6Z" style="fill-opacity:0.7000000000000001;opacity:0.30000000000000004"></path></g><path d="M188.48,295.86l-6.43-16.67a1.19,1.19,0,0,1,.62-1.52l6.38-2.85-6.55-9.9a1.24,1.24,0,0,1,.29-1.67l15.92-12-11.92-1.09-2.84.19,1.74-2.39s15.55.71,17.65,1.92-9.55,10.89-9.55,10.89l4.29,1.69a.68.68,0,0,1,.24,1.11l-3.7,3.86-1.06,7.6,8.09,3.1a1.19,1.19,0,0,1,.64,1.65L194.17,296l4.32.88,0,2.75a25.21,25.21,0,0,1-8,1.4,12,12,0,0,1-6.26-1.63l0-2.15Z" style="fill:#37474F"></path><g style="clip-path:url(#freepik--clip-path-18--inject-6)"><path d="M193.79,260.79l4.29,1.69a.68.68,0,0,1,.24,1.11l-3.7,3.86-1.06,7.6s-7.79,3.94-4.51-.24l-6.55-9.89a1.14,1.14,0,0,1-.1-.19,8.94,8.94,0,0,0,3.92-.05c2.13-.84,14.79-11.39,17.19-14.61C204.61,251.8,193.79,260.79,193.79,260.79Z" style="fill-opacity:0.7000000000000001;opacity:0.30000000000000004"></path><path d="M198.49,296.83s-5.33,4.14-14.24.93v-.56l4.22-1.34-6.43-16.67a1.18,1.18,0,0,1,.31-1.32,11.9,11.9,0,0,0,3.72,2.11l2.73-1.05a5.18,5.18,0,0,0-.72,2.66c.19,1.06,3.42,3.51,3.42,3.51L189,296.85a5.69,5.69,0,0,0,5.18-.9Z" style="fill-opacity:0.7000000000000001;opacity:0.30000000000000004"></path></g><path d="M190,252.38c1,1.88-3.58,5.26-3.58,5.26l.72,2.32" style="fill:none"></path><path d="M193.79,260.79s-3.46,2.49-3.8,3.62,1,2.62,1,2.62" style="fill:none"></path><path d="M189.37,278s-2,3.14-1.49,4A47,47,0,0,0,191,285.5l-2.88,12.07a6.62,6.62,0,0,0,5.37.09" style="fill:none"></path><path d="M184.26,297.2a14,14,0,0,0,6.26,1.71,14.35,14.35,0,0,0,6.35-1.51" style="fill:none"></path><path d="M186.79,250.19l-2.84.18,1.59-2.17a7.59,7.59,0,0,0,1.52.79c3.56,1.44,12.51,1.26,12.51,1.26l-1,1Z" style="fill-opacity:0.7000000000000001;opacity:0.30000000000000004"></path><path d="M181.89,276.39a.94.94,0,0,1,.12-.22A2.08,2.08,0,0,0,181.89,276.39Z" style="fill-opacity:0.7000000000000001;opacity:0.30000000000000004"></path><path d="M189.34,281.51s3.61,1.63,4.42,1.81,7.49-3.73,7.76-4.16-2.83.55-5.6,1.1a20.42,20.42,0,0,1-6.56-.21S188.66,281.21,189.34,281.51Z" style="fill:#fff;opacity:0.4"></path><path d="M180.92,254.75c0-.88,1.41-.29,3-.69,1.8-.46,3.81-1.82,4.06-1.58.49.44-3.09,3.62-4.34,3.61S180.9,256.16,180.92,254.75Z" style="fill:#fff;opacity:0.4"></path><path d="M184.23,263.21c-.15.29.9,0,1.49,0s12.55-10.16,12.6-10.38S184.93,261.92,184.23,263.21Z" style="fill:#fff;opacity:0.4"></path><path d="M191.48,263.67l4.9-.6a.33.33,0,0,0,.08-.63l-2.38-.89A4.94,4.94,0,0,0,191.48,263.67Z" style="fill:#37474F"></path><path d="M176.78,273.61s3.41,1.56,4.05.75c.37-.46-.94-2.17-.94-2.17Z" style="fill:#37474F"></path><path d="M179.16,266.85a39.42,39.42,0,0,0,4.06.63c-.11-.17-1.27-2.46-1.54-2.36S179,265.89,179.16,266.85Z" style="fill:#37474F"></path></g><path d="M211.93,238.23,211.48,299l-.21,29.3a2.57,2.57,0,0,1-3,2.52l-41-4.5-3.12-.35a3.28,3.28,0,0,1-2.92-3.18l.65-90.07a2.57,2.57,0,0,1,3-2.52l10.55,1.16.88,2.26L197.54,236l.92-2.07L209,235.05A3.3,3.3,0,0,1,211.93,238.23Z" style="fill:none;stroke:#263238;stroke-linecap:round;stroke-linejoin:round"></path><path d="M150.81,307s15.07-11.56,17.82-21.68,5.16-17.28,8.15-11.74c5.17,9.61-1.31,21.76-2.32,26.33s2.14,29.74-12,38.69a24.88,24.88,0,0,1-16.42,3.76" style="fill:#fff;stroke:#263238;stroke-linecap:round;stroke-linejoin:round"></path><path d="M118,344a36.65,36.65,0,0,1,14.65,4.41c7,4,13.45,18.67,13.45,18.67L139.83,378h-1.44S128.08,356.28,111,355.3l-.59-2.5Z" style="fill:#263238"></path><path d="M131.31,365.77s7.89-10.53,8.52-10.38S145,361,143.05,362c0,0-2.36-4.57-3.1-3.63s-6.25,7.16-6.21,8,2.31,5.36,2.31,5.36-1.06,1.47-1.71.52C131.64,368.27,130.73,366.58,131.31,365.77Z" style="fill:#fff;stroke:#263238;stroke-linecap:round;stroke-linejoin:round"></path><path d="M136.53,361.07h0a1,1,0,0,1,1.57,0l1.14,1.4a1,1,0,0,1,0,1.36l-.1.11a1,1,0,0,1-1.6-.12l-1.05-1.5A1,1,0,0,1,136.53,361.07Z" style="fill:#fff;stroke:#263238;stroke-linecap:round;stroke-linejoin:round"></path><path d="M171.66,279.89c0,1.55,2,.88,2.57.62s2.38-3.52,2.38-3.52" style="fill:none;stroke:#263238;stroke-linecap:round;stroke-linejoin:round"></path></g></svg>
