<svg xmlns="http://www.w3.org/2000/svg" viewBox="0 0 500 500"><g id="freepik--background-complete--inject-9"><path d="M69.32,161.2A1.22,1.22,0,0,1,69,161l-.82-.51a9.17,9.17,0,0,0-1.35-.78,15.6,15.6,0,0,0-1.94-.9,19.29,19.29,0,0,0-5.66-1.38,20.16,20.16,0,0,0-7.64.73,19.82,19.82,0,0,0-8.06,4.57,20.2,20.2,0,0,0-5.58,9,18.85,18.85,0,0,0-.83,5.71,23.34,23.34,0,0,0,.2,3,22.28,22.28,0,0,0,.7,3,19.52,19.52,0,0,0,2.73,5.6A19.89,19.89,0,0,0,51,196.58a19.45,19.45,0,0,0,6.15,1,18.42,18.42,0,0,0,5.95-.86,20.88,20.88,0,0,0,2.74-1,21.67,21.67,0,0,0,2.49-1.42,20.18,20.18,0,0,0,7-7.94,19.89,19.89,0,0,0,2-9,20.13,20.13,0,0,0-1.51-7.53,19.42,19.42,0,0,0-3-5,16,16,0,0,0-1.42-1.6,10.51,10.51,0,0,0-1.14-1.07l-.73-.63a2.12,2.12,0,0,1-.24-.24,2,2,0,0,1,.27.19l.77.6a9.86,9.86,0,0,1,1.18,1A15.61,15.61,0,0,1,73,164.61a19.36,19.36,0,0,1,3.07,5,20.55,20.55,0,0,1-.41,16.87,20.62,20.62,0,0,1-7.13,8.15A21.18,21.18,0,0,1,66,196.12a22,22,0,0,1-2.81,1.07,22.64,22.64,0,0,1-3,.69,23,23,0,0,1-3.12.2,19.69,19.69,0,0,1-6.31-1,20.4,20.4,0,0,1-10.43-7.74,19.87,19.87,0,0,1-2.79-5.75,23.46,23.46,0,0,1-.71-3,24.31,24.31,0,0,1-.2-3.06,22.75,22.75,0,0,1,.21-3,21.89,21.89,0,0,1,.66-2.85,20.39,20.39,0,0,1,14-13.8,20.4,20.4,0,0,1,7.78-.66A19.61,19.61,0,0,1,65,158.66a15.12,15.12,0,0,1,1.93,1,9.1,9.1,0,0,1,1.34.83l.79.56Z" style="fill:#e0e0e0"></path><path d="M51.8,163.19a5,5,0,0,1,2.44,3.72c.16,3.69-5.26,4.39-5.84,7.66-.3,1.72.92,3.37,1,5.11a4.5,4.5,0,0,1-4.69,4.19,6.2,6.2,0,0,1-5.22-4.12,14.34,14.34,0,0,1,0-7.85,17.52,17.52,0,0,1,1.83-4,12.16,12.16,0,0,1,3.92-4.1S48.47,161.3,51.8,163.19Z" style="fill:#f5f5f5"></path><path d="M67.89,162.61a5,5,0,0,1,1.06.77A16,16,0,0,1,71.41,166a17.87,17.87,0,0,1-.22,22.06,16.09,16.09,0,0,1-2.5,2.56,4.69,4.69,0,0,1-1.08.75,28.62,28.62,0,0,0,3.29-3.53,18.11,18.11,0,0,0,.21-21.63A28.52,28.52,0,0,0,67.89,162.61Z" style="fill:#e0e0e0"></path><path d="M468.57,167.19a19,19,0,0,0-.79-2.48,10.57,10.57,0,0,0-4.64-5.1,10.42,10.42,0,0,0-9.94,0,9.92,9.92,0,0,0-2.39,1.78,9.75,9.75,0,0,0-1.84,2.49,10.32,10.32,0,0,0,1.75,12.1,10.41,10.41,0,0,0,5.27,2.89,10.41,10.41,0,0,0,9.52-2.85,10.64,10.64,0,0,0,3-6.2,22.24,22.24,0,0,0,.05-2.6,8.18,8.18,0,0,1,.15,2.62,10.7,10.7,0,0,1-7.14,9.12,10.83,10.83,0,0,1-5.69.38,10.86,10.86,0,0,1-5.54-3,10.76,10.76,0,0,1-1.83-12.69,10.84,10.84,0,0,1,4.45-4.45,10.89,10.89,0,0,1,5.57-1.25,10.69,10.69,0,0,1,9.43,6.73A8,8,0,0,1,468.57,167.19Z" style="fill:#e0e0e0"></path><path d="M461.4,161.44a2.6,2.6,0,0,1-.48,2.27c-1.3,1.41-3.55-.33-5,.65-.75.52-.9,1.58-1.54,2.23a2.34,2.34,0,0,1-3.27-.19,3.26,3.26,0,0,1-.4-3.45,7.44,7.44,0,0,1,2.9-2.88,9,9,0,0,1,2.15-.79,6.33,6.33,0,0,1,3-.06A3.33,3.33,0,0,1,461.4,161.44Z" style="fill:#f5f5f5"></path><path d="M467.53,167.18s.1.23.15.67a7.93,7.93,0,0,1,0,1.88,9.27,9.27,0,0,1-8.32,8.1,7.55,7.55,0,0,1-1.88,0,1.8,1.8,0,0,1-.67-.17c0-.09,1,.07,2.51-.17a9.5,9.5,0,0,0,8-7.8C467.57,168.16,467.44,167.18,467.53,167.18Z" style="fill:#e0e0e0"></path><path d="M374.76,37.4a23.3,23.3,0,0,0-1.68-2,10.6,10.6,0,0,0-6.24-2.94,10.37,10.37,0,0,0-4.75.59,10.48,10.48,0,0,0-4.45,3.18,9.74,9.74,0,0,0-1.52,2.55,9.59,9.59,0,0,0-.76,3,10.29,10.29,0,0,0,6.24,10.51,10.34,10.34,0,0,0,6,.66,10.39,10.39,0,0,0,7.72-6.27,10.52,10.52,0,0,0,.4-6.88,23.9,23.9,0,0,0-.93-2.42,8.27,8.27,0,0,1,1.13,2.36,10.68,10.68,0,0,1-3.11,11.16,10.84,10.84,0,0,1-5.12,2.52,10.87,10.87,0,0,1-6.26-.66,10.79,10.79,0,0,1-6.55-11,10.91,10.91,0,0,1,2.42-5.81,10.75,10.75,0,0,1,4.67-3.29,10.61,10.61,0,0,1,4.94-.54,10.47,10.47,0,0,1,6.34,3.16A8,8,0,0,1,374.76,37.4Z" style="fill:#e0e0e0"></path><path d="M365.93,34.82a2.6,2.6,0,0,1,.42,2.28c-.66,1.81-3.41,1-4.35,2.51-.49.77-.23,1.81-.57,2.65a2.35,2.35,0,0,1-3.1,1.07,3.24,3.24,0,0,1-1.68-3,7.46,7.46,0,0,1,1.58-3.78A8.47,8.47,0,0,1,359.91,35a6.35,6.35,0,0,1,2.71-1.19A3.33,3.33,0,0,1,365.93,34.82Z" style="fill:#f5f5f5"></path><path d="M373.79,37.78a1.8,1.8,0,0,1,.39.57,7.45,7.45,0,0,1,.7,1.74,9.29,9.29,0,0,1-4.59,10.67,8.22,8.22,0,0,1-1.74.7c-.44.1-.68.13-.69.09s.93-.31,2.25-1.11a9.5,9.5,0,0,0,4.41-10.26C374.2,38.67,373.7,37.82,373.79,37.78Z" style="fill:#e0e0e0"></path><path d="M302.91,49.63a2.58,2.58,0,0,1-.29-.27c-.2-.19-.47-.46-.8-.8l-.59-.6c-.23-.2-.5-.41-.77-.65a16.46,16.46,0,0,0-2-1.53,23,23,0,0,0-6.15-3.05,23.86,23.86,0,0,0-9-1.12,23.51,23.51,0,0,0-10.45,3.19,23.87,23.87,0,0,0-8.73,8.93,26.66,26.66,0,0,0-1.45,3.05,24.83,24.83,0,0,0-1,3.32,26.55,26.55,0,0,0-.54,3.48,28.88,28.88,0,0,0,0,3.6,23.06,23.06,0,0,0,1.71,7.14,24.94,24.94,0,0,0,4,6.45,25.38,25.38,0,0,0,5.81,4.86,22.92,22.92,0,0,0,6.83,2.72,27,27,0,0,0,3.55.56,27.52,27.52,0,0,0,3.52,0,25.6,25.6,0,0,0,3.42-.49,24.67,24.67,0,0,0,3.23-1A23.76,23.76,0,0,0,308.2,61.11a22.85,22.85,0,0,0-2.12-6.53,18.43,18.43,0,0,0-1.23-2.19c-.2-.31-.36-.61-.54-.86l-.5-.67-.68-.91a2.9,2.9,0,0,1-.22-.32,1.79,1.79,0,0,1,.26.29l.72.88.53.66c.18.25.35.54.56.84a17,17,0,0,1,1.28,2.19,22.68,22.68,0,0,1,2.23,6.57,24,24,0,0,1-15.06,26.79,25.63,25.63,0,0,1-3.29,1,25.08,25.08,0,0,1-3.49.51,22.56,22.56,0,0,1-7.23-.53,23.49,23.49,0,0,1-7-2.78,24,24,0,0,1-10-11.55,23.28,23.28,0,0,1-1.73-7.3,26.62,26.62,0,0,1,0-3.68,27.62,27.62,0,0,1,.55-3.55,23.57,23.57,0,0,1,1-3.38,24.69,24.69,0,0,1,1.48-3.11,24.19,24.19,0,0,1,8.94-9.07,24.08,24.08,0,0,1,19.74-2,22.89,22.89,0,0,1,6.18,3.15,17.1,17.1,0,0,1,2,1.59c.27.24.54.45.76.67l.57.62.77.84A1.69,1.69,0,0,1,302.91,49.63Z" style="fill:#e0e0e0"></path><path d="M282.26,47.42a5.9,5.9,0,0,1,1.85,4.91c-.76,4.27-7.16,3.69-8.67,7.31-.79,1.9.2,4.1-.22,6.12-.56,2.7-3.79,4.33-6.46,3.61a7.3,7.3,0,0,1-4.95-6.07c-.38-2.74.68-6.6,2-9a20.14,20.14,0,0,1,3.13-4.1,14.46,14.46,0,0,1,5.55-3.72S278.92,44.4,282.26,47.42Z" style="fill:#f5f5f5"></path><path d="M300.91,50.88s.11.08.28.28.44.48.73.88a20,20,0,0,1,2.13,3.63,21.06,21.06,0,0,1-5.89,25.27,18.85,18.85,0,0,1-3.51,2.31c-.44.24-.81.37-1,.48a1.73,1.73,0,0,1-.38.13,33.42,33.42,0,0,0,4.7-3.2,21.26,21.26,0,0,0,5.78-24.84A30.23,30.23,0,0,0,300.91,50.88Z" style="fill:#ebebeb"></path><path d="M452.83,347.22C464.89,325,449.18,293,424.19,288.9c19.69-32,14.2-77.33-12.57-103.72s-72.15-31.25-103.89-11.11S261,237.33,273.51,272.79c-37.08-2.35-72.24,31.95-70.81,69.08-31.41.18-73.76,17.44-83.37,60.38h365.6C497.1,379.87,478.31,347.65,452.83,347.22Z" style="fill:#f5f5f5"></path><circle cx="402.77" cy="213.28" r="11.17" transform="translate(103.04 556.61) rotate(-76.78)" style="fill:#ebebeb"></circle><path d="M416.69,241.11a6.35,6.35,0,1,1-6.35-6.34A6.35,6.35,0,0,1,416.69,241.11Z" style="fill:#ebebeb"></path><path d="M424.55,226.64a4.14,4.14,0,1,1-4.14-4.14A4.14,4.14,0,0,1,424.55,226.64Z" style="fill:#ebebeb"></path><circle cx="437.23" cy="329.52" r="5.02" style="fill:#ebebeb"></circle><path d="M448.47,318.07a3.28,3.28,0,1,1-3.28-3.27A3.28,3.28,0,0,1,448.47,318.07Z" style="fill:#ebebeb"></path></g><g id="freepik--Table--inject-9"><path d="M493.9,402.34c0,.15-108.7.26-242.76.26s-242.79-.11-242.79-.26,108.68-.26,242.79-.26S493.9,402.2,493.9,402.34Z" style="fill:#263238"></path></g><g id="freepik--foam-1--inject-9"><path d="M229.71,361c-.3-24.47-26.93-44.9-50.65-38.86a30.73,30.73,0,0,0-51-25.31c-9.51-16.46-33.92-21.9-49.53-11s-19,35.64-6.87,50.28a28.76,28.76,0,0,0-27.73,44.34c-13.49-5.43-30.55,7.22-29.27,21.7l269.45.12C294.44,373.94,248.74,353.46,229.71,361Z" style="fill:#fafafa"></path><path d="M229.71,361c-.3-24.47-26.93-44.9-50.65-38.86a30.73,30.73,0,0,0-51-25.31c-9.51-16.46-33.92-21.9-49.53-11s-19,35.64-6.87,50.28a28.76,28.76,0,0,0-27.73,44.34c-13.49-5.43-30.55,7.22-29.27,21.7l269.45.12C294.44,373.94,248.74,353.46,229.71,361Z" style="fill:none"></path><path d="M229.71,361l1.31-.46a12.62,12.62,0,0,1,1.65-.46,20.3,20.3,0,0,1,2.34-.43,42.57,42.57,0,0,1,15.77,1.22,62.28,62.28,0,0,1,10.94,3.86A55.2,55.2,0,0,1,273.54,372a38,38,0,0,1,5.57,5.44,29.08,29.08,0,0,1,4.49,7,23.57,23.57,0,0,1,2.08,8.59,24.35,24.35,0,0,1-1.46,9.23l0,.11h-.11l-269.45,0h-.24l0-.23a19.68,19.68,0,0,1,.09-3.9,20.22,20.22,0,0,1,1-3.94A24.16,24.16,0,0,1,27,381.44,22.91,22.91,0,0,1,35.41,379,18.73,18.73,0,0,1,44,380.19l-.32.38a29,29,0,0,1,28-44.73l-.23.41a32.47,32.47,0,0,1-6.54-13.89,38.13,38.13,0,0,1-.07-15.05,36.64,36.64,0,0,1,5.61-13.59A30.84,30.84,0,0,1,81,284a32.92,32.92,0,0,1,13.39-3.94,38,38,0,0,1,13.51,1.41c8.6,2.46,16.09,8,20.33,15.25l-.32-.05a31.64,31.64,0,0,1,18.56-7.57,30.26,30.26,0,0,1,18.18,4.41,31.63,31.63,0,0,1,11.52,13,31.28,31.28,0,0,1,3.08,15.65L179,322a36.78,36.78,0,0,1,16.21-.28,40,40,0,0,1,7.14,2.14,42.21,42.21,0,0,1,6.25,3.07,46.3,46.3,0,0,1,9.73,7.7,44.69,44.69,0,0,1,6.23,8.25,37.4,37.4,0,0,1,4.75,13.28,29.42,29.42,0,0,1,.34,3.61c0,.77,0,1.11,0,1.24,0-.13,0-.46-.08-1.22a36,36,0,0,0-.38-3.62,37.88,37.88,0,0,0-4.81-13.2,44.66,44.66,0,0,0-6.24-8.2,46.28,46.28,0,0,0-9.71-7.63,41.76,41.76,0,0,0-6.22-3,39.45,39.45,0,0,0-7.09-2.11,36.51,36.51,0,0,0-16.08.31l-.21.05,0-.21a31,31,0,0,0-3.08-15.48,31.29,31.29,0,0,0-11.41-12.83,29.87,29.87,0,0,0-17.95-4.32A31.18,31.18,0,0,0,128.16,297l-.19.17-.13-.22c-4.19-7.18-11.59-12.6-20.1-15a37.71,37.71,0,0,0-13.34-1.37,32.43,32.43,0,0,0-13.2,3.89A30.31,30.31,0,0,0,70.82,294,36.06,36.06,0,0,0,65.3,307.4a37.32,37.32,0,0,0,.08,14.85,31.8,31.8,0,0,0,6.44,13.68l.4.49-.63-.08a28.52,28.52,0,0,0-27.48,44l.44.68-.76-.3a18.19,18.19,0,0,0-8.34-1.18,22.15,22.15,0,0,0-8.18,2.42A23.55,23.55,0,0,0,15.9,394.49a18.12,18.12,0,0,0-1,7.62l-.26-.24,269.45.22-.16.11a23.94,23.94,0,0,0,1.46-9.11,23.06,23.06,0,0,0-2-8.48,29.17,29.17,0,0,0-4.43-7,39.06,39.06,0,0,0-5.52-5.41A55,55,0,0,0,261.62,365a60.89,60.89,0,0,0-10.88-3.88A42.73,42.73,0,0,0,235,359.76a20.66,20.66,0,0,0-2.34.41,15,15,0,0,0-1.66.43Z" style="fill:#263238"></path><path d="M130.5,314.42a3.47,3.47,0,0,1-.76-.15c-.48-.13-1.21-.28-2.15-.44a25.27,25.27,0,0,0-18.9,4.56,23.16,23.16,0,0,0-4.92,5,24.83,24.83,0,0,0-3.44,6.68,24.37,24.37,0,0,0-.83,13l.08.35-.36-.06a14.31,14.31,0,0,0-9.41,1.6,14,14,0,0,0-5.31,5.37A14.4,14.4,0,0,0,82.85,355c-.19,1.16-.19,1.8-.23,1.8a1.7,1.7,0,0,1,0-.47,9.73,9.73,0,0,1,.09-1.35,14.15,14.15,0,0,1,6.92-10.43,14.6,14.6,0,0,1,9.69-1.72l-.28.29a24.75,24.75,0,0,1,.81-13.23,25.68,25.68,0,0,1,3.52-6.81A23.93,23.93,0,0,1,108.4,318a25.39,25.39,0,0,1,11.12-4.53,24.32,24.32,0,0,1,8.11.16,17,17,0,0,1,2.14.54A6.58,6.58,0,0,1,130.5,314.42Z" style="fill:#263238"></path><path d="M48.38,355.59l-1.17.43a3.7,3.7,0,1,0,5.45,4A3.88,3.88,0,0,0,48.38,355.59Z" style="fill:#ebebeb"></path><path d="M56.94,353.74l-.42.16a1.32,1.32,0,1,0,.42-.16Z" style="fill:#ebebeb"></path><path d="M52.72,346.35l-.66.24a2.09,2.09,0,1,0,.66-.24Z" style="fill:#ebebeb"></path><path d="M75.66,300.67l-1.21.61a4,4,0,1,0,1.21-.61Z" style="fill:#ebebeb"></path><path d="M84.71,297.62l-.43.22a1.45,1.45,0,1,0,.43-.22Z" style="fill:#ebebeb"></path><path d="M31.61,384.58l-.52.26a1.74,1.74,0,1,0,.52-.26Z" style="fill:#ebebeb"></path></g><g id="freepik--Plants--inject-9"><path d="M93.06,238.88a104.78,104.78,0,0,0,88.68,30.41C159.12,250.89,122,235.54,93.06,238.88Z" style="fill:#455a64"></path><path d="M88.85,207.08A89.42,89.42,0,0,0,164.53,233C145.22,217.32,113.57,204.23,88.85,207.08Z" style="fill:#455a64"></path><path d="M89,179.86a71.64,71.64,0,0,0,60.62,20.78C134.12,188.06,108.77,177.57,89,179.86Z" style="fill:#455a64"></path><path d="M215.16,184.93c1.68,32.83-13.22,66.1-38.84,86.71C178.34,242.15,192.64,204.07,215.16,184.93Z" style="fill:#455a64"></path><path d="M194.52,159.8a90.66,90.66,0,0,1-33.15,74C163.1,208.64,175.3,176.14,194.52,159.8Z" style="fill:#455a64"></path><path d="M174.27,141.05a72.58,72.58,0,0,1-26.55,59.28C149.11,180.17,158.88,154.14,174.27,141.05Z" style="fill:#455a64"></path><path d="M107.35,114.8c-.31,25,15.35,56.73,35.43,71.64C142.78,157.14,129.71,128.78,107.35,114.8Z" style="fill:#455a64"></path><path d="M199.77,318.94c-.66.29-15.56-32.54-33.27-73.32S135,171.53,135.63,171.24s15.55,32.54,33.26,73.34S200.43,318.66,199.77,318.94Z" style="fill:#455a64"></path><path d="M403.84,174.11c-4.57-3.28-11.34-5.77-16.86-4.73A28.78,28.78,0,0,0,399.92,181a29.62,29.62,0,0,0-12.7,12.42c2.9,1.16,8,.26,10.94-.65s7.39-4.5,7.39-4.5c-2.07,6.47-1.81,15,1.86,20.68,4.88-3.52,6.11-11.69,5.32-17.66,2.35,4.36,8.52,9.23,13.46,9.55-.71-5.35-5.09-11.81-9.87-14.33,5,2.15,12,3.23,16.55.34a16.36,16.36,0,0,0-14.79-8,17.34,17.34,0,0,0,6.48-14.21,28,28,0,0,0-8,2.09,9.45,9.45,0,0,0-5.29,6,14.16,14.16,0,0,0-5.7-14,39.74,39.74,0,0,0-1.74,15.32" style="fill:#37474F"></path><g style="opacity:0.30000000000000004"><path d="M407.12,181.74a31.32,31.32,0,0,0-16.06,9.42c5.87-2.09,11.14-5.59,16.17-9.27"></path></g><g style="opacity:0.30000000000000004"><path d="M409.21,184.1a27.8,27.8,0,0,0-2.13,8,17.56,17.56,0,0,0,1.1,8.19,39.5,39.5,0,0,0,1-16.19"></path></g><g style="opacity:0.30000000000000004"><path d="M411.33,184.92a24.12,24.12,0,0,0,10.34,11.34,54.07,54.07,0,0,0-10.05-11.4"></path></g><g style="opacity:0.30000000000000004"><path d="M410.22,181.29a19.44,19.44,0,0,1,16.57,4.13,157.67,157.67,0,0,1-16.44-4.18"></path></g><g style="opacity:0.30000000000000004"><path d="M410,179.48A23.6,23.6,0,0,1,421.19,168,68,68,0,0,1,410,179.72"></path></g><g style="opacity:0.30000000000000004"><path d="M408.24,178a20.43,20.43,0,0,0-1.79-13.63A47,47,0,0,0,408,178"></path></g><g style="opacity:0.30000000000000004"><path d="M406.23,178.84a31,31,0,0,0-13.14-6.07,28.92,28.92,0,0,0,13.14,6.07"></path></g><path d="M409.14,182a1.22,1.22,0,1,1,.36-1.69A1.22,1.22,0,0,1,409.14,182Z" style="opacity:0.30000000000000004"></path><path d="M213.9,119.75c-5.24,2-11,6.33-13.19,11.52a28.78,28.78,0,0,0,16.82-4.47A29.66,29.66,0,0,0,221,144.23c2.56-1.79,4.58-6.51,5.45-9.51s.28-8.64.28-8.64c4.28,5.27,11.53,9.7,18.32,9.76-.27-6-6.43-11.51-11.86-14.12,4.93.42,12.38-2.08,15.36-6-4.87-2.34-12.68-2.21-17.4.41,4.53-3,9.25-8.24,9.34-13.66a16.32,16.32,0,0,0-14.79,8,17.38,17.38,0,0,0-8.35-13.21,27.9,27.9,0,0,0-2.62,7.83,9.46,9.46,0,0,0,2.15,7.73A14.16,14.16,0,0,0,202,109.9a39.82,39.82,0,0,0,11.86,9.85" style="fill:#37474F"></path><g style="opacity:0.30000000000000004"><path d="M222.08,121.18a31.25,31.25,0,0,0-.9,18.6c1.46-6.06,1.42-12.38,1.09-18.61"></path></g><g style="opacity:0.30000000000000004"><path d="M225.2,120.73a27.77,27.77,0,0,0,5.57,6.18,17.3,17.3,0,0,0,7.45,3.56,39.77,39.77,0,0,0-13-9.71"></path></g><g style="opacity:0.30000000000000004"><path d="M227.05,119.4A24.11,24.11,0,0,0,242.2,117a54,54,0,0,0-15,2.18"></path></g><g style="opacity:0.30000000000000004"><path d="M223.41,118.34a19.44,19.44,0,0,1,12.53-11.61,157.71,157.71,0,0,1-12.5,11.47"></path></g><g style="opacity:0.30000000000000004"><path d="M221.79,117.51a23.67,23.67,0,0,1-3.53-15.64A67.47,67.47,0,0,1,222,117.66"></path></g><g style="opacity:0.30000000000000004"><path d="M219.57,118.2a20.37,20.37,0,0,0-12.38-6,47.06,47.06,0,0,0,12.23,6.18"></path></g><g style="opacity:0.30000000000000004"><path d="M219.17,120.34A31,31,0,0,0,206.9,128a29,29,0,0,0,12.27-7.67"></path></g><path d="M223.41,119.63a1.22,1.22,0,0,1-2.44,0,1.22,1.22,0,0,1,2.44,0Z" style="opacity:0.30000000000000004"></path></g><g id="freepik--Bubbles--inject-9"><path d="M146.65,112.19s.09-.25.3-.71.51-1.17.91-2.06l.68-1.51c.22-.57.41-1.21.64-1.89s.48-1.43.74-2.22a26,26,0,0,0,.65-2.57,45.09,45.09,0,0,0,1.14-13.56,47.13,47.13,0,0,0-4.46-17.39L146.14,68c-.42-.75-.89-1.48-1.34-2.23s-.87-1.53-1.43-2.24l-1.63-2.17-.83-1.09-.94-1-1.91-2.08c-.66-.68-1.4-1.28-2.11-1.94a24,24,0,0,0-2.24-1.88,43.12,43.12,0,0,0-5-3.36c-.89-.5-1.75-1.06-2.67-1.52l-2.84-1.3c-.48-.21-.95-.45-1.44-.63L120.29,46c-1-.33-2-.71-3-1a52,52,0,0,0-6.42-1.26l-1.65-.21c-.28,0-.55-.08-.83-.1l-.84,0-3.38-.1c-1.13,0-2.26.13-3.4.2-.57.05-1.15.05-1.72.14l-1.71.28a53.84,53.84,0,0,0-6.83,1.57l-3.33,1.23L86.3,47l-.81.39-1.62.78L82.24,49l-1.56.93-1.55,1-.79.48c-.25.17-.49.36-.73.54l-3,2.21-2.74,2.5a50.42,50.42,0,0,0-9,12A50.33,50.33,0,0,0,58.22,83c-.16,1.23-.32,2.46-.47,3.68l-.12,3.69,0,.91.06.92L57.79,94l.13,1.81.29,1.78.29,1.78.15.88.23.87c.31,1.15.61,2.3.91,3.44A52.78,52.78,0,0,0,62.43,111l.76,1.56c.24.52.58,1,.86,1.49.61,1,1.16,2,1.8,2.9s1.35,1.81,2,2.71l.5.67c.18.21.37.41.56.62l1.12,1.23a50.3,50.3,0,0,0,4.72,4.53c.84.67,1.73,1.28,2.58,1.91l1.28.94c.43.3.9.54,1.35.82L82.67,132c.91.48,1.86.87,2.78,1.31a42.86,42.86,0,0,0,5.6,2.13,23.56,23.56,0,0,0,2.83.74c.94.21,1.87.47,2.8.62l2.8.37,1.38.18,1.37,0,2.72.08a26,26,0,0,0,2.65-.12c.87-.06,1.74-.1,2.59-.18l2.51-.41a47.12,47.12,0,0,0,16.8-6.34,45.15,45.15,0,0,0,10.44-8.73,25.19,25.19,0,0,0,1.73-2l1.39-1.87c.42-.59.84-1.11,1.17-1.62l.85-1.42,1.16-1.93c.26-.44.41-.65.41-.65s-.11.23-.36.67l-1.12,2-.83,1.44c-.33.51-.74,1-1.16,1.64l-1.37,1.89a25.13,25.13,0,0,1-1.72,2,44.68,44.68,0,0,1-10.44,8.84,47,47,0,0,1-16.89,6.46l-2.53.42c-.85.09-1.73.13-2.61.2s-1.77.17-2.67.13l-2.74-.08-1.38,0-1.4-.18-2.82-.36c-.94-.15-1.88-.41-2.83-.62a22.69,22.69,0,0,1-2.86-.74,43.35,43.35,0,0,1-5.66-2.14c-.92-.44-1.88-.82-2.8-1.31l-2.72-1.59c-.45-.28-.93-.52-1.37-.83L77.08,129c-.86-.64-1.76-1.25-2.61-1.93a50,50,0,0,1-4.77-4.57l-1.14-1.24c-.18-.21-.38-.41-.56-.63l-.51-.67-2-2.73c-.64-1-1.2-2-1.81-2.94-.29-.5-.63-1-.88-1.5L62,111.25a51.8,51.8,0,0,1-2.68-6.56c-.31-1.15-.61-2.31-.92-3.48l-.23-.87-.16-.9-.29-1.79-.3-1.8L57.28,94l-.12-1.83-.06-.93,0-.92c0-1.24.07-2.48.11-3.73s.32-2.47.48-3.72a50.41,50.41,0,0,1,4.75-14.46,50.85,50.85,0,0,1,9.1-12.18l2.77-2.53,3-2.23c.25-.18.49-.38.75-.55l.79-.48,1.57-1L82,48.55l1.64-.8L85.28,47l.82-.38.85-.32L90.32,45a54.67,54.67,0,0,1,6.91-1.58L99,43.16c.58-.1,1.16-.09,1.74-.14,1.15-.07,2.3-.18,3.44-.2l3.41.1.85,0c.28,0,.55.07.83.1l1.67.22a50.87,50.87,0,0,1,6.48,1.28c1,.3,2.06.69,3.08,1l1.52.52c.5.18,1,.43,1.45.64l2.86,1.32c.93.46,1.8,1,2.7,1.54a43.91,43.91,0,0,1,5,3.4,22.91,22.91,0,0,1,2.25,1.91c.71.66,1.46,1.27,2.13,2l1.92,2.1.94,1,.84,1.11,1.64,2.19c.55.71,1,1.52,1.43,2.26s.92,1.5,1.34,2.25.74,1.55,1.11,2.31A47,47,0,0,1,152,87.66a44.5,44.5,0,0,1-1.24,13.62,23.58,23.58,0,0,1-.67,2.58l-.76,2.21c-.24.68-.44,1.32-.67,1.89l-.71,1.5q-.62,1.33-1,2C146.78,112,146.65,112.19,146.65,112.19Z" style="fill:#263238"></path><path d="M135.63,72.65c-1.17,3.15-4.38,6.3-7.67,7-8.4,1.73-12-10.45-19.75-10.57-4.07-.07-7.4,3.35-11.41,4.06-5.38.94-10.73-3.81-11.35-9.23S88.25,53.07,93,50.36s12.62-3.57,18-2.92a39.82,39.82,0,0,1,9.82,2.74,28.64,28.64,0,0,1,10.88,7.48S138.73,64.31,135.63,72.65Z" style="fill:#f5f5f5"></path><path d="M142.9,109.42a5.67,5.67,0,0,1-.36.71c-.26.44-.59,1.13-1.13,1.94a40,40,0,0,1-5.15,6.5,42.83,42.83,0,0,1-9.75,7.5,42.06,42.06,0,0,1-40.76.11,40.18,40.18,0,0,1-6.84-4.69c-.76-.61-1.28-1.18-1.66-1.53a4.09,4.09,0,0,1-.54-.56,4.43,4.43,0,0,1,.61.49c.41.32.94.86,1.72,1.44a42.45,42.45,0,0,0,6.88,4.53A43.54,43.54,0,0,0,97.37,130a41,41,0,0,0,28.91-4.35,43.17,43.17,0,0,0,9.71-7.34,42.73,42.73,0,0,0,5.25-6.35c.57-.79.92-1.46,1.21-1.89A5.21,5.21,0,0,1,142.9,109.42Z" style="fill:#e0e0e0"></path><path d="M60.45,269a25.36,25.36,0,0,0-.52-3.22,13.13,13.13,0,0,0-17.23-9,13,13,0,0,0-6.05,4.55,13,13,0,0,0,0,15.42,12.05,12.05,0,0,0,2.75,2.77,12.48,12.48,0,0,0,3.3,1.79,13.17,13.17,0,0,0,17.23-9.05,24.77,24.77,0,0,0,.52-3.22,6.86,6.86,0,0,1,0,.85,7,7,0,0,1-.08,1,10.87,10.87,0,0,1-.25,1.39,13.38,13.38,0,0,1-10.49,10,13.62,13.62,0,0,1-7.1-.56A13.58,13.58,0,0,1,36.23,277a13.45,13.45,0,0,1,0-16,13.5,13.5,0,0,1,6.3-4.7,13.41,13.41,0,0,1,12.77,2,13.26,13.26,0,0,1,4.82,7.44,11.52,11.52,0,0,1,.25,1.39,7.09,7.09,0,0,1,.08,1A6.86,6.86,0,0,1,60.45,269Z" style="fill:#263238"></path><path d="M52.57,260.54a3.24,3.24,0,0,1-1,2.73c-1.88,1.52-4.36-1-6.3-.07-1,.51-1.41,1.79-2.32,2.49a3,3,0,0,1-4-.83,4.07,4.07,0,0,1,.13-4.35,9.35,9.35,0,0,1,4.12-3.07,11.29,11.29,0,0,1,2.81-.59,8.06,8.06,0,0,1,3.68.46A4.19,4.19,0,0,1,52.57,260.54Z" style="fill:#f5f5f5"></path><path d="M59.15,268.77a2.36,2.36,0,0,1,.05.86,10.65,10.65,0,0,1-.39,2.32,11.66,11.66,0,0,1-11.74,8.54,9.74,9.74,0,0,1-2.33-.35,2.44,2.44,0,0,1-.8-.3c0-.1,1.19.29,3.14.28a11.89,11.89,0,0,0,11.38-8.28C59.06,270,59.05,268.76,59.15,268.77Z" style="fill:#e0e0e0"></path><path d="M471.71,305.93a1.5,1.5,0,0,1,.2-.31l.63-.87.47-.63c.16-.24.31-.52.49-.81a17,17,0,0,0,1.13-2.08,21.68,21.68,0,0,0,1.94-6.17,22.56,22.56,0,0,0-.27-8.52,22.09,22.09,0,0,0-4.49-9.24,22.44,22.44,0,0,0-9.58-6.82,23.21,23.21,0,0,0-3-.9,22.87,22.87,0,0,0-3.22-.42,24.54,24.54,0,0,0-3.32,0,25.44,25.44,0,0,0-3.33.56,21.54,21.54,0,0,0-6.4,2.63,22.14,22.14,0,0,0-9.08,10.73,21.33,21.33,0,0,0-1.53,6.74,20.14,20.14,0,0,0,.53,6.66,24.87,24.87,0,0,0,1,3.11,23.53,23.53,0,0,0,1.4,2.85,22.35,22.35,0,0,0,26.61,10.06,21.56,21.56,0,0,0,5.76-2.92,16.81,16.81,0,0,0,1.86-1.46l.72-.62.55-.57.75-.76c.17-.18.26-.26.27-.25a3.51,3.51,0,0,1-.23.28l-.72.8-.53.59c-.21.2-.45.41-.71.64a15.52,15.52,0,0,1-1.84,1.51,21.3,21.3,0,0,1-5.79,3,22.72,22.72,0,0,1-18.61-1.65,22.74,22.74,0,0,1-8.51-8.45,24.54,24.54,0,0,1-1.43-2.91,23.93,23.93,0,0,1-1-3.18,24.5,24.5,0,0,1-.56-3.34,25,25,0,0,1,0-3.46,22,22,0,0,1,1.56-6.9,22.61,22.61,0,0,1,9.29-11,22.27,22.27,0,0,1,6.55-2.69,26.92,26.92,0,0,1,3.41-.56,24.7,24.7,0,0,1,6.68.43,24.32,24.32,0,0,1,3.11.93,22.84,22.84,0,0,1,9.75,7,22.73,22.73,0,0,1,4.7,18.09,21.32,21.32,0,0,1-2,6.21,15.4,15.4,0,0,1-1.18,2.07c-.19.29-.35.56-.52.8l-.49.62-.67.84A3.52,3.52,0,0,1,471.71,305.93Z" style="fill:#263238"></path><path d="M470.75,286.4a5.48,5.48,0,0,1-4.29,2.43c-4.09-.08-4.48-6.12-8.06-7-1.89-.46-3.79.78-5.73.68-2.6-.12-4.58-2.89-4.3-5.48a6.88,6.88,0,0,1,4.93-5.48,15.78,15.78,0,0,1,8.68.54,19.11,19.11,0,0,1,4.28,2.31,13.57,13.57,0,0,1,4.26,4.62S473.07,282.85,470.75,286.4Z" style="fill:#f5f5f5"></path><path d="M470.26,304.25a1.79,1.79,0,0,1-.22.31c-.16.18-.38.47-.72.8a17.75,17.75,0,0,1-3.06,2.52,19.79,19.79,0,0,1-24.37-1.8,17.63,17.63,0,0,1-2.66-2.93c-.29-.38-.46-.7-.6-.9a1.65,1.65,0,0,1-.17-.34,32.27,32.27,0,0,0,3.67,3.9,20,20,0,0,0,23.93,1.76A32.08,32.08,0,0,0,470.26,304.25Z" style="fill:#e0e0e0"></path><path d="M435.44,122.78a1.64,1.64,0,0,1,.18-.28l.54-.75a10,10,0,0,0,.84-1.27,14.21,14.21,0,0,0,1-1.82,18.87,18.87,0,0,0,1.68-5.38,19.65,19.65,0,0,0-.23-7.43,19.48,19.48,0,0,0-12.29-14,18.64,18.64,0,0,0-5.46-1.15,23.4,23.4,0,0,0-2.9,0,22.52,22.52,0,0,0-2.9.49,19.34,19.34,0,0,0-14.84,17.54,17.52,17.52,0,0,0,.46,5.8,18.33,18.33,0,0,0,2.05,5.2,19.44,19.44,0,0,0,15.85,9.8,19.86,19.86,0,0,0,7.37-1,18.81,18.81,0,0,0,5-2.56,14.3,14.3,0,0,0,1.63-1.27,9.74,9.74,0,0,0,1.11-1l.65-.67a1.62,1.62,0,0,1,.24-.21,1.47,1.47,0,0,1-.2.25c-.15.18-.36.41-.62.7a9.92,9.92,0,0,1-1.08,1.08,15,15,0,0,1-1.61,1.32,18.84,18.84,0,0,1-5.06,2.66,19.88,19.88,0,0,1-16.28-1.43,19.94,19.94,0,0,1-7.45-7.4,18.61,18.61,0,0,1-2.11-5.32,18.13,18.13,0,0,1-.49-6,19,19,0,0,1,1.37-6,21,21,0,0,1,3.28-5.47,19.94,19.94,0,0,1,10.58-6.49,23.43,23.43,0,0,1,3-.49,22.65,22.65,0,0,1,3,0,19.22,19.22,0,0,1,5.6,1.2,20.09,20.09,0,0,1,8.53,6.12A20,20,0,0,1,440,113.33a18.69,18.69,0,0,1-1.79,5.42,12.79,12.79,0,0,1-1,1.81,10.41,10.41,0,0,1-.88,1.25l-.59.73A2.23,2.23,0,0,1,435.44,122.78Z" style="fill:#263238"></path><path d="M434.61,105.72a4.84,4.84,0,0,1-3.76,2.12c-3.57-.07-3.91-5.35-7-6.11-1.64-.4-3.31.68-5,.6a4.35,4.35,0,0,1-3.76-4.79,6,6,0,0,1,4.3-4.79,13.79,13.79,0,0,1,7.6.47,16.66,16.66,0,0,1,3.73,2,11.94,11.94,0,0,1,3.72,4S436.63,102.61,434.61,105.72Z" style="fill:#ebebeb"></path><path d="M434.17,121.31a4.53,4.53,0,0,1-.8,1,15.41,15.41,0,0,1-2.68,2.21,17.31,17.31,0,0,1-21.32-1.57,15.56,15.56,0,0,1-2.32-2.58,5.54,5.54,0,0,1-.66-1.08,30.28,30.28,0,0,0,3.22,3.38,17.5,17.5,0,0,0,20.89,1.54A28.25,28.25,0,0,0,434.17,121.31Z" style="fill:#e0e0e0"></path><path d="M286.73,197a28.12,28.12,0,0,0,1.11-4,15.86,15.86,0,0,0,.12-4.8,16.59,16.59,0,0,0-15.23-14.63,15.57,15.57,0,0,0-4.74.33,20.36,20.36,0,0,0-2.36.68,18.79,18.79,0,0,0-2.27,1.08,16.45,16.45,0,0,0-8.06,17.78,17.69,17.69,0,0,0,.69,2.42,18.75,18.75,0,0,0,1,2.22,16,16,0,0,0,2.88,3.78,16.61,16.61,0,0,0,21,1.81,16.21,16.21,0,0,0,3.53-3.25,28.74,28.74,0,0,0,2.25-3.45,1.58,1.58,0,0,1-.1.25l-.35.72a7.19,7.19,0,0,1-.63,1.14,11.42,11.42,0,0,1-1,1.46,15.91,15.91,0,0,1-3.52,3.37,17,17,0,0,1-13.7,2.63,17,17,0,0,1-7.84-4.34,15.53,15.53,0,0,1-3-3.88,18.56,18.56,0,0,1-1.09-2.29,20.2,20.2,0,0,1-.71-2.48,17,17,0,0,1,8.31-18.34,19.86,19.86,0,0,1,2.34-1.1,17.75,17.75,0,0,1,2.44-.69,15.84,15.84,0,0,1,4.88-.32,16.89,16.89,0,0,1,15.48,15.07A16,16,0,0,1,288,193a11.64,11.64,0,0,1-.43,1.72,8.06,8.06,0,0,1-.44,1.23c-.13.3-.23.54-.32.73A1,1,0,0,1,286.73,197Z" style="fill:#263238"></path><path d="M282.07,183.16a4.13,4.13,0,0,1-2.58,2.62c-2.94.77-4.45-3.48-7.19-3.37-1.44.05-2.56,1.33-4,1.65a3.71,3.71,0,0,1-4.2-3.05,5.13,5.13,0,0,1,2.41-4.93,11.83,11.83,0,0,1,6.34-1.38,14.32,14.32,0,0,1,3.52.79,10.09,10.09,0,0,1,4,2.44S283,180.15,282.07,183.16Z" style="fill:#f5f5f5"></path><path d="M284.57,195.09a3.73,3.73,0,0,1-.4,1,20,20,0,0,1-1.47,2.56,16.38,16.38,0,0,1-2.91,3.31,10.88,10.88,0,0,1-4.81,2.45,15,15,0,0,1-9.59-1.25,13.18,13.18,0,0,1-2.5-1.59,3.54,3.54,0,0,1-.78-.75,28.48,28.48,0,0,0,3.44,2,15.44,15.44,0,0,0,9.32,1.07,10.8,10.8,0,0,0,4.61-2.31,17.35,17.35,0,0,0,2.92-3.15C283.84,196.45,284.49,195.05,284.57,195.09Z" style="fill:#e0e0e0"></path><path d="M310.26,138.56c-1.43-.13-2.59-.39-2.58-.58s1.18-.36,2.62-.37,2.6.25,2.58.58S311.69,138.68,310.26,138.56Z" style="fill:#263238"></path><path d="M305.17,147.24c-.8-1.2-1.32-2.26-1.16-2.38s1,.71,1.92,1.82,1.43,2.19,1.16,2.38S306,148.44,305.17,147.24Z" style="fill:#263238"></path><path d="M295.19,148.68c.44-1.37.95-2.44,1.14-2.39s.08,1.24-.22,2.64-.82,2.48-1.14,2.39S294.75,150.05,295.19,148.68Z" style="fill:#263238"></path><path d="M287.85,141.77c1.34-.5,2.5-.77,2.58-.59s-.92.83-2.21,1.46-2.44.91-2.57.6S286.5,142.28,287.85,141.77Z" style="fill:#263238"></path><path d="M288.68,131.73c1.23.74,2.16,1.47,2.07,1.64s-1.22-.19-2.52-.81-2.23-1.35-2.07-1.64S287.44,131,288.68,131.73Z" style="fill:#263238"></path><path d="M297,126.11c.2,1.43.2,2.62,0,2.65s-.61-1.07-.94-2.48-.33-2.58,0-2.64S296.85,124.69,297,126.11Z" style="fill:#263238"></path><path d="M306.65,129.16c-1,1-1.92,1.78-2.06,1.65s.46-1.14,1.35-2.27,1.81-1.87,2.06-1.66S307.65,128.12,306.65,129.16Z" style="fill:#263238"></path><path d="M89.55,227.4a6.14,6.14,0,0,1-2.56-.72,6.31,6.31,0,0,1,2.63-.33c1.44,0,2.59.31,2.56.72S91,227.63,89.55,227.4Z" style="fill:#263238"></path><path d="M86.12,232.42a6.2,6.2,0,0,1-1-2.44c.13-.1,1,.74,1.9,1.85s1.38,2.21,1,2.45S86.83,233.67,86.12,232.42Z" style="fill:#263238"></path><path d="M80.07,232.88a6.58,6.58,0,0,1,1.26-2.34,6.63,6.63,0,0,1-.26,2.65c-.3,1.4-.87,2.45-1.27,2.33S79.52,234.21,80.07,232.88Z" style="fill:#263238"></path><path d="M75.93,228.43a6.52,6.52,0,0,1,2.61-.47c.06.15-.94.8-2.23,1.45s-2.46.85-2.61.46S74.55,228.84,75.93,228.43Z" style="fill:#263238"></path><path d="M76.82,222.42c1.18.83,2.08,1.61,2,1.75a6.32,6.32,0,0,1-2.52-.84c-1.31-.6-2.21-1.39-2-1.75S75.64,221.6,76.82,222.42Z" style="fill:#263238"></path><path d="M82.07,219.37A6.37,6.37,0,0,1,82,222a6.21,6.21,0,0,1-.91-2.49c-.35-1.4-.29-2.59.12-2.65S82,217.94,82.07,219.37Z" style="fill:#263238"></path><path d="M87.73,221.57c-1.06,1-2,1.67-2.14,1.56A6.36,6.36,0,0,1,87,220.86c.88-1.14,1.85-1.84,2.15-1.56S88.8,220.6,87.73,221.57Z" style="fill:#263238"></path><path d="M208.7,64.71a6,6,0,0,1-2.55-.72,6.21,6.21,0,0,1,2.63-.32c1.44,0,2.59.3,2.56.71S210.12,64.94,208.7,64.71Z" style="fill:#263238"></path><path d="M205.28,69.73a6.5,6.5,0,0,1-1-2.44c.14-.09,1,.74,1.9,1.85s1.39,2.21,1,2.45S206,71,205.28,69.73Z" style="fill:#263238"></path><path d="M199.22,70.19a6.52,6.52,0,0,1,1.27-2.34,6.53,6.53,0,0,1-.27,2.65c-.29,1.4-.86,2.45-1.26,2.33S198.68,71.52,199.22,70.19Z" style="fill:#263238"></path><path d="M195.08,65.74a6.55,6.55,0,0,1,2.62-.47c.06.15-.95.8-2.23,1.45s-2.46.85-2.62.47S193.71,66.15,195.08,65.74Z" style="fill:#263238"></path><path d="M196,59.73c1.18.83,2.07,1.61,2,1.76a6.67,6.67,0,0,1-2.51-.85c-1.31-.6-2.21-1.39-2-1.75S194.8,58.91,196,59.73Z" style="fill:#263238"></path><path d="M201.23,56.68a6.27,6.27,0,0,1-.13,2.65,6.58,6.58,0,0,1-.91-2.49c-.34-1.4-.29-2.59.13-2.65S201.14,55.25,201.23,56.68Z" style="fill:#263238"></path><path d="M206.89,58.88c-1.06,1-2,1.67-2.15,1.56a6.3,6.3,0,0,1,1.38-2.27c.88-1.14,1.84-1.84,2.15-1.56S208,57.91,206.89,58.88Z" style="fill:#263238"></path><path d="M465.86,234.69a6.5,6.5,0,0,1-2.56-.72,6.38,6.38,0,0,1,2.64-.33c1.43,0,2.58.3,2.55.72S467.28,234.92,465.86,234.69Z" style="fill:#263238"></path><path d="M462.44,239.71a6.2,6.2,0,0,1-1-2.45c.13-.09,1,.75,1.9,1.86s1.38,2.21,1,2.44S463.14,241,462.44,239.71Z" style="fill:#263238"></path><path d="M456.38,240.17a6.47,6.47,0,0,1,1.26-2.34,6.37,6.37,0,0,1-.26,2.64c-.3,1.41-.87,2.46-1.27,2.34S455.84,241.5,456.38,240.17Z" style="fill:#263238"></path><path d="M452.24,235.72a6.32,6.32,0,0,1,2.61-.47c.06.15-.94.8-2.23,1.44s-2.46.86-2.61.47S450.86,236.13,452.24,235.72Z" style="fill:#263238"></path><path d="M453.13,229.71c1.18.82,2.08,1.61,2,1.75a6.37,6.37,0,0,1-2.52-.84c-1.3-.61-2.2-1.39-2-1.76S452,228.89,453.13,229.71Z" style="fill:#263238"></path><path d="M458.38,226.66a6.39,6.39,0,0,1-.12,2.65,6.38,6.38,0,0,1-.91-2.49c-.34-1.4-.29-2.59.12-2.66S458.29,225.22,458.38,226.66Z" style="fill:#263238"></path><path d="M464.05,228.86c-1.07,1-2,1.67-2.15,1.56a6.3,6.3,0,0,1,1.38-2.27c.87-1.14,1.84-1.84,2.14-1.56S465.11,227.89,464.05,228.86Z" style="fill:#263238"></path></g><g id="freepik--air-freshener--inject-9"><path d="M362.17,355.33h57.59s-1.07-43.37-2.85-70-29.86-24.53-33.06-26.66,0-19.2,0-19.2H332.61s3.2,17.06,0,19.2-31.28,0-33.06,26.66-2.84,70-2.84,70h65.46Z" style="fill:#fff"></path><path d="M362.17,355.33s-.39,0-1.15,0l-3.36,0-13,.05-48,.08h-.19v-.19c.46-17.64,1.06-38.44,2.28-61.48.18-2.88.35-5.8.53-8.75a30,30,0,0,1,1.88-8.8,23,23,0,0,1,5-7.74,26.62,26.62,0,0,1,3.59-3,31.35,31.35,0,0,1,4.12-2.32,42.41,42.41,0,0,1,9.09-2.89c1.57-.34,3.16-.6,4.75-.85l2.39-.39a9.78,9.78,0,0,0,2.25-.61,2.83,2.83,0,0,0,1.08-1.88,13.36,13.36,0,0,0,.3-2.38,40,40,0,0,0-.09-4.89c-.25-3.27-.7-6.56-1.28-9.84l-.06-.31h51.86l-.05.31a95.36,95.36,0,0,0-1.3,10,39.15,39.15,0,0,0-.07,5,12.63,12.63,0,0,0,.36,2.4,2.29,2.29,0,0,0,1.25,1.75,33.39,33.39,0,0,0,4.76.93c1.62.26,3.22.54,4.81.89a40.47,40.47,0,0,1,9.15,3,25.48,25.48,0,0,1,7.66,5.54,22.86,22.86,0,0,1,4.75,7.93,32.59,32.59,0,0,1,1.7,8.88c.17,3,.35,5.88.52,8.76,1.2,23.07,1.79,43.64,2.23,60.75v.18h-.17l-42.32-.08-11.34,0-2.94,0-1,0,1,0,2.94,0,11.34,0,42.32-.08-.18.18c-.49-17.1-1.11-37.68-2.34-60.73q-.25-4.32-.53-8.76A31.75,31.75,0,0,0,415,277.1a22.14,22.14,0,0,0-4.66-7.76,24.67,24.67,0,0,0-7.51-5.43,39.91,39.91,0,0,0-9.05-3c-1.57-.34-3.17-.62-4.78-.88l-2.42-.39a13.76,13.76,0,0,1-2.45-.57,2.19,2.19,0,0,1-1.05-.87,4.84,4.84,0,0,1-.5-1.21,12.7,12.7,0,0,1-.38-2.51,38.41,38.41,0,0,1,.07-5,96.48,96.48,0,0,1,1.3-10.06l.25.31H332.61l.25-.31a99,99,0,0,1,1.29,9.9,41.07,41.07,0,0,1,.1,5,14.92,14.92,0,0,1-.32,2.47,6,6,0,0,1-.43,1.21,2.17,2.17,0,0,1-.9,1,9.53,9.53,0,0,1-2.41.66l-2.4.39c-1.59.25-3.17.51-4.73.84a42.17,42.17,0,0,0-9,2.86A30.23,30.23,0,0,0,310,266a25.59,25.59,0,0,0-3.52,2.95,22.59,22.59,0,0,0-4.85,7.57,29.16,29.16,0,0,0-1.85,8.66c-.18,2.94-.36,5.86-.54,8.73-1.24,23-1.88,43.83-2.38,61.47l-.18-.19,48,.09,13,0,3.36,0Z" style="fill:#263238"></path><rect x="326.72" y="233.64" width="63.99" height="16.3" style="fill:#fff"></rect><path d="M390.71,249.94s0-.1,0-.29l0-.83c0-.76,0-1.83,0-3.21,0-2.8-.05-6.85-.08-12l.15.16-64,.1c.11-.11-.27.26.25-.26h0v16.29l-.26-.26,45.61.12,13.46.07,3.64,0h.95l.33,0a1.45,1.45,0,0,1-.3,0h-.92l-3.58,0-13.4.07-45.79.12h-.25v-.26c0-2.63,0-5.31,0-8v-8.26h0c.52-.52.15-.14.27-.26l64,.11h.16v.15c0,5.16-.07,9.24-.09,12.07,0,1.36,0,2.42,0,3.16l0,.81A1.1,1.1,0,0,1,390.71,249.94Z" style="fill:#263238"></path><polygon points="343.5 345 336.75 344.29 361.69 81.96 371.25 82.96 343.5 345" style="fill:#6f4439"></polygon><polygon points="361.14 342.06 354.37 342.52 336.75 105.89 346.34 105.24 361.14 342.06" style="fill:#ae7461"></polygon><polygon points="370.62 342.62 363.84 342.35 371.79 105.19 381.4 105.58 370.62 342.62" style="fill:#ae7461"></polygon><polygon points="362.11 330.59 355.33 330.31 357.89 123.08 367.5 123.46 362.11 330.59" style="fill:#ae7461"></polygon><path d="M381.44,249.94c0,.14-8,.26-17.84.26s-17.83-.12-17.83-.26,8-.26,17.83-.26S381.44,249.8,381.44,249.94Z" style="fill:#263238"></path><path d="M381.44,233.7c0,.14-8,.26-17.84.26s-17.83-.12-17.83-.26,8-.26,17.83-.26S381.44,233.56,381.44,233.7Z" style="fill:#263238"></path><path d="M305.43,335.53l1.14-26.7a86.67,86.67,0,0,1,39.8.27c21.09,5.35,45.34,5.67,56.36,2.52l8.5-1.89v25.8a9.47,9.47,0,0,1-9.47,9.47H314.9A9.47,9.47,0,0,1,305.43,335.53Z" style="fill:#37474F"></path><g style="opacity:0.2"><path d="M397.23,335.88a8.61,8.61,0,0,0-3.71-.49c-12.32.19-24.92.91-36.67-2.78-3.47-1.09-6.88-2.57-10.51-2.73-4.74-.2-9.41,1.88-14.13,1.39a13.43,13.43,0,0,1-10.81-8.14c-.72-1.79-1-3.73-1.86-5.47s-1.44-3.18-3.36-3.34-3.63-.2-4.09,3.43l-.73,9.23c.1,5.52,1,8.77,4.23,10.9s7.27,2.55,11.13,2.83c15.1,1.12,30.25,1,45.39.85l22-.19c2,0,4.68-.51,5-2.53A3,3,0,0,0,397.23,335.88Z"></path></g><path d="M390.38,344.39c0,.14-16.45.26-36.73.26s-36.74-.12-36.74-.26,16.44-.26,36.74-.26S390.38,344.24,390.38,344.39Z" style="fill:#263238"></path><path d="M308.64,284.41a1.4,1.4,0,0,1,0,.47c0,.37-.05.81-.09,1.34-.1,1.25-.23,2.91-.39,4.93-.34,4.15-.77,9.9-1.11,16.26s-.53,12.11-.63,16.28c-.06,2-.1,3.69-.14,4.94,0,.53,0,1,0,1.35a2.43,2.43,0,0,1-.05.46,1.31,1.31,0,0,1-.05-.46c0-.37,0-.82-.05-1.35,0-1.17,0-2.86,0-4.94,0-4.18.14-9.95.48-16.31s.83-12.11,1.26-16.27c.21-2.07.41-3.75.56-4.91.07-.53.14-1,.19-1.33A1.54,1.54,0,0,1,308.64,284.41Z" style="fill:#263238"></path><path d="M410.52,283c.15,0,.47,8.15.72,18.2s.34,18.22.2,18.22-.47-8.14-.72-18.2S410.38,283,410.52,283Z" style="fill:#263238"></path><path d="M332.52,266.4c0,.09-1.65.25-4.27.77a30.85,30.85,0,0,0-9.7,3.55,19.24,19.24,0,0,0-7.13,7.31,25.4,25.4,0,0,0-1.57,4,5.22,5.22,0,0,1,.16-1.16,13.82,13.82,0,0,1,1.08-3,18.67,18.67,0,0,1,7.19-7.59,28.65,28.65,0,0,1,9.91-3.46c1.33-.22,2.41-.33,3.16-.39A5.27,5.27,0,0,1,332.52,266.4Z" style="fill:#263238"></path><path d="M330.16,237.49a36.63,36.63,0,0,1-.29,3.84,36.63,36.63,0,0,1-.19,3.85,13.28,13.28,0,0,1,.48-7.69Z" style="fill:#fff"></path><path d="M380.76,237.14c0,.14-10.8.26-24.12.26s-24.12-.12-24.12-.26,10.79-.26,24.12-.26S380.76,237,380.76,237.14Z" style="fill:#263238"></path><path d="M340.47,310.61c0,.09-1.57-.44-4.13-1a47.81,47.81,0,0,0-20.3-.2c-2.57.52-4.12,1-4.15.93a4.37,4.37,0,0,1,1.06-.43c.7-.25,1.73-.55,3-.86a42.53,42.53,0,0,1,20.47.2c1.27.34,2.29.66,3,.92A5.17,5.17,0,0,1,340.47,310.61Z" style="fill:#fff"></path><path d="M389.46,318a7.86,7.86,0,0,1-1.34.14c-.87.06-2.13.1-3.68.12a94.73,94.73,0,0,1-12.11-.73,92.75,92.75,0,0,1-11.93-2.28c-1.5-.39-2.71-.74-3.53-1a6.22,6.22,0,0,1-1.27-.47,6.79,6.79,0,0,1,1.32.27c.84.21,2.06.51,3.57.86,3,.69,7.21,1.53,11.9,2.12s9,.8,12.05.87c1.55,0,2.8,0,3.67,0A6,6,0,0,1,389.46,318Z" style="fill:#fff"></path></g><g id="freepik--Oil--inject-9"><path d="M87.11,418.82H116s-.53-21.79-1.42-35.18-15-12.33-16.61-13.4,0-9.64,0-9.64H72.26s1.61,8.57,0,9.64-15.71,0-16.6,13.4-1.43,35.18-1.43,35.18H87.11Z" style="fill:#ebebeb"></path><path d="M87.11,418.82l-.57,0-1.69,0-6.52.05-24.1.08H54v-.19c.22-8.86.51-19.31,1.11-30.89.09-1.44.18-2.91.27-4.39l.3-2.25c.21-.73.41-1.48.65-2.21a12.09,12.09,0,0,1,6.43-6.62A20.1,20.1,0,0,1,67.39,371c.79-.17,1.59-.3,2.39-.43a11.55,11.55,0,0,0,2.29-.49c.26-.12.39-.5.48-.86A6.45,6.45,0,0,0,72.7,368a19.75,19.75,0,0,0,0-2.43,48.9,48.9,0,0,0-.64-4.93l-.05-.31H98.32l-.06.31a47.51,47.51,0,0,0-.65,5,18.72,18.72,0,0,0,0,2.48,5.69,5.69,0,0,0,.17,1.18c.12.38.23.71.57.79a16,16,0,0,0,2.35.47c.81.13,1.62.27,2.42.45a20.07,20.07,0,0,1,4.62,1.54A12,12,0,0,1,114,379.4a18.3,18.3,0,0,1,.58,2.23c.1.76.23,1.52.29,2.26.08,1.49.17,2.95.25,4.4.6,11.59.89,21.93,1.1,30.52V419H116l-21.25-.08-5.7-.05-1.48,0-.5,0,.5,0,1.48,0,5.7,0,21.25-.08-.17.18c-.26-8.59-.58-18.92-1.2-30.5-.23-2.88-.12-5.93-1.12-8.76a11.45,11.45,0,0,0-6.06-6.55,19.59,19.59,0,0,0-4.51-1.5c-.78-.18-1.58-.31-2.39-.44a14.79,14.79,0,0,1-2.48-.51,1.09,1.09,0,0,1-.59-.47,2.46,2.46,0,0,1-.26-.64,6.38,6.38,0,0,1-.19-1.29,17.93,17.93,0,0,1,0-2.54,48.81,48.81,0,0,1,.65-5.07l.26.31H72.26l.26-.31a50.1,50.1,0,0,1,.65,5,18.94,18.94,0,0,1,0,2.5,7,7,0,0,1-.16,1.27,1.73,1.73,0,0,1-.72,1.18,11.32,11.32,0,0,1-2.46.55c-.8.13-1.59.26-2.37.43A19.36,19.36,0,0,0,63,372.9a11.66,11.66,0,0,0-6.19,6.35c-1.12,2.78-1,5.82-1.2,8.7-.63,11.57-1,22-1.22,30.87l-.18-.19,24.1.09,6.52,0,1.69,0Z" style="fill:#263238"></path><rect x="69.31" y="357.69" width="32.15" height="8.19" style="fill:#ebebeb"></rect><path d="M101.45,365.87a4.75,4.75,0,0,1,0-.58c0-.41,0-.94,0-1.61,0-1.44,0-3.46-.08-6l.15.15c-7.25.06-19,.11-32.14.11l.26-.26h0v4.14c0,1.37,0,2.71,0,4l-.25-.25,22.86.11,6.78.08,1.84,0,.66,0a3,3,0,0,1-.59,0l-1.79,0-6.72.07-23,.12h-.26V357.7h0l.26-.27c13.19,0,24.89.05,32.14.11h.16v.16c0,2.57-.07,4.62-.09,6.08,0,.66,0,1.18,0,1.58A3.54,3.54,0,0,1,101.45,365.87Z" style="fill:#263238"></path><polygon points="75.58 370.32 74.03 348.93 97.14 348.93 94.91 370.32 75.58 370.32" style="fill:#ae7461"></polygon><path d="M58.61,408.87l.57-13.42a43.57,43.57,0,0,1,20,.14c10.59,2.69,22.77,2.85,28.31,1.27l4.27-.95v13a4.76,4.76,0,0,1-4.76,4.76H63.37A4.76,4.76,0,0,1,58.61,408.87Z" style="fill:#37474F"></path><path d="M100.14,357.69c0,.14-6.07.26-13.56.26S73,357.83,73,357.69s6.07-.27,13.55-.27S100.14,357.54,100.14,357.69Z" style="fill:#263238"></path><path d="M100.14,365.9c0,.14-6.07.26-13.56.26S73,366,73,365.9s6.07-.26,13.55-.26S100.14,365.75,100.14,365.9Z" style="fill:#263238"></path><path d="M58.52,408.11a3.13,3.13,0,0,1,0-1c0-.76.07-1.66.12-2.72.14-2.43.31-5.53.5-9s.36-6.53.49-9l.17-2.72a3.65,3.65,0,0,1,.13-1,4,4,0,0,1,.07,1c0,.65,0,1.58,0,2.73,0,2.3-.13,5.48-.33,9s-.43,6.68-.65,9c-.11,1.14-.21,2.07-.29,2.71A4.33,4.33,0,0,1,58.52,408.11Z" style="fill:#263238"></path><path d="M100.61,413.43c0,.15-7.33.26-16.36.26s-16.36-.11-16.36-.26,7.32-.26,16.36-.26S100.61,413.29,100.61,413.43Z" style="fill:#263238"></path><path d="M70.89,359.12a6.18,6.18,0,0,1,.19,2.53,6.1,6.1,0,0,1-.33,2.52,6.69,6.69,0,0,1-.19-2.54A6.45,6.45,0,0,1,70.89,359.12Z" style="fill:#fff"></path><path d="M98.22,359.12c0,.14-5.61.26-12.52.26s-12.52-.12-12.52-.26,5.6-.26,12.52-.26S98.22,359,98.22,359.12Z" style="fill:#fff"></path><path d="M75.23,374a11.27,11.27,0,0,1-2.26.46,27.9,27.9,0,0,0-5.31,1.35,11.74,11.74,0,0,0-4.48,3c-.93,1-1.28,1.86-1.36,1.81a4.6,4.6,0,0,1,1.08-2.05,10.88,10.88,0,0,1,4.57-3.24,20.65,20.65,0,0,1,5.45-1.23A8.89,8.89,0,0,1,75.23,374Z" style="fill:#fff"></path><path d="M104.67,401.41a1.94,1.94,0,0,1-.42.13c-.28.07-.69.17-1.23.27a35.2,35.2,0,0,1-4.58.57,41,41,0,0,1-15-1.91c-2.84-.88-5.5-1.84-8-2.55a34,34,0,0,0-6.64-1.3,20.76,20.76,0,0,0-4.56.1,16.64,16.64,0,0,1-1.66.26,1.82,1.82,0,0,1,.41-.15,10.94,10.94,0,0,1,1.22-.31,18.91,18.91,0,0,1,4.62-.27,32.89,32.89,0,0,1,6.75,1.21c2.48.68,5.15,1.64,8,2.51a43.13,43.13,0,0,0,14.89,2c1.93-.07,3.49-.26,4.56-.4A10.19,10.19,0,0,1,104.67,401.41Z" style="fill:#fff"></path></g><g id="freepik--bath-bomb-2--inject-9"><path d="M260.07,233.85a63.73,63.73,0,0,0-73.94,20.6l0,0a20.57,20.57,0,0,0-7.14,6.89c-2.48,4.36-3.18,9-2.61,11.33l0,.08a63.74,63.74,0,0,0,111.92,57.94c1.84-1.4,8.61-7.22,8.82-16.89h-.07A63.74,63.74,0,0,0,260.07,233.85Z" style="fill:#37474F"></path><path d="M205.44,260.67a3.38,3.38,0,1,1-1.9-4.38A3.37,3.37,0,0,1,205.44,260.67Z" style="opacity:0.30000000000000004"></path><path d="M282.82,301.05a3.38,3.38,0,1,1-1.91-4.38A3.37,3.37,0,0,1,282.82,301.05Z" style="opacity:0.30000000000000004"></path><path d="M261.69,339.35a3.38,3.38,0,1,1-1.91-4.38A3.37,3.37,0,0,1,261.69,339.35Z" style="opacity:0.30000000000000004"></path><circle cx="274.16" cy="255.38" r="3.38" transform="translate(-79.06 130.4) rotate(-23.48)" style="opacity:0.30000000000000004"></circle><path d="M183.39,297.51a3.38,3.38,0,1,1-1.91-4.38A3.38,3.38,0,0,1,183.39,297.51Z" style="opacity:0.30000000000000004"></path><path d="M236.7,240.65a2,2,0,1,1-1.14-2.62A2,2,0,0,1,236.7,240.65Z" style="opacity:0.30000000000000004"></path><path d="M247.24,252.61a2,2,0,1,1-3.75-1.48,2,2,0,1,1,3.75,1.48Z" style="opacity:0.30000000000000004"></path><path d="M240.63,337.77a1.29,1.29,0,1,1-.73-1.68A1.29,1.29,0,0,1,240.63,337.77Z" style="opacity:0.30000000000000004"></path><path d="M215.72,315.77a2,2,0,1,1-1.14-2.62A2,2,0,0,1,215.72,315.77Z" style="opacity:0.30000000000000004"></path><path d="M240.38,285.27a2,2,0,1,1-1.14-2.62A2,2,0,0,1,240.38,285.27Z" style="opacity:0.30000000000000004"></path><path d="M199.61,337a2,2,0,1,1-1.14-2.61A2,2,0,0,1,199.61,337Z" style="opacity:0.30000000000000004"></path><path d="M295.55,284a2,2,0,1,1-1.14-2.61A2,2,0,0,1,295.55,284Z" style="opacity:0.30000000000000004"></path><path d="M244.88,234.49a2.21,2.21,0,0,1-.59,0l-1.66-.2-1.19-.15L240,234c-1,0-2.19-.18-3.49-.14h-2c-.71,0-1.44.08-2.2.12-1.52.05-3.13.29-4.82.5a57.49,57.49,0,0,0-20.81,7.4c-1.45.91-2.85,1.73-4.06,2.65-.61.45-1.22.86-1.77,1.3l-1.58,1.28c-1,.79-1.84,1.63-2.61,2.32-.37.35-.73.66-1,1l-.83.88-1.17,1.19a3.15,3.15,0,0,1-.43.4,2.7,2.7,0,0,1,.36-.46c.28-.34.64-.76,1.09-1.27l.8-.91c.3-.32.66-.65,1-1a35,35,0,0,1,2.58-2.39l1.56-1.32c.54-.45,1.16-.86,1.77-1.33,1.21-.94,2.61-1.79,4.06-2.71a55.73,55.73,0,0,1,21-7.46c1.71-.2,3.33-.43,4.87-.46.76,0,1.5-.1,2.21-.09l2,0c1.31,0,2.48.14,3.51.22l1.43.14,1.19.2,1.65.3A2.43,2.43,0,0,1,244.88,234.49Z" style="fill:#fff"></path><path d="M178.79,269.62a4.59,4.59,0,0,1-.06-1.89,11.37,11.37,0,0,1,4.44-7.8,4.56,4.56,0,0,1,1.66-.92,14.21,14.21,0,0,1-1.43,1.2,13.08,13.08,0,0,0-4.3,7.57A13.65,13.65,0,0,1,178.79,269.62Z" style="fill:#fff"></path><path d="M191.32,331.81a2.47,2.47,0,0,1-.41-.36l-1.1-1.11a21.77,21.77,0,0,1-1.67-1.83c-.62-.74-1.36-1.55-2.06-2.55L185,324.42c-.39-.54-.74-1.14-1.14-1.73-.8-1.19-1.52-2.54-2.3-3.95a55.05,55.05,0,0,1-6.06-19.92c-.13-1.61-.29-3.13-.28-4.56,0-.72,0-1.41,0-2.07s0-1.3.08-1.91c0-1.22.19-2.31.29-3.27s.23-1.78.36-2.45l.3-1.53a3.52,3.52,0,0,1,.14-.53,1.91,1.91,0,0,1,0,.55c-.06.41-.13.92-.21,1.54s-.21,1.49-.27,2.45-.21,2-.21,3.26c0,.6,0,1.23,0,1.89s0,1.34,0,2.05c0,1.43.18,2.93.32,4.52a57.33,57.33,0,0,0,6,19.76c.77,1.4,1.47,2.75,2.25,3.94.38.6.72,1.19,1.1,1.73l1.1,1.55c.67,1,1.39,1.83,2,2.59s1.14,1.38,1.59,1.88.76.85,1,1.17A2.19,2.19,0,0,1,191.32,331.81Z" style="fill:#fff"></path><g style="opacity:0.2"><path d="M300.47,291.46c0-.82-.07-1.64-.12-2.46a32.51,32.51,0,0,1-20.26-9.88c-3-3.15-5.38-6.95-9-9.38-4.14-2.8-9.38-3.43-14.37-3.17s-9.91,1.31-14.9,1.57c-4.51.23-9.49-.41-12.6-3.69-2.24-2.35-3.11-5.64-4-8.75a135.26,135.26,0,0,0-9-22.87,64.13,64.13,0,0,0-16.47,8.43l-.72.54c4.39,5.15,7.6,11.19,11.38,16.8s8.36,11,14.48,13.89,12.8,3.05,19.41,3.45c14,.86,28.91,3.29,39,13,5,4.81,9.25,11.61,16.14,12.32Z" style="fill:#fff"></path></g><g style="opacity:0.2"><path d="M243,347.1c-8.51-2.85-16.39-8.09-21.42-15.53-3.66-5.43-5.86-12-10.89-16.23-5.56-4.64-13.28-5.32-20.44-6.43-6-.94-12.54-2.73-16.61-7a64.12,64.12,0,0,0,6.11,19.73,78.77,78.77,0,0,1,10.31.3c6.8.7,13.61,2.66,19.16,6.66,7.44,5.36,12.12,14,19.82,19,6.24,4.05,13.84,5.31,21.19,6.48,1.18.19,2.37.38,3.56.53a63.35,63.35,0,0,0,11.39-4.38A66.78,66.78,0,0,1,243,347.1Z" style="fill:#fff"></path></g><g style="opacity:0.2"><path d="M285.87,325.91l-22.11-6.3c-6.12-1.74-12.41-3.56-17.46-7.43-7.83-6-11.8-16.18-20.1-21.49-4.19-2.68-9.15-3.88-13.55-6.19-7.07-3.71-12.4-10.17-16.11-17.24A96.49,96.49,0,0,1,189.89,250a62.77,62.77,0,0,0-5.48,6.83c2.84,7.05,5.73,14.16,10,20.44s10.28,11.87,17.57,14.31c5.21,1.74,11.05,1.93,15.6,5,7.21,4.85,8.55,15,14.26,21.5,4.17,4.78,10.38,7.3,16.57,8.68s12.57,1.8,18.74,3.26c3,.71,6.29,2.08,8.29,4.27a64.13,64.13,0,0,0,4.75-6.39A12,12,0,0,0,285.87,325.91Z" style="fill:#fff"></path></g><g style="opacity:0.2"><path d="M257.87,252.11c4.55,1.65,9.49,1.69,14.29,2.35s9.81,2.17,12.88,5.9c1.77,2.16,2.72,4.85,3.89,7.38s2.69,5.09,5.14,6.43a6.55,6.55,0,0,0,3.72.73A64,64,0,0,0,282.67,249a15.64,15.64,0,0,0-2.61-1.71c-6.42-3.32-14.64-1.58-20.91-5.19a14.09,14.09,0,0,1-6.7-10.67,62.5,62.5,0,0,0-8.37-1.56A21.78,21.78,0,0,0,257.87,252.11Z" style="fill:#fff"></path></g><g style="opacity:0.2"><path d="M212.33,347.62c-3.24-3.1-12.77-6.4-19-7.82a63.64,63.64,0,0,0,20.11,12.67c1.19.47,2.39.89,3.59,1.28A25.37,25.37,0,0,0,212.33,347.62Z" style="fill:#fff"></path></g><path d="M297.3,313.84a1.64,1.64,0,0,1-.33,0l-1-.12-3.71-.5-2.68-.37c-1-.16-2-.38-3.17-.59-2.27-.45-4.87-.86-7.68-1.6l-4.44-1.07c-1.55-.38-3.12-.89-4.77-1.36-3.3-.89-6.74-2.13-10.38-3.38a174.34,174.34,0,0,1-44-23.53c-3.06-2.33-6-4.5-8.58-6.76-1.3-1.11-2.6-2.13-3.77-3.2l-3.36-3.1c-2.18-1.93-4-3.86-5.6-5.5-.81-.82-1.58-1.58-2.25-2.3l-1.8-2-2.48-2.81-.63-.74a2.49,2.49,0,0,1-.21-.27l.25.23.67.71,2.55,2.74,1.83,2c.68.71,1.46,1.45,2.27,2.27,1.65,1.61,3.46,3.52,5.65,5.43l3.37,3.07c1.18,1.06,2.48,2.07,3.79,3.17,2.58,2.24,5.53,4.39,8.59,6.71a195.06,195.06,0,0,0,21.13,13.27,195.27,195.27,0,0,0,22.77,10.19c3.63,1.26,7.05,2.51,10.35,3.42,1.64.47,3.2,1,4.74,1.38l4.42,1.1c2.81.76,5.4,1.2,7.66,1.68,1.13.22,2.18.45,3.15.63l2.67.41,3.69.6,1,.17Z" style="fill:#263238"></path><path d="M288,332.8a1,1,0,0,1-.33,0l-1-.11-3.71-.5-2.68-.38c-1-.16-2-.37-3.17-.58-2.27-.45-4.87-.87-7.68-1.61l-4.44-1.07c-1.55-.38-3.12-.89-4.77-1.35-3.3-.9-6.74-2.14-10.38-3.39A189.59,189.59,0,0,1,227,313.61a191.85,191.85,0,0,1-21.17-13.34c-3.06-2.34-6-4.51-8.58-6.76-1.3-1.11-2.6-2.14-3.77-3.21l-3.36-3.1c-2.18-1.93-4-3.86-5.6-5.49-.81-.83-1.58-1.59-2.25-2.31l-1.8-2L178,274.57l-.63-.74-.21-.26s.09.07.25.23l.67.7,2.55,2.74,1.83,2c.68.71,1.46,1.45,2.27,2.27,1.65,1.61,3.46,3.52,5.65,5.43l3.37,3.07c1.18,1.06,2.48,2.07,3.79,3.17,2.58,2.24,5.53,4.39,8.59,6.71a178.38,178.38,0,0,0,43.9,23.46c3.63,1.26,7.05,2.51,10.35,3.42,1.64.47,3.2,1,4.74,1.38l4.42,1.1c2.81.76,5.4,1.2,7.65,1.68,1.14.22,2.19.46,3.16.63l2.67.42,3.69.59,1,.17Z" style="fill:#263238"></path></g><g id="freepik--Towel--inject-9"><path d="M462,392.52l-.18-.36c6.68-6.68,7.48-15.92,6.9-22.37-.25-2.85-1.92-5.35-3.61-7.56a19.24,19.24,0,0,0-15.37-7.53H246.37c-18.83.46-30.92,4.73-39.58,16.25-4.58,6.09-5.66,14.83-5.4,22.7.38,11,9.53,21.06,19.23,24.87s24.12,3.78,35.15,4.11c34.41,1,115.67-.19,150.1.23l39.37-5.78C457.82,415.24,467.71,403.89,462,392.52Z" style="fill:#37474F"></path><path d="M404.59,422.74a1.14,1.14,0,0,1-.31-.06l-.9-.22-1.47-.38L400,421.4a35.37,35.37,0,0,1-5.13-2.39,33.43,33.43,0,0,1-6-4.45,31,31,0,0,1-5.63-7.12,28.94,28.94,0,0,1-3.44-9.83,36,36,0,0,1,4.8-23,29.26,29.26,0,0,1,8.44-9,40.65,40.65,0,0,1,10.37-5c3.49-1.16,6.88-2,10.05-2.69s6.17-1.26,8.9-1.7c5.48-.87,9.95-1.27,13-1.47,1.55-.1,2.75-.15,3.56-.17l.93,0a1.57,1.57,0,0,1,.32,0l-.32,0-.92.07-3.55.28c-3.08.26-7.54.71-13,1.63-2.72.46-5.69,1-8.86,1.75s-6.54,1.56-10,2.73a40.19,40.19,0,0,0-10.23,5,28.81,28.81,0,0,0-8.28,8.85,35.6,35.6,0,0,0-4.77,22.69,28.38,28.38,0,0,0,3.34,9.68,30.49,30.49,0,0,0,5.5,7.07,33.29,33.29,0,0,0,5.91,4.47,35.5,35.5,0,0,0,5.05,2.45l1.92.72,1.44.43.89.27A1.2,1.2,0,0,1,404.59,422.74Z" style="fill:#263238"></path><path d="M446.69,378.72l-.28.09-.84.19-3.21.67L430.51,382c-5,1-11,2.21-17.49,3.85a22.48,22.48,0,0,0-4.81,1.72,9.53,9.53,0,0,0-3.87,3.48,6.69,6.69,0,0,0-.94,5.16,7,7,0,0,0,3.4,4.2,17,17,0,0,0,5.32,1.89c.92.19,1.86.23,2.77.35.46,0,.92.13,1.38.13h1.37a60.17,60.17,0,0,0,10.49-.84,136.44,136.44,0,0,0,17.4-4.13c4.88-1.47,8.77-2.85,11.45-3.82l3.08-1.14.8-.29a1,1,0,0,1,.28-.09.94.94,0,0,1-.26.14l-.78.34c-.69.29-1.72.72-3.05,1.23-2.66,1-6.54,2.46-11.41,4a133,133,0,0,1-17.43,4.26,60.88,60.88,0,0,1-10.57.87h-1.4c-.46,0-.93-.09-1.39-.13-.94-.12-1.89-.16-2.83-.35a17.22,17.22,0,0,1-5.49-2,7.44,7.44,0,0,1-3.63-4.52,7.18,7.18,0,0,1,1-5.55,10,10,0,0,1,4.07-3.65,23,23,0,0,1,4.92-1.74c6.56-1.63,12.53-2.79,17.54-3.75l11.88-2.2,3.23-.58.85-.14A1.06,1.06,0,0,1,446.69,378.72Z" style="fill:#263238"></path><g style="opacity:0.30000000000000004"><path d="M406.73,400.27c5.95,7.16,13.69,7.53,22.66,6.53s18.19-2.92,26.19-7.48c1.18-.67,3.57-1.42,4.21-2.68s1-3.16-.29-3.6c0,0-2.55,1.2-3.19,1.41-13.4,4.36-34,13.71-49.58,5.82"></path></g><g style="opacity:0.30000000000000004"><path d="M418.38,384.62c10,1.74,20.3-.32,30.23-2.81,2.23-.55,4.75-1.38,5.71-3.61a1.37,1.37,0,0,0,0-1.45,1.34,1.34,0,0,0-1.35-.12c-7.1,2-27.45,6-34.55,8"></path></g><path d="M244.29,394.78a36.72,36.72,0,0,1-4.67-7.3,18.76,18.76,0,0,1,2.56,3.51A18.43,18.43,0,0,1,244.29,394.78Z" style="fill:#263238"></path><path d="M246.07,393.41a22.73,22.73,0,0,1-.4-6.85,11.34,11.34,0,0,1,.46,3.41A11.7,11.7,0,0,1,246.07,393.41Z" style="fill:#263238"></path><path d="M249.82,394.33c-.14-.07.54-1.72,1-3.85s.55-3.91.71-3.91a12.2,12.2,0,0,1-1.7,7.76Z" style="fill:#263238"></path><path d="M273.57,358.33a14.28,14.28,0,0,1-5.45-7.36c.14-.07,1,1.79,2.53,3.82S273.68,358.21,273.57,358.33Z" style="fill:#263238"></path><path d="M275.24,356.92a10.12,10.12,0,0,1-.48-3.18,10.23,10.23,0,0,1,0-3.21,19.82,19.82,0,0,1,.44,6.39Z" style="fill:#263238"></path><path d="M279.87,356.43a10,10,0,0,1,.41-3.24,10.13,10.13,0,0,1,.92-3.13,10.69,10.69,0,0,1-.41,3.24A10.47,10.47,0,0,1,279.87,356.43Z" style="fill:#263238"></path><path d="M341.58,427.63a28,28,0,0,1,2.12-7.3,14.33,14.33,0,0,1-.81,3.73A14.68,14.68,0,0,1,341.58,427.63Z" style="fill:#263238"></path><path d="M349.22,426.72a38.26,38.26,0,0,1-1.7-8.67,37.12,37.12,0,0,1,1.7,8.67Z" style="fill:#263238"></path><path d="M356.44,426.72a15,15,0,0,1-2.13-3.29,15.21,15.21,0,0,1-1.69-3.55,14.84,14.84,0,0,1,2.14,3.29A14.46,14.46,0,0,1,356.44,426.72Z" style="fill:#263238"></path><path d="M468.13,357.31a9.44,9.44,0,0,1-2.39,2.05,9.61,9.61,0,0,1-2.69,1.62,9.44,9.44,0,0,1,2.39-2.05A9.91,9.91,0,0,1,468.13,357.31Z" style="fill:#263238"></path><path d="M468.72,361.06c.06.13-.83.71-2.07,1.1a4.08,4.08,0,0,1-2.33.29,8.23,8.23,0,0,1,2.17-.79A8,8,0,0,1,468.72,361.06Z" style="fill:#263238"></path><path d="M462.48,353.76a9.18,9.18,0,0,1-.79,2.92,8.78,8.78,0,0,1-1.28,2.75,9.18,9.18,0,0,1,.79-2.92A8.78,8.78,0,0,1,462.48,353.76Z" style="fill:#263238"></path><path d="M339.87,384.24a10.89,10.89,0,0,1-2.6-2.06,10.77,10.77,0,0,1-2.24-2.45,10.88,10.88,0,0,1,2.6,2.07A10.57,10.57,0,0,1,339.87,384.24Z" style="fill:#263238"></path><path d="M343.74,383.87a22,22,0,0,1-1.61-6.59,11.58,11.58,0,0,1,1.06,3.24A11.38,11.38,0,0,1,343.74,383.87Z" style="fill:#263238"></path><path d="M346.69,384.21a10.27,10.27,0,0,1,.72-3.2,10.09,10.09,0,0,1,1.22-3,11,11,0,0,1-.72,3.2A10.4,10.4,0,0,1,346.69,384.21Z" style="fill:#263238"></path><path d="M224.63,423.11a13.75,13.75,0,0,1,1.57-3.41,14.32,14.32,0,0,1,2-3.16,13.16,13.16,0,0,1-1.57,3.41A13.36,13.36,0,0,1,224.63,423.11Z" style="fill:#263238"></path><path d="M231.35,423.42a12.63,12.63,0,0,1,1.62-4.86,6.77,6.77,0,0,1-.56,2.51A6.59,6.59,0,0,1,231.35,423.42Z" style="fill:#263238"></path><path d="M239.36,425.17a35.39,35.39,0,0,1-1.64-8.32A17.75,17.75,0,0,1,238.8,421,17,17,0,0,1,239.36,425.17Z" style="fill:#263238"></path><path d="M293.64,354.7h-.18l-.54,0-2.1,0-8,.06-28.4.05h0a85.11,85.11,0,0,0-17.67.54,57.09,57.09,0,0,0-18.71,6,31.21,31.21,0,0,0-11.4,10,34.91,34.91,0,0,0-5,13.32,33.78,33.78,0,0,0,.4,12.86,28,28,0,0,0,11.24,16.73,32.92,32.92,0,0,0,6.14,3.44,37.34,37.34,0,0,0,4.2,1.5l1.12.32a1.61,1.61,0,0,1,.37.12,1.7,1.7,0,0,1-.39-.07l-1.13-.27a34.75,34.75,0,0,1-4.25-1.41,32,32,0,0,1-6.23-3.39,29.46,29.46,0,0,1-6.74-6.54,28.43,28.43,0,0,1-2.8-4.71,28.86,28.86,0,0,1-2-5.62,34.29,34.29,0,0,1-.46-13,35.42,35.42,0,0,1,5-13.52,31.48,31.48,0,0,1,11.58-10.2,56.88,56.88,0,0,1,18.89-6,83.94,83.94,0,0,1,17.77-.5h0l28.4.13,8,.07,2.1,0,.54,0C293.58,354.68,293.64,354.69,293.64,354.7Z" style="fill:#263238"></path><g style="opacity:0.30000000000000004"><path d="M324.1,393.21c-3.7-9.14-10.43-17.27-19.35-21.49s-20-4.13-28.29,1.28L299,423.25l28.85-.95C328.65,412.47,327.8,402.36,324.1,393.21Z"></path></g></g><g id="freepik--bath-bomb-3--inject-9"><path d="M317.49,398.13a14.24,14.24,0,0,0-5.19-10.81l0,0A40.11,40.11,0,0,0,240.58,421h0a12.85,12.85,0,0,0,.79,6.2c1.26,2.89,3.35,5,4.73,5.58h.06a40.11,40.11,0,0,0,71.37-34.61Z" style="fill:#455a64"></path><path d="M251,413.56a2.13,2.13,0,1,1-2.93-.68A2.13,2.13,0,0,1,251,413.56Z" style="opacity:0.30000000000000004"></path><path d="M300.5,389.76a2.13,2.13,0,1,1-2.93-.69A2.12,2.12,0,0,1,300.5,389.76Z" style="opacity:0.30000000000000004"></path><path d="M311.86,414.84a2.13,2.13,0,1,1-2.93-.69A2.14,2.14,0,0,1,311.86,414.84Z" style="opacity:0.30000000000000004"></path><path d="M276,375.8a2.12,2.12,0,1,1-2.92-.69A2.13,2.13,0,0,1,276,375.8Z" style="opacity:0.30000000000000004"></path><path d="M261.26,438.56a2.12,2.12,0,1,1-2.93-.68A2.13,2.13,0,0,1,261.26,438.56Z" style="opacity:0.30000000000000004"></path><path d="M252.67,390.26a1.27,1.27,0,1,1-1.75-.41A1.28,1.28,0,0,1,252.67,390.26Z" style="opacity:0.30000000000000004"></path><path d="M262.67,389.45a1.27,1.27,0,1,1-1.75-.41A1.27,1.27,0,0,1,262.67,389.45Z" style="opacity:0.30000000000000004"></path><path d="M303.12,424.86a.81.81,0,1,1-1.38.86.82.82,0,0,1,.26-1.12A.81.81,0,0,1,303.12,424.86Z" style="opacity:0.30000000000000004"></path><path d="M282.65,429.14a1.27,1.27,0,1,1-1.75-.41A1.27,1.27,0,0,1,282.65,429.14Z" style="opacity:0.30000000000000004"></path><path d="M276.55,405.21a1.27,1.27,0,1,1-1.74-.41A1.27,1.27,0,0,1,276.55,405.21Z" style="opacity:0.30000000000000004"></path><path d="M287.27,445.25a1.27,1.27,0,1,1-1.75-.41A1.27,1.27,0,0,1,287.27,445.25Z" style="opacity:0.30000000000000004"></path><path d="M296.71,376.93a1.27,1.27,0,1,1-1.75-.41A1.26,1.26,0,0,1,296.71,376.93Z" style="opacity:0.30000000000000004"></path><path d="M252.64,383.82c.08.08-1.43,1.43-3.4,4-.49.65-1,1.36-1.52,2.17s-1,1.69-1.56,2.62a40.61,40.61,0,0,0-2.68,6.43,39.3,39.3,0,0,0-1.41,6.82c-.09,1.07-.21,2.08-.2,3s0,1.84,0,2.65c.17,3.25.66,5.22.55,5.24a7.32,7.32,0,0,1-.37-1.37,14.48,14.48,0,0,1-.29-1.65,20.39,20.39,0,0,1-.25-2.2,25.21,25.21,0,0,1-.09-2.68,30.32,30.32,0,0,1,.15-3.08A37.79,37.79,0,0,1,243,398.9a38.49,38.49,0,0,1,2.76-6.5c.55-.94,1-1.84,1.62-2.62a22.66,22.66,0,0,1,1.59-2.17,20.29,20.29,0,0,1,1.44-1.67,13.31,13.31,0,0,1,1.18-1.19A7.13,7.13,0,0,1,252.64,383.82Z" style="fill:#fff"></path><path d="M245.47,430.38c0,.05-.46-.14-1-.64a6.92,6.92,0,0,1-2.28-5.22c0-.75.17-1.19.23-1.18a14.3,14.3,0,0,0,.83,3.83A14.68,14.68,0,0,0,245.47,430.38Z" style="fill:#fff"></path><path d="M281.54,447.48a5.34,5.34,0,0,1-1.3.25,13.83,13.83,0,0,1-1.55.17c-.61,0-1.3.11-2.07.09a33.87,33.87,0,0,1-5.37-.39,36.78,36.78,0,0,1-6.4-1.64,38.49,38.49,0,0,1-6-2.82A34.07,34.07,0,0,1,254.5,440c-.61-.48-1.09-1-1.54-1.39a15.21,15.21,0,0,1-1.08-1.12,6.17,6.17,0,0,1-.85-1c.08-.07,1.33,1.35,3.7,3.25a36.2,36.2,0,0,0,4.4,3,36.27,36.27,0,0,0,12.19,4.4,35.47,35.47,0,0,0,5.3.5C279.66,447.67,281.53,447.38,281.54,447.48Z" style="fill:#fff"></path><g style="opacity:0.2"><path d="M253.07,412.83c4.26.21,8.69-.08,12.46-2.07s6.36-5.31,9.05-8.48c5.7-6.73,12.55-13.34,21.25-14.76,3.39-.55,9.73-1.68,13.72-3.7A39.71,39.71,0,0,0,302,377c-3.59,3.66-8.57,8-12.31,8.43-2.71.31-5.53.09-8.11,1-3,1-5.26,3.44-7,6.05s-3.07,5.49-4.82,8.1c-1.58,2.37-3.78,4.64-6.6,5-2,.24-4-.56-5.93-1.27a84.91,84.91,0,0,0-16.81-4.4,40.21,40.21,0,0,0-1.24,12.61C243.37,412.36,249.26,412.65,253.07,412.83Z" style="fill:#fff"></path></g><g style="opacity:0.2"><path d="M308.72,427.19a26.18,26.18,0,0,1-15.91,4.95c-4.11-.2-8.27-1.57-12.28-.62-4.43,1.06-7.69,4.7-10.94,7.89-2.75,2.68-6.1,5.29-9.8,5.73a40.27,40.27,0,0,0,12.26,4.35,48,48,0,0,1,4-5.08,24.91,24.91,0,0,1,10.57-7.16c5.51-1.73,11.62-.84,17-2.84,4.4-1.62,7.89-5,11.25-8.24q.82-.8,1.62-1.62a41.09,41.09,0,0,0,2.08-7.38A42.33,42.33,0,0,1,308.72,427.19Z" style="fill:#fff"></path></g><g style="opacity:0.2"><path d="M255.2,425.36c4.83.2,9.86-.71,13.83-3.47,2.84-2,5.14-4.85,8.4-6,5.16-1.8,10.76,1.33,16.22.92,4-.31,7.58-2.49,10.61-5.09s5.64-5.66,8.71-8.22a10.5,10.5,0,0,1,5.27-2.58,41.79,41.79,0,0,0-1.43-4.8,7.61,7.61,0,0,0-2.62,1.45l-11.51,8.78c-3.18,2.43-6.47,4.91-10.33,6-6,1.69-12.6-.15-18.4,2-2.93,1.1-5.4,3.15-8.23,4.5-4.53,2.17-9.8,2.42-14.76,1.63a61.77,61.77,0,0,1-11.22-3.16,38.66,38.66,0,0,0,1.38,5.33A66,66,0,0,0,255.2,425.36Z" style="fill:#fff"></path></g><path d="M312.4,387.27a3.38,3.38,0,0,1-.54.62l-1.64,1.7L309,390.8c-.45.44-.95.89-1.49,1.39-1.07,1-2.26,2.14-3.69,3.28l-2.21,1.84c-.77.64-1.62,1.24-2.48,1.9-1.69,1.33-3.61,2.6-5.61,4a109.1,109.1,0,0,1-28.47,13.35c-2.34.66-4.54,1.33-6.65,1.78-1.05.23-2.06.5-3,.69l-2.83.52c-1.8.37-3.45.54-4.89.74-.72.09-1.39.19-2,.26l-1.7.13-2.35.18a4.74,4.74,0,0,1-.83,0,5,5,0,0,1,.82-.13l2.34-.27,1.69-.18,2-.3c1.43-.23,3.07-.43,4.86-.81l2.81-.56c1-.19,2-.47,3-.71,2.09-.47,4.29-1.15,6.6-1.82a113,113,0,0,0,28.35-13.29c2-1.35,3.92-2.6,5.62-3.92.86-.64,1.71-1.24,2.49-1.86l2.22-1.81c1.44-1.13,2.64-2.26,3.74-3.22l1.51-1.34,1.22-1.19,1.7-1.62A6.82,6.82,0,0,1,312.4,387.27Z" style="fill:#263238"></path><path d="M318.47,399.09a3.84,3.84,0,0,1-.54.62l-1.64,1.69-1.19,1.22c-.45.44-1,.89-1.49,1.38-1.07,1-2.26,2.14-3.69,3.29l-2.21,1.84c-.77.64-1.62,1.24-2.48,1.9-1.69,1.33-3.61,2.6-5.61,4a110,110,0,0,1-28.47,13.35c-2.34.66-4.54,1.32-6.65,1.77-1.05.24-2.06.51-3,.69l-2.83.53c-1.8.36-3.45.53-4.89.74-.72.09-1.39.19-2,.25l-1.7.14-2.35.17a4.35,4.35,0,0,1-.83,0,5,5,0,0,1,.82-.13l2.34-.27,1.69-.18,2-.3c1.43-.23,3.07-.43,4.86-.82l2.81-.55c1-.2,2-.47,3-.72,2.09-.46,4.29-1.14,6.6-1.81a113,113,0,0,0,28.35-13.29c2-1.35,3.92-2.61,5.62-3.92.86-.65,1.71-1.24,2.49-1.87l2.22-1.8c1.44-1.13,2.64-2.27,3.74-3.22l1.51-1.35,1.22-1.18,1.7-1.63A7.5,7.5,0,0,1,318.47,399.09Z" style="fill:#263238"></path></g><g id="freepik--bath-bomb-1--inject-9"><path d="M204.71,355.25c0-1.84-.5-9-6.59-13.72l0,.05a50.92,50.92,0,0,0-91,42.66h0a16.33,16.33,0,0,0,1,7.87c1.6,3.67,4.26,6.35,6,7.08h.08a50.92,50.92,0,0,0,90.6-43.94Z" style="fill:#455a64"></path><path d="M120.29,374.85a2.7,2.7,0,1,1-3.71-.88A2.68,2.68,0,0,1,120.29,374.85Z" style="opacity:0.30000000000000004"></path><path d="M183.14,344.62a2.7,2.7,0,1,1-3.71-.87A2.7,2.7,0,0,1,183.14,344.62Z" style="opacity:0.30000000000000004"></path><path d="M197.56,376.47a2.7,2.7,0,1,1-3.71-.88A2.68,2.68,0,0,1,197.56,376.47Z" style="opacity:0.30000000000000004"></path><circle cx="149.77" cy="328.33" r="2.7" transform="translate(-190.75 208.83) rotate(-46.14)" style="opacity:0.30000000000000004"></circle><path d="M133.33,406.58a2.7,2.7,0,1,1-3.71-.87A2.7,2.7,0,0,1,133.33,406.58Z" style="opacity:0.30000000000000004"></path><path d="M122.43,345.26a1.62,1.62,0,0,1-.53,2.22,1.61,1.61,0,0,1-1.69-2.74A1.62,1.62,0,0,1,122.43,345.26Z" style="opacity:0.30000000000000004"></path><path d="M135.12,344.23a1.61,1.61,0,1,1-2.21-.52A1.61,1.61,0,0,1,135.12,344.23Z" style="opacity:0.30000000000000004"></path><path d="M186.48,389.19a1,1,0,1,1-1.42-.34A1,1,0,0,1,186.48,389.19Z" style="opacity:0.30000000000000004"></path><path d="M160.48,394.61a1.61,1.61,0,1,1-2.22-.52A1.61,1.61,0,0,1,160.48,394.61Z" style="opacity:0.30000000000000004"></path><circle cx="151.38" cy="365.09" r="1.61" transform="translate(-216.26 510.17) rotate(-89.01)" style="opacity:0.30000000000000004"></circle><path d="M166.35,415.07a1.61,1.61,0,1,1-2.22-.52A1.61,1.61,0,0,1,166.35,415.07Z" style="opacity:0.30000000000000004"></path><path d="M178.34,328.33a1.61,1.61,0,1,1-2.22-.52A1.62,1.62,0,0,1,178.34,328.33Z" style="opacity:0.30000000000000004"></path><path d="M122.39,337.08s-.09.14-.29.37l-.91,1a20.16,20.16,0,0,0-1.41,1.56c-.52.63-1.16,1.32-1.75,2.17l-1,1.29c-.33.46-.63,1-1,1.47-.69,1-1.3,2.14-2,3.32a51.31,51.31,0,0,0-3.42,8.17,50.55,50.55,0,0,0-1.79,8.67c-.11,1.36-.25,2.65-.24,3.86,0,.61,0,1.2,0,1.76s.05,1.1.07,1.62c0,1,.15,2,.23,2.77a20.51,20.51,0,0,0,.27,2.09c.08.52.15,1,.2,1.32a1.66,1.66,0,0,1,0,.47,1.39,1.39,0,0,1-.14-.45c-.08-.36-.18-.79-.3-1.3a18.2,18.2,0,0,1-.36-2.09,27.91,27.91,0,0,1-.31-2.79c0-.52-.06-1.07-.1-1.63s0-1.16,0-1.77c0-1.23.09-2.53.19-3.91a44.71,44.71,0,0,1,5.27-17c.69-1.19,1.32-2.34,2-3.33.35-.51.66-1,1-1.46l1-1.29c.62-.84,1.28-1.51,1.83-2.13a18.26,18.26,0,0,1,1.48-1.52l1-.91A2.12,2.12,0,0,1,122.39,337.08Z" style="fill:#fff"></path><path d="M113.28,396.19a3.21,3.21,0,0,1-1.27-.84,9.11,9.11,0,0,1-2.13-3,8.88,8.88,0,0,1-.75-3.6,3.12,3.12,0,0,1,.25-1.5,15.19,15.19,0,0,0,1,4.89A15.51,15.51,0,0,0,113.28,396.19Z" style="fill:#fff"></path><path d="M159.08,417.91a11.45,11.45,0,0,1-1.66.28,15.66,15.66,0,0,1-2,.2,25.89,25.89,0,0,1-2.62.11c-1,0-2,0-3.18-.11s-2.35-.23-3.63-.4a49.18,49.18,0,0,1-8.11-2.08,47.83,47.83,0,0,1-7.56-3.58c-1.09-.68-2.14-1.31-3.06-2a31,31,0,0,1-2.51-1.95,23.88,23.88,0,0,1-2-1.75,18,18,0,0,1-1.39-1.41,9.91,9.91,0,0,1-1.09-1.28,10.75,10.75,0,0,1,1.24,1.14c.38.38.85.84,1.44,1.34s1.21,1.1,2,1.68,1.59,1.25,2.53,1.88,2,1.28,3,1.95a51.23,51.23,0,0,0,7.5,3.5,50,50,0,0,0,8,2.09c1.26.18,2.45.38,3.59.45s2.18.15,3.14.17,1.84,0,2.61,0,1.42-.06,2-.11A9.23,9.23,0,0,1,159.08,417.91Z" style="fill:#fff"></path><g style="opacity:0.2"><path d="M105.24,373.56a174.21,174.21,0,0,1,17.7.36c5.4.26,11-.11,15.81-2.63s8.07-6.74,11.49-10.77c7.23-8.54,15.93-16.94,27-18.74,5.47-.88,13-1.41,16.73-5.48a45.43,45.43,0,0,0-7.29-6.68c-4.14,4.66-11.08,8.8-17.28,9.52-3.44.4-7,.12-10.29,1.26-3.77,1.31-6.68,4.36-8.9,7.68s-3.9,7-6.12,10.29c-2,3-4.8,5.88-8.38,6.3-2.58.31-5.1-.71-7.52-1.61a107.9,107.9,0,0,0-21.35-5.59,51.42,51.42,0,0,0-1.44,8.08l-.09,1.21c0,.39-.06.78-.08,1.17l0,.7C105.11,370.27,105.14,371.92,105.24,373.56Z" style="fill:#fff"></path></g><g style="opacity:0.2"><path d="M193.58,392.14c-5.9,4.09-13,6.63-20.19,6.29-5.23-.25-10.5-2-15.59-.79-5.63,1.34-9.76,6-13.9,10-3.48,3.41-7.74,6.72-12.43,7.28A51.11,51.11,0,0,0,147,420.45a62.46,62.46,0,0,1,5.12-6.45,31.59,31.59,0,0,1,13.42-9.08c7-2.2,14.75-1.08,21.63-3.61,5.58-2.06,10-6.32,14.28-10.47.69-.66,1.38-1.33,2-2a51.12,51.12,0,0,0,2.65-9.38A53.51,53.51,0,0,1,193.58,392.14Z" style="fill:#fff"></path></g><g style="opacity:0.2"><path d="M125.63,389.82c6.14.26,12.52-.9,17.57-4.4,3.6-2.5,6.52-6.16,10.66-7.6,6.55-2.29,13.67,1.68,20.58,1.15,5.06-.38,9.64-3.15,13.48-6.45s7.17-7.19,11.05-10.44a13.28,13.28,0,0,1,6.69-3.27c-.47-2.05-.95-3.56-.95-3.56s-3.18-1.46-4.19-.69L185.91,365.7c-4,3.09-8.21,6.24-13.11,7.62-7.57,2.15-16-.18-23.36,2.59-3.72,1.4-6.86,4-10.44,5.72-5.76,2.75-12.44,3.07-18.74,2.07a77.8,77.8,0,0,1-14.25-4c.42,2.28,1,4.55,1,4.55C113.68,385.82,121.91,389.66,125.63,389.82Z" style="fill:#fff"></path></g><path d="M198.26,341.47a1.07,1.07,0,0,1-.17.21l-.53.56-2.09,2.15L194,345.93c-.57.55-1.21,1.12-1.89,1.75-1.37,1.24-2.88,2.71-4.7,4.16l-2.8,2.33c-1,.81-2.06,1.57-3.15,2.4-2.15,1.7-4.59,3.31-7.13,5a150.44,150.44,0,0,1-17.45,9.77,151.73,151.73,0,0,1-18.67,7.17c-3,.84-5.76,1.69-8.44,2.26-1.33.3-2.61.64-3.86.88l-3.59.66c-2.28.47-4.37.69-6.2.95-.91.12-1.76.25-2.55.34l-2.16.18-3,.23-.78.05h-.26a1,1,0,0,1,.26-.06l.77-.09,3-.33,2.15-.23c.78-.1,1.63-.24,2.54-.37,1.82-.29,3.91-.54,6.18-1l3.57-.7c1.24-.24,2.51-.59,3.84-.9,2.66-.59,5.45-1.45,8.4-2.3a156.6,156.6,0,0,0,18.59-7.18,156.07,156.07,0,0,0,17.41-9.7c2.54-1.72,5-3.31,7.13-5,1.09-.82,2.17-1.58,3.16-2.37l2.82-2.3c1.83-1.43,3.35-2.88,4.73-4.1.69-.61,1.34-1.17,1.92-1.71l1.55-1.51,2.15-2.07.57-.53C198.18,341.52,198.25,341.46,198.26,341.47Z" style="fill:#263238"></path><path d="M205.23,357.23a1.29,1.29,0,0,1-.16.2l-.53.56-2.07,2.13-1.5,1.52c-.56.55-1.2,1.11-1.87,1.74-1.36,1.22-2.85,2.68-4.65,4.12l-2.79,2.31c-1,.8-2,1.55-3.11,2.38-2.14,1.67-4.55,3.26-7.08,5a147.54,147.54,0,0,1-17.32,9.6,147.94,147.94,0,0,1-18.55,7c-2.93.82-5.71,1.63-8.37,2.18-1.32.29-2.59.62-3.83.84l-3.55.65c-2.26.45-4.34.66-6.15.91-.91.12-1.75.24-2.53.32l-2.14.18-3,.22-.77.05H115a.82.82,0,0,1,.26-.05l.77-.1,2.94-.32,2.13-.23c.78-.09,1.62-.23,2.52-.36,1.8-.28,3.87-.51,6.12-1l3.54-.68c1.24-.23,2.5-.57,3.81-.87,2.65-.57,5.41-1.39,8.33-2.22a153.68,153.68,0,0,0,18.47-7,150.64,150.64,0,0,0,17.28-9.54c2.52-1.69,4.94-3.27,7.08-4.92,1.08-.81,2.15-1.56,3.12-2.35l2.8-2.27c1.81-1.42,3.32-2.86,4.69-4.06.68-.61,1.33-1.16,1.9-1.7l1.53-1.49,2.13-2.05.57-.53Z" style="fill:#263238"></path></g><g id="freepik--foam-2--inject-9"><path d="M204,433.52c-5.12-4.38-14.76-8.45-21.34-7,1.43-6.65-3.46-13.53-9.82-15.95s-13.61-1.1-19.77,1.77c1.59-7.49-4.07-16.24-11.8-19.4a24.26,24.26,0,0,0-24.18,3.25c-7.38,5.69-10,14.54-8.56,23.74A25.42,25.42,0,0,0,75.6,454.9H207.92C211.54,447.25,209.12,437.91,204,433.52Z" style="fill:#fff"></path><path d="M204,433.52a15,15,0,0,1,1.12,1.05,15.5,15.5,0,0,1,2.55,3.68A19.49,19.49,0,0,1,208,455l0,.08h-.08l-132.32.13h-.16l-.07-.14a26.44,26.44,0,0,1-.19-23.09,24.36,24.36,0,0,1,6-8,25.66,25.66,0,0,1,8.57-4.86,27.36,27.36,0,0,1,9.58-1.43,25.62,25.62,0,0,1,9.27,2.08l-.36.28a28.64,28.64,0,0,1,.26-10.73,22.89,22.89,0,0,1,4.5-9.42A24.46,24.46,0,0,1,130.43,391a25.58,25.58,0,0,1,4.8.18,26.9,26.9,0,0,1,4.59,1.08,21.17,21.17,0,0,1,4.21,1.94,20.65,20.65,0,0,1,3.57,2.79,20.28,20.28,0,0,1,2.83,3.4,18.48,18.48,0,0,1,2,3.84,14.73,14.73,0,0,1,.82,8.24l-.28-.22a31.19,31.19,0,0,1,11.52-3,19.63,19.63,0,0,1,10.5,2.24,16.64,16.64,0,0,1,6.61,6.91,12.63,12.63,0,0,1,1.18,8.22l-.16-.15a20.31,20.31,0,0,1,9.85.84,35.48,35.48,0,0,1,6.65,2.87,32,32,0,0,1,3.72,2.42c.78.62,1.15,1,1.15,1l-.3-.22c-.2-.15-.49-.39-.89-.69a34.75,34.75,0,0,0-3.74-2.35,35.89,35.89,0,0,0-6.64-2.8,20.11,20.11,0,0,0-9.74-.78l-.19,0,0-.19a12.32,12.32,0,0,0-1.2-8,16.24,16.24,0,0,0-6.5-6.75,19.31,19.31,0,0,0-10.32-2.17,30.9,30.9,0,0,0-11.37,3l-.35.16.07-.38a14.3,14.3,0,0,0-.82-8,18.13,18.13,0,0,0-2-3.75,20,20,0,0,0-2.79-3.33c-4.16-4.18-10.51-6.19-16.83-5.84a24,24,0,0,0-17.05,8.76,22.23,22.23,0,0,0-4.4,9.22,28,28,0,0,0-.24,10.53l.07.46-.43-.18a24.94,24.94,0,0,0-9.07-2,26.77,26.77,0,0,0-9.4,1.41,25.16,25.16,0,0,0-8.4,4.76,23.81,23.81,0,0,0-5.89,7.82,25.94,25.94,0,0,0,.18,22.63l-.23-.14,132.32.13-.12.08a18.67,18.67,0,0,0,1.66-9.61,19.14,19.14,0,0,0-1.92-6.93,16.34,16.34,0,0,0-2.48-3.7c-.33-.38-.62-.62-.8-.81Z" style="fill:#263238"></path><path d="M185.77,453c-2.67-2.29-7.7-4.41-11.13-3.64.74-3.46-1.81-7.05-5.12-8.31s-7.1-.58-10.32.92c.83-3.91-.91-9.91-5.11-11.12a14.82,14.82,0,0,0-13,2.16A13.9,13.9,0,0,0,136,445.93a13.26,13.26,0,0,0-17.17,18.22h69C189.71,460.16,188.45,455.29,185.77,453Z" style="fill:#ebebeb"></path><path d="M89.09,426.05l-.82.41a2.71,2.71,0,1,0,.82-.41Z" style="fill:#ebebeb"></path><path d="M120,405.11l-.82.41a2.71,2.71,0,1,0,.82-.41Z" style="fill:#ebebeb"></path><path d="M126,403.07l-.3.15a1,1,0,1,0,1.54.89A1,1,0,0,0,126,403.07Z" style="fill:#ebebeb"></path><path d="M122.36,398l-.46.23a1.53,1.53,0,1,0,.46-.23Z" style="fill:#ebebeb"></path><path d="M84.38,431.82,84,432a1.35,1.35,0,1,0,2.15,1.24A1.43,1.43,0,0,0,84.38,431.82Z" style="fill:#ebebeb"></path><path d="M436.73,428.2c-2.68-2.29-7.7-4.42-11.14-3.64.75-3.47-1.8-7.06-5.12-8.32s-7.1-.57-10.32.93c.83-3.91-.91-9.92-5.11-11.12a14.74,14.74,0,0,0-13,2.16,13.84,13.84,0,0,0-5.11,12.91,13.27,13.27,0,0,0-17.18,18.23h69C440.66,435.36,439.4,430.49,436.73,428.2Z" style="fill:#fff"></path><path d="M436.73,428.2a5.67,5.67,0,0,1,.59.53,8.15,8.15,0,0,1,1.35,1.92,10.15,10.15,0,0,1,.22,8.75l0,.07h-.08l-69,.14h-.15l-.08-.14a14,14,0,0,1,.27-12.87,12.93,12.93,0,0,1,7.68-6.17,13.77,13.77,0,0,1,9.56.46l-.36.27a14.2,14.2,0,0,1,3-11,13.54,13.54,0,0,1,9.49-4.95,16.13,16.13,0,0,1,5.16.37,7,7,0,0,1,2.37.94,7.6,7.6,0,0,1,1.8,1.73,11.05,11.05,0,0,1,1.84,4.39,11.66,11.66,0,0,1,0,4.52l-.28-.22a16.45,16.45,0,0,1,6.05-1.57,10.37,10.37,0,0,1,5.52,1.19c3.16,1.8,4.72,5.27,4.08,8l-.15-.15a10.59,10.59,0,0,1,5.16.45,18.81,18.81,0,0,1,3.47,1.51,12.18,12.18,0,0,1,2.53,1.8l-.17-.11-.47-.35a16.37,16.37,0,0,0-1.95-1.22,18.46,18.46,0,0,0-3.47-1.44,10.36,10.36,0,0,0-5.05-.4l-.19.05,0-.19c.59-2.6-.94-5.93-4-7.64a10,10,0,0,0-5.35-1.11,15.94,15.94,0,0,0-5.89,1.56l-.35.16.07-.39a11,11,0,0,0-.06-4.35,10.64,10.64,0,0,0-1.78-4.21,7,7,0,0,0-1.69-1.62,6.7,6.7,0,0,0-2.23-.87,16.15,16.15,0,0,0-5-.35,13.07,13.07,0,0,0-9.14,4.8,13.65,13.65,0,0,0-2.87,10.56l.07.46-.43-.18a13.19,13.19,0,0,0-9.19-.44,12.51,12.51,0,0,0-7.39,5.93,13.48,13.48,0,0,0-.26,12.38l-.23-.14,69,.13-.11.07a9.69,9.69,0,0,0,.87-5,10.24,10.24,0,0,0-1-3.61A9.34,9.34,0,0,0,436.73,428.2Z" style="fill:#263238"></path><circle cx="376.7" cy="425.78" r="1.64" style="fill:#ebebeb"></circle><circle cx="373.99" cy="428.8" r="1.08" style="fill:#ebebeb"></circle><circle cx="376.87" cy="429.03" r="0.54" style="fill:#ebebeb"></circle><path d="M371.55,452.67c-1.47-1.25-4.22-2.41-6.09-2a4.25,4.25,0,0,0-2.81-4.55,7.37,7.37,0,0,0-5.64.51c.45-2.14-.5-5.43-2.8-6.08a8.06,8.06,0,0,0-7.12,1.18,7.57,7.57,0,0,0-2.79,7.06,7.26,7.26,0,0,0-9.4,10h37.77A5.38,5.38,0,0,0,371.55,452.67Z" style="fill:#ebebeb"></path></g></svg>
