<svg xmlns="http://www.w3.org/2000/svg" viewBox="0 0 500 500"><g id="freepik--background-complete--inject-2"><rect y="382.4" width="500" height="0.25" style="fill:#ebebeb"></rect><rect x="416.78" y="398.49" width="33.12" height="0.25" style="fill:#ebebeb"></rect><rect x="322.53" y="401.21" width="8.69" height="0.25" style="fill:#ebebeb"></rect><rect x="396.59" y="389.21" width="19.19" height="0.25" style="fill:#ebebeb"></rect><rect x="52.46" y="390.89" width="43.19" height="0.25" style="fill:#ebebeb"></rect><rect x="104.56" y="390.89" width="6.33" height="0.25" style="fill:#ebebeb"></rect><rect x="131.47" y="395.11" width="93.68" height="0.25" style="fill:#ebebeb"></rect><path d="M237,337.8H43.91a5.71,5.71,0,0,1-5.7-5.71V60.66A5.71,5.71,0,0,1,43.91,55H237a5.71,5.71,0,0,1,5.71,5.71V332.09A5.71,5.71,0,0,1,237,337.8ZM43.91,55.2a5.46,5.46,0,0,0-5.45,5.46V332.09a5.46,5.46,0,0,0,5.45,5.46H237a5.47,5.47,0,0,0,5.46-5.46V60.66A5.47,5.47,0,0,0,237,55.2Z" style="fill:#ebebeb"></path><path d="M453.31,337.8H260.21a5.72,5.72,0,0,1-5.71-5.71V60.66A5.72,5.72,0,0,1,260.21,55h193.1A5.71,5.71,0,0,1,459,60.66V332.09A5.71,5.71,0,0,1,453.31,337.8ZM260.21,55.2a5.47,5.47,0,0,0-5.46,5.46V332.09a5.47,5.47,0,0,0,5.46,5.46h193.1a5.47,5.47,0,0,0,5.46-5.46V60.66a5.47,5.47,0,0,0-5.46-5.46Z" style="fill:#ebebeb"></path><path d="M394.26,296.44l-8.64-27.21-10.17-32h0L358.8,296.44h-1.48l-4.17-13.14v0L338.51,237.2h0l-16.65,59.24h-1.48l-5.24-16.52-3.94-12.38-9.63-30.34h0l-10.65,37.88-6,21.37h-1.47l-8.64-27.21-10.17-32h0L248,296.44H246.5l-5.25-16.52-4-12.61-9.56-30.11h0L217,275.07l-6,21.37h-1.48l-4.17-13.14v0L190.74,237.2h0l-16.65,59.24h-1.48L164,269.23l-10.17-32h0l-16.65,59.24h-1.48l-5.24-16.52-3.86-12.15-9.71-30.57h0l-10.65,37.88-6,21.37v66.44H394.26V296.44Z" style="fill:#e0e0e0"></path><path d="M400.76,267.5h0l-19.94,70.94h-1.76l-5-15.73a0,0,0,0,0,0,0l-17.52-55.17h0l-19.94,70.94h-1.76l-6.28-19.78-4.71-14.83L312.29,267.5h0l-12.75,45.35-7.19,25.59h-1.77l-10.34-32.58L268.06,267.5h0l-19.94,70.94h-1.77l-6.28-19.78-4.79-15.1L223.83,267.5h0l-12.75,45.35-7.19,25.59h-1.76l-5-15.73v0L179.6,267.51h0l-19.94,70.94h-1.76l-10.35-32.58L135.37,267.5h0l-19.94,70.94h-1.76l-6.28-19.78-4.62-14.54L91.13,267.5h0L54.18,382.05H440.29Z" style="fill:#ebebeb"></path><polygon points="245.53 126.36 251.58 115.22 253.9 127.68 263.1 118.96 261.46 131.53 272.9 126.08 267.45 137.53 280.03 135.88 271.3 145.09 283.77 147.4 272.63 153.46 283.77 159.52 271.3 161.84 280.03 171.04 267.45 169.39 272.9 180.84 261.46 175.39 263.1 187.96 253.9 179.24 251.58 191.71 245.53 180.57 239.47 191.71 237.15 179.24 227.95 187.96 229.59 175.39 218.15 180.84 223.6 169.39 211.02 171.04 219.75 161.84 207.28 159.52 218.42 153.46 207.28 147.4 219.75 145.09 211.02 135.88 223.6 137.53 218.15 126.08 229.59 131.53 227.95 118.96 237.15 127.68 239.47 115.22 245.53 126.36" style="fill:#f5f5f5"></polygon><circle cx="245.53" cy="153.46" r="22.61" transform="translate(-36.6 218.56) rotate(-45)" style="fill:#ebebeb"></circle></g><g id="freepik--Clouds--inject-2"><rect x="180" y="104.09" width="0.5" height="58.68" style="fill:#263238"></rect><rect x="140.8" y="105.39" width="0.5" height="105.71" style="fill:#263238"></rect><rect x="292.49" y="105.63" width="0.5" height="212.78" style="fill:#263238"></rect><rect x="344.22" y="105.76" width="0.5" height="86.7" style="fill:#263238"></rect><g style="opacity:0.5"><rect x="180" y="104.09" width="0.5" height="58.68" style="fill:#fff"></rect></g><g style="opacity:0.5"><rect x="140.8" y="105.39" width="0.5" height="105.71" style="fill:#fff"></rect></g><g style="opacity:0.5"><rect x="292.49" y="105.63" width="0.5" height="212.78" style="fill:#fff"></rect></g><g style="opacity:0.5"><rect x="344.22" y="105.76" width="0.5" height="86.7" style="fill:#fff"></rect></g><path d="M169.11,227.75a6.27,6.27,0,0,0-6.27-6.27,6.39,6.39,0,0,0-1.81.26,12.23,12.23,0,0,0,.15-1.92,13.29,13.29,0,0,0-15.75-13.07,11.62,11.62,0,0,0-21.54,5.88h-.19a10.71,10.71,0,1,0,0,21.41H163A6.27,6.27,0,0,0,169.11,227.75Z" style="fill:#37474F"></path><path d="M169.11,227.75a6.27,6.27,0,0,0-6.27-6.27,6.39,6.39,0,0,0-1.81.26,12.23,12.23,0,0,0,.15-1.92,13.29,13.29,0,0,0-15.75-13.07,11.62,11.62,0,0,0-21.54,5.88h-.19a10.71,10.71,0,1,0,0,21.41H163A6.27,6.27,0,0,0,169.11,227.75Z" style="fill:#fff;opacity:0.7000000000000001"></path><path d="M160.75,167.81a4.16,4.16,0,0,1,4.36-3.93,5.18,5.18,0,0,1,1.26.16,6.81,6.81,0,0,1-.1-1.21c0-4.6,4.13-8.33,9.24-8.33a10.64,10.64,0,0,1,1.7.14,8.27,8.27,0,0,1,6.89-3.5c4.42,0,8,3.21,8.08,7.18h.13c4.11,0,7.44,3,7.44,6.72s-3.33,6.71-7.44,6.71H165A4.16,4.16,0,0,1,160.75,167.81Z" style="fill:#37474F"></path><path d="M160.75,167.81a4.16,4.16,0,0,1,4.36-3.93,5.18,5.18,0,0,1,1.26.16,6.81,6.81,0,0,1-.1-1.21c0-4.6,4.13-8.33,9.24-8.33a10.64,10.64,0,0,1,1.7.14,8.27,8.27,0,0,1,6.89-3.5c4.42,0,8,3.21,8.08,7.18h.13c4.11,0,7.44,3,7.44,6.72s-3.33,6.71-7.44,6.71H165A4.16,4.16,0,0,1,160.75,167.81Z" style="fill:#fff;opacity:0.7000000000000001"></path><path d="M273.24,319.81a4.16,4.16,0,0,1,4.36-3.93,4.71,4.71,0,0,1,1.25.16,8,8,0,0,1-.1-1.21c0-4.6,4.14-8.34,9.24-8.34a10.54,10.54,0,0,1,1.7.15,8.29,8.29,0,0,1,6.9-3.5c4.42,0,8,3.2,8.07,7.18h.14c4.11,0,7.44,3,7.44,6.71s-3.33,6.72-7.44,6.72H277.48A4.15,4.15,0,0,1,273.24,319.81Z" style="fill:#37474F"></path><path d="M273.24,319.81a4.16,4.16,0,0,1,4.36-3.93,4.71,4.71,0,0,1,1.25.16,8,8,0,0,1-.1-1.21c0-4.6,4.14-8.34,9.24-8.34a10.54,10.54,0,0,1,1.7.15,8.29,8.29,0,0,1,6.9-3.5c4.42,0,8,3.2,8.07,7.18h.14c4.11,0,7.44,3,7.44,6.71s-3.33,6.72-7.44,6.72H277.48A4.15,4.15,0,0,1,273.24,319.81Z" style="fill:#fff;opacity:0.7000000000000001"></path><path d="M372.54,190.94a6.26,6.26,0,0,0-8.08-6,13.59,13.59,0,0,0,.14-1.93,13.29,13.29,0,0,0-15.75-13.06,11.61,11.61,0,0,0-21.54,5.87h-.19a10.71,10.71,0,1,0,0,21.42h39.31A6.28,6.28,0,0,0,372.54,190.94Z" style="fill:#37474F"></path><path d="M372.54,190.94a6.26,6.26,0,0,0-8.08-6,13.59,13.59,0,0,0,.14-1.93,13.29,13.29,0,0,0-15.75-13.06,11.61,11.61,0,0,0-21.54,5.87h-.19a10.71,10.71,0,1,0,0,21.42h39.31A6.28,6.28,0,0,0,372.54,190.94Z" style="fill:#fff;opacity:0.7000000000000001"></path><rect x="109.11" y="100.77" width="267.78" height="6.62" style="fill:#263238"></rect><rect x="117.98" y="100.77" width="250.02" height="6.62" style="fill:#fff;opacity:0.30000000000000004"></rect></g><g id="freepik--origami-bird-1--inject-2"><rect x="125.71" y="104.41" width="1" height="173.32" style="fill:#263238"></rect><polygon points="107.75 273.75 101.52 290.44 95.67 312.25 114.75 288.45 120.65 277.08 107.75 273.75" style="fill:#263238"></polygon><polygon points="120.65 277.08 114.75 288.45 111.26 292.8 95.67 312.25 101.52 290.44 104.3 282.98 107.75 273.75 120.65 277.08" style="fill:#fff;opacity:0.30000000000000004"></polygon><polygon points="120.65 277.08 114.75 288.45 111.26 292.8 108.34 290.61 95.67 312.25 107.38 289.27 104.3 282.98 107.75 273.75 120.65 277.08" style="opacity:0.2"></polygon><polygon points="125.95 260.35 112.34 267.51 101.82 241.02 100.32 242.59 98.04 242.34 113.09 297.65 116.21 295.59 118.77 297.59 125.95 260.35" style="fill:#263238"></polygon><polygon points="125.95 260.35 112.34 267.51 101.82 241.02 100.32 242.59 98.04 242.34 113.09 297.65 116.21 295.59 118.77 297.59 125.95 260.35" style="fill:#fff;opacity:0.30000000000000004"></polygon><polygon points="137.41 293.99 172.9 254.94 136.72 286.57 137.41 293.99" style="fill:#263238"></polygon><polygon points="137.41 293.99 172.9 254.94 136.72 286.57 137.41 293.99" style="opacity:0.2"></polygon><polygon points="137.41 293.99 172.9 254.94 136.72 286.57 137.41 293.99" style="fill:#fff;opacity:0.4"></polygon><polygon points="138.47 298.47 128.82 293.88 118.77 297.59 115.18 272.27 125.95 260.35 140.04 273 138.47 298.47" style="fill:#263238"></polygon><polygon points="118.77 297.59 101.82 241.02 117.58 267.44 113.53 271.23 118.77 297.59" style="fill:#263238"></polygon><polygon points="101.82 241.02 101.23 247.16 96.36 251.48 98.04 242.34 100.32 242.59 101.82 241.02" style="fill:#263238"></polygon><polygon points="138.47 298.47 128.82 293.88 118.77 297.59 115.18 272.27 125.95 260.35 140.04 273 138.47 298.47" style="fill:#fff;opacity:0.5"></polygon><polygon points="139.44 289.12 129.33 284.9 128.77 291.25 126.09 282.05 116.33 273.12 128.25 278.71 139.44 289.12" style="opacity:0.2"></polygon><polygon points="115.18 272.27 133.87 286.07 166.92 304.18 154.83 286.06 140.04 273 115.18 272.27" style="fill:#263238"></polygon><polygon points="115.18 272.27 133.87 286.07 166.92 304.18 154.83 286.06 140.04 273 115.18 272.27" style="fill:#fff;opacity:0.6000000000000001"></polygon><polygon points="126.89 272.62 166.92 304.18 129.51 272.69 126.89 272.62" style="opacity:0.2"></polygon><polygon points="118.77 297.59 101.82 241.02 117.58 267.44 113.53 271.23 118.77 297.59" style="fill:#fff;opacity:0.5"></polygon><polygon points="101.82 241.02 101.23 247.16 96.36 251.48 98.04 242.34 100.32 242.59 101.82 241.02" style="fill:#fff;opacity:0.5"></polygon><polygon points="100.32 242.59 96.36 251.48 98.04 242.34 100.32 242.59" style="opacity:0.2"></polygon><path d="M128.19,104.41a2,2,0,1,1-2-2A2,2,0,0,1,128.19,104.41Z" style="fill:#263238"></path></g><g id="freepik--origami-bird-4--inject-2"><rect x="361.45" y="104.41" width="1" height="247.49" style="fill:#263238"></rect><polygon points="359.62 319.68 331.42 293.42 305.61 278.81 311.22 296.13 339.74 329.68 359.62 319.68" style="fill:#37474F"></polygon><polygon points="359.62 319.68 331.42 293.42 305.61 278.81 311.22 296.13 339.74 329.68 359.62 319.68" style="fill:#fff;opacity:0.4"></polygon><polygon points="359.62 319.68 331.42 293.42 305.61 278.81 311.22 296.13 339.74 329.68 359.62 319.68" style="opacity:0.2"></polygon><polygon points="306.92 279.55 351.66 322.09 347.92 321.91 306.92 279.55" style="opacity:0.2"></polygon><polygon points="362.39 301.77 342.95 322.49 334.58 288.07 333.28 289.67 331.6 289.59 342.85 368.72 346.35 367.53 349.31 372.17 362.39 301.77" style="fill:#37474F"></polygon><polygon points="362.39 301.77 342.95 322.49 334.58 288.07 333.28 289.67 331.6 289.59 342.85 368.72 346.35 367.53 349.31 372.17 362.39 301.77" style="fill:#fff;opacity:0.2"></polygon><polygon points="372.74 319.04 405.07 251.43 377.59 333.35 372.74 319.04" style="fill:#37474F"></polygon><polygon points="372.74 319.04 405.07 251.43 377.59 333.35 372.74 319.04" style="fill:#fff;opacity:0.30000000000000004"></polygon><polygon points="349.31 372.17 334.58 288.07 348.42 323.67 345.5 330.29 349.31 372.17" style="fill:#37474F"></polygon><polygon points="331.6 289.59 325.73 300.05 334.37 292.48 334.58 288.07 333.28 289.67 331.6 289.59" style="fill:#37474F"></polygon><polygon points="331.6 289.59 325.73 300.05 334.37 292.48 334.58 288.07 333.28 289.67 331.6 289.59" style="fill:#fff;opacity:0.4"></polygon><polygon points="333.28 289.67 325.73 300.05 331.6 289.59 333.28 289.67" style="opacity:0.2"></polygon><polygon points="347.5 330.77 362.39 301.77 383.51 319.4 374.62 364 362.67 360.29 349.31 372.17 347.5 330.77" style="fill:#37474F"></polygon><polygon points="347.5 330.77 362.39 301.77 383.51 319.4 374.62 364 362.67 360.29 349.31 372.17 347.5 330.77" style="fill:#fff;opacity:0.4"></polygon><polygon points="347.5 330.77 362.69 347.8 362.67 360.29 366.03 346.31 383.51 319.4 363.82 344.67 347.5 330.77" style="opacity:0.2"></polygon><polygon points="347.5 330.77 369.97 308.1 378.68 315.37 347.5 330.77" style="opacity:0.2"></polygon><polygon points="347.5 330.77 398.08 292.06 425.93 278.92 417.34 290.54 383.51 319.4 365.22 331.21 347.5 330.77" style="fill:#37474F"></polygon><polygon points="347.5 330.77 398.08 292.06 425.93 278.92 417.34 290.54 383.51 319.4 365.22 331.21 347.5 330.77" style="fill:#fff;opacity:0.4"></polygon><polygon points="425.93 278.92 399.55 292.78 347.5 330.77 365.22 331.21 383.51 319.4 417.34 290.54 425.93 278.92" style="opacity:0.2"></polygon><polygon points="365.22 331.21 421.41 282.6 362.71 331.15 365.22 331.21" style="opacity:0.2"></polygon><polygon points="349.31 372.17 334.58 288.07 348.42 323.67 345.5 330.29 349.31 372.17" style="fill:#fff;opacity:0.4"></polygon><circle cx="361.95" cy="104.58" r="1.98" style="fill:#263238"></circle></g><g id="freepik--origami-bird-3--inject-2"><rect x="272.13" y="104.41" width="1" height="177.18" style="fill:#263238"></rect><polygon points="291.95 254.03 333.64 246.13 349.13 246.51 313.06 259.65 287.64 264.43 291.95 254.03" style="fill:#263238"></polygon><polygon points="349.13 246.51 313.06 259.65 306.13 260.95 296.29 262.8 287.64 264.43 291.95 254.04 294.58 253.54 315.94 249.5 333.64 246.13 347.56 246.47 347.56 246.47 349.13 246.51" style="opacity:0.2"></polygon><path d="M338.72,249l-27.43,5.92-5.16,6-9.84,1.84c-2.31-1.12-4.38-2.29-4.24-2.88s1.34-3.61,2.53-6.38l21.36-4L313,252.91Z" style="opacity:0.2"></path><polygon points="291.95 254.03 333.64 246.13 349.13 246.51 313.06 259.65 287.64 264.43 291.95 254.03" style="fill:#fff;opacity:0.1"></polygon><path d="M338.72,249l-27.43,5.92-5.16,6-9.84,1.84c-2.31-1.12-4.38-2.29-4.24-2.88s1.34-3.61,2.53-6.38l21.36-4L313,252.91Z" style="opacity:0.2"></path><polygon points="272.63 237.48 295.45 245.99 306.65 202.27 309.31 204.44 312.85 203.58 300.34 293.47 295.01 290.86 291.4 294.51 272.63 237.48" style="fill:#263238"></polygon><polygon points="272.63 237.48 295.45 245.99 306.65 202.27 309.31 204.44 312.85 203.58 300.34 293.47 295.01 290.86 291.4 294.51 272.63 237.48" style="fill:#fff;opacity:0.2"></polygon><polygon points="272.63 237.48 295.45 245.99 306.65 202.27 309.31 204.44 312.85 203.58 300.34 293.47 295.01 290.86 291.4 294.51 272.63 237.48" style="opacity:0.2"></polygon><polygon points="261.98 292.65 198.4 238.46 261.57 280.87 261.98 292.65" style="fill:#263238"></polygon><polygon points="261.98 292.65 198.4 238.46 261.57 280.87 261.98 292.65" style="fill:#fff;opacity:0.2"></polygon><polygon points="260.64 299.87 274.87 290.72 291.4 294.51 289.91 253.85 272.63 237.48 253.05 260.18 260.64 299.87" style="fill:#263238"></polygon><polygon points="260.64 299.87 274.87 290.72 291.4 294.51 289.91 253.85 272.63 237.48 253.05 260.18 260.64 299.87" style="fill:#fff;opacity:0.30000000000000004"></polygon><polygon points="291.4 294.51 306.65 202.27 287.21 246.93 294.34 252.06 291.4 294.51" style="fill:#263238"></polygon><polygon points="306.65 202.27 308.8 211.78 317.32 217.6 312.85 203.58 309.31 204.44 306.65 202.27" style="fill:#263238"></polygon><polygon points="253.05 260.18 272.39 271.43 274.43 286.57 274.4 269.21 289.91 253.85 272.71 266.78 253.05 260.18" style="opacity:0.2"></polygon><polygon points="289.91 253.85 255.29 227.66 203.71 209.74 225.4 244.75 253.05 260.18 265.8 255.78 289.91 253.85" style="fill:#263238"></polygon><polygon points="289.91 253.85 255.29 227.66 203.71 209.74 225.4 244.75 253.05 260.18 265.8 255.78 289.91 253.85" style="fill:#fff;opacity:0.1"></polygon><polygon points="265.8 255.78 203.71 209.74 263.3 256.64 265.8 255.78" style="opacity:0.2"></polygon><polygon points="291.4 294.51 306.65 202.27 287.21 246.93 294.34 252.06 291.4 294.51" style="fill:#fff;opacity:0.2"></polygon><polygon points="306.65 202.27 308.8 211.78 317.32 217.6 312.85 203.58 309.31 204.44 306.65 202.27" style="fill:#fff;opacity:0.2"></polygon><polygon points="309.31 204.44 317.32 217.6 312.85 203.58 309.31 204.44" style="opacity:0.2"></polygon><path d="M274.61,104.58a2,2,0,1,1-2-2A2,2,0,0,1,274.61,104.58Z" style="fill:#263238"></path></g><g id="freepik--origami-bird-2--inject-2"><rect x="207.88" y="104.41" width="1" height="254.1" style="fill:#263238"></rect><polygon points="210.31 330.02 261.88 335.25 315.72 347.53 288.62 351.05 235.15 345.37 210.31 330.02" style="fill:#37474F"></polygon><polygon points="315.72 347.53 288.56 349.84 236.02 343.71 228.07 331.82 261.88 335.25 315.72 347.53" style="fill:#fff;opacity:0.2"></polygon><polygon points="235.55 334.01 299.23 345.12 238.9 336.88 235.55 334.01" style="opacity:0.2"></polygon><polygon points="194.31 330.97 151.98 242.75 188 349.67 194.31 330.97" style="fill:#37474F"></polygon><polygon points="194.31 330.97 151.98 242.75 188 349.67 194.31 330.97" style="opacity:0.2"></polygon><polygon points="207.8 308.41 233.22 335.43 244.08 290.48 245.79 292.56 247.97 292.46 233.42 395.8 228.84 394.25 224.98 400.31 207.8 308.41" style="fill:#37474F"></polygon><polygon points="207.8 308.41 233.22 335.43 244.08 290.48 245.79 292.56 247.97 292.46 233.42 395.8 228.84 394.25 224.98 400.31 207.8 308.41" style="opacity:0.2"></polygon><polygon points="224.98 400.31 244.08 290.48 226.07 336.98 229.9 345.62 224.98 400.31" style="fill:#37474F"></polygon><polygon points="247.97 292.46 255.66 306.11 244.36 296.24 244.08 290.48 245.79 292.56 247.97 292.46" style="fill:#37474F"></polygon><polygon points="245.79 292.56 255.66 306.11 247.97 292.46 245.79 292.56" style="opacity:0.2"></polygon><polygon points="227.28 346.26 207.8 308.41 180.25 331.46 191.93 389.69 207.53 384.82 224.98 400.31 227.28 346.26" style="fill:#37474F"></polygon><polygon points="227.28 346.26 207.48 368.51 207.53 384.82 203.11 366.57 180.25 331.46 206 364.43 227.28 346.26" style="opacity:0.2"></polygon><polygon points="227.28 346.26 180.25 331.46 136.09 342.77 100.69 362.25 176.38 361.5 227.28 346.26" style="fill:#37474F"></polygon><polygon points="227.28 346.26 180.25 331.46 136.09 342.77 100.69 362.25 176.38 361.5 227.28 346.26" style="fill:#fff;opacity:0.2"></polygon><polygon points="100.69 362.25 198.22 337.11 194.61 335.98 100.69 362.25" style="opacity:0.2"></polygon><circle cx="208.27" cy="104.58" r="1.98" style="fill:#263238"></circle></g></svg>