<?xml version="1.0" encoding="UTF-8"?>
<svg xmlns="http://www.w3.org/2000/svg" xmlns:xlink="http://www.w3.org/1999/xlink" width="150px" height="150px" viewBox="0 0 125 125" version="1.1">
<defs>
<filter id="alpha" filterUnits="objectBoundingBox" x="0%" y="0%" width="100%" height="100%">
  <feColorMatrix type="matrix" in="SourceGraphic" values="0 0 0 0 1 0 0 0 0 1 0 0 0 0 1 0 0 0 1 0"/>
</filter>
<mask id="mask0">
  <g filter="url(#alpha)">
<rect x="0" y="0" width="125" height="125" style="fill:rgb(0%,0%,0%);fill-opacity:0.6;stroke:none;"/>
  </g>
</mask>
<clipPath id="clip1">
  <rect x="0" y="0" width="125" height="125"/>
</clipPath>
<g id="surface5" clip-path="url(#clip1)">
<path style=" stroke:none;fill-rule:nonzero;fill:rgb(87.843137%,87.843137%,87.843137%);fill-opacity:1;" d="M 81.402344 46.859375 L 40.871094 46.859375 L 40.871094 18.25 L 81.402344 18.25 Z M 81.402344 46.859375 "/>
</g>
<mask id="mask1">
  <g filter="url(#alpha)">
<rect x="0" y="0" width="125" height="125" style="fill:rgb(0%,0%,0%);fill-opacity:0.8;stroke:none;"/>
  </g>
</mask>
<clipPath id="clip2">
  <rect x="0" y="0" width="125" height="125"/>
</clipPath>
<g id="surface8" clip-path="url(#clip2)">
<path style=" stroke:none;fill-rule:nonzero;fill:rgb(100%,100%,100%);fill-opacity:1;" d="M 65.101562 91.375 L 33.210938 91.375 C 32.144531 91.359375 31.273438 90.527344 31.210938 89.464844 L 28.351562 34.078125 C 28.316406 33.578125 28.496094 33.089844 28.839844 32.730469 C 29.183594 32.367188 29.660156 32.164062 30.160156 32.171875 L 62.050781 32.171875 C 63.117188 32.183594 63.988281 33.015625 64.050781 34.078125 L 66.90625 89.464844 C 66.9375 89.960938 66.761719 90.449219 66.421875 90.8125 C 66.078125 91.175781 65.601562 91.378906 65.101562 91.375 Z M 65.101562 91.375 "/>
</g>
<mask id="mask2">
  <g filter="url(#alpha)">
<rect x="0" y="0" width="125" height="125" style="fill:rgb(0%,0%,0%);fill-opacity:0.301961;stroke:none;"/>
  </g>
</mask>
<clipPath id="clip3">
  <rect x="0" y="0" width="125" height="125"/>
</clipPath>
<g id="surface11" clip-path="url(#clip3)">
<path style=" stroke:none;fill-rule:nonzero;fill:rgb(100%,100%,100%);fill-opacity:1;" d="M 55.300781 38.707031 C 51.554688 35.054688 45.703125 34.980469 42.234375 38.539062 C 38.765625 42.097656 38.992188 47.945312 42.738281 51.597656 C 46.488281 55.25 52.335938 55.324219 55.808594 51.765625 C 59.277344 48.203125 59.050781 42.359375 55.300781 38.707031 Z M 55.300781 38.707031 "/>
</g>
<mask id="mask3">
  <g filter="url(#alpha)">
<rect x="0" y="0" width="125" height="125" style="fill:rgb(0%,0%,0%);fill-opacity:0.301961;stroke:none;"/>
  </g>
</mask>
<clipPath id="clip4">
  <rect x="0" y="0" width="125" height="125"/>
</clipPath>
<g id="surface14" clip-path="url(#clip4)">
<path style=" stroke:none;fill-rule:nonzero;fill:rgb(0%,0%,0%);fill-opacity:1;" d="M 54.789062 60.273438 L 44.816406 60.273438 C 44.382812 60.273438 44.023438 59.933594 44 59.5 L 43.960938 58.75 C 43.949219 58.546875 44.019531 58.351562 44.160156 58.203125 C 44.300781 58.058594 44.492188 57.976562 44.695312 57.976562 L 54.667969 57.976562 C 55.097656 57.980469 55.453125 58.320312 55.480469 58.75 L 55.519531 59.5 C 55.53125 59.703125 55.460938 59.898438 55.324219 60.046875 C 55.183594 60.191406 54.992188 60.273438 54.789062 60.273438 Z M 54.789062 60.273438 "/>
</g>
<mask id="mask4">
  <g filter="url(#alpha)">
<rect x="0" y="0" width="125" height="125" style="fill:rgb(0%,0%,0%);fill-opacity:0.301961;stroke:none;"/>
  </g>
</mask>
<clipPath id="clip5">
  <rect x="0" y="0" width="125" height="125"/>
</clipPath>
<g id="surface17" clip-path="url(#clip5)">
<path style=" stroke:none;fill-rule:nonzero;fill:rgb(0%,0%,0%);fill-opacity:1;" d="M 58.5 84.078125 L 43.558594 84.078125 C 42.824219 84.070312 42.222656 83.496094 42.175781 82.761719 L 42.085938 81.039062 C 42.070312 80.695312 42.195312 80.359375 42.429688 80.109375 C 42.667969 79.863281 42.996094 79.722656 43.335938 79.722656 L 58.273438 79.722656 C 59.007812 79.730469 59.613281 80.304688 59.65625 81.039062 L 59.746094 82.761719 C 59.761719 83.105469 59.640625 83.4375 59.40625 83.6875 C 59.167969 83.933594 58.84375 84.078125 58.5 84.078125 Z M 58.5 84.078125 "/>
</g>
<mask id="mask5">
  <g filter="url(#alpha)">
<rect x="0" y="0" width="125" height="125" style="fill:rgb(0%,0%,0%);fill-opacity:0.2;stroke:none;"/>
  </g>
</mask>
<clipPath id="clip6">
  <rect x="0" y="0" width="125" height="125"/>
</clipPath>
<g id="surface20" clip-path="url(#clip6)">
<path style=" stroke:none;fill-rule:nonzero;fill:rgb(0%,0%,0%);fill-opacity:1;" d="M 74.976562 96.34375 L 75.640625 98.859375 L 77.65625 98.289062 L 77.015625 95.871094 Z M 74.976562 96.34375 "/>
</g>
<mask id="mask6">
  <g filter="url(#alpha)">
<rect x="0" y="0" width="125" height="125" style="fill:rgb(0%,0%,0%);fill-opacity:0.2;stroke:none;"/>
  </g>
</mask>
<clipPath id="clip7">
  <rect x="0" y="0" width="125" height="125"/>
</clipPath>
<g id="surface23" clip-path="url(#clip7)">
<path style=" stroke:none;fill-rule:nonzero;fill:rgb(0%,0%,0%);fill-opacity:1;" d="M 81.550781 97.082031 L 79.453125 97.082031 L 79.371094 99.582031 L 81.46875 99.582031 Z M 81.550781 97.082031 "/>
</g>
<mask id="mask7">
  <g filter="url(#alpha)">
<rect x="0" y="0" width="125" height="125" style="fill:rgb(0%,0%,0%);fill-opacity:0.4;stroke:none;"/>
  </g>
</mask>
<clipPath id="clip8">
  <rect x="0" y="0" width="125" height="125"/>
</clipPath>
<g id="surface26" clip-path="url(#clip8)">
<path style=" stroke:none;fill-rule:nonzero;fill:rgb(0%,0%,0%);fill-opacity:1;" d="M 81.109375 44.082031 C 80.671875 43.679688 80.371094 43.800781 80.171875 44.121094 C 79.96875 45.050781 81.15625 46.996094 81.632812 47.734375 C 81.851562 46.855469 82.105469 45 81.109375 44.082031 Z M 81.109375 44.082031 "/>
</g>
<mask id="mask8">
  <g filter="url(#alpha)">
<rect x="0" y="0" width="125" height="125" style="fill:rgb(0%,0%,0%);fill-opacity:0.4;stroke:none;"/>
  </g>
</mask>
<clipPath id="clip9">
  <rect x="0" y="0" width="125" height="125"/>
</clipPath>
<g id="surface29" clip-path="url(#clip9)">
<path style=" stroke:none;fill-rule:nonzero;fill:rgb(0%,0%,0%);fill-opacity:1;" d="M 71.398438 46.867188 C 71.453125 47.464844 71.527344 48.136719 71.621094 48.898438 C 72.320312 48.269531 72.890625 46.484375 72.679688 45.445312 C 72.183594 45.847656 71.75 46.328125 71.398438 46.867188 Z M 71.398438 46.867188 "/>
</g>
<mask id="mask9">
  <g filter="url(#alpha)">
<rect x="0" y="0" width="125" height="125" style="fill:rgb(0%,0%,0%);fill-opacity:0.4;stroke:none;"/>
  </g>
</mask>
<clipPath id="clip10">
  <rect x="0" y="0" width="125" height="125"/>
</clipPath>
<g id="surface32" clip-path="url(#clip10)">
<path style=" stroke:none;fill-rule:nonzero;fill:rgb(0%,0%,0%);fill-opacity:1;" d="M 78.316406 60.222656 C 77.1875 61.410156 76.273438 62.789062 75.621094 64.292969 C 75.953125 67.523438 76.347656 71.109375 76.765625 74.246094 C 78.492188 69.785156 79.023438 64.953125 78.316406 60.222656 Z M 78.316406 60.222656 "/>
</g>
<mask id="mask10">
  <g filter="url(#alpha)">
<rect x="0" y="0" width="125" height="125" style="fill:rgb(0%,0%,0%);fill-opacity:0.501961;stroke:none;"/>
  </g>
</mask>
<clipPath id="clip11">
  <rect x="0" y="0" width="125" height="125"/>
</clipPath>
<g id="surface35" clip-path="url(#clip11)">
<path style=" stroke:none;fill-rule:nonzero;fill:rgb(0%,0%,0%);fill-opacity:1;" d="M 81.109375 54.289062 L 81.492188 55.050781 C 81.523438 55.113281 81.453125 55.171875 81.355469 55.171875 L 72.433594 55.171875 C 72.359375 55.171875 72.296875 55.136719 72.289062 55.085938 L 72.210938 54.335938 C 72.210938 54.28125 72.273438 54.238281 72.359375 54.238281 L 80.96875 54.238281 C 81.023438 54.230469 81.074219 54.25 81.109375 54.289062 Z M 81.109375 54.289062 "/>
</g>
<mask id="mask11">
  <g filter="url(#alpha)">
<rect x="0" y="0" width="125" height="125" style="fill:rgb(0%,0%,0%);fill-opacity:0.4;stroke:none;"/>
  </g>
</mask>
<clipPath id="clip12">
  <rect x="0" y="0" width="125" height="125"/>
</clipPath>
<g id="surface38" clip-path="url(#clip12)">
<path style=" stroke:none;fill-rule:nonzero;fill:rgb(100%,100%,100%);fill-opacity:1;" d="M 81 49.734375 C 79.636719 47.183594 79.078125 47.003906 78.835938 46.183594 C 79.019531 45.722656 79.285156 45.300781 79.613281 44.933594 C 79.449219 44.886719 79.09375 44.816406 78.863281 44.773438 C 78.886719 44.660156 78.914062 44.550781 78.941406 44.441406 C 78.691406 44.414062 78.4375 44.425781 78.191406 44.476562 L 78.191406 44.226562 C 77.871094 44.160156 77.546875 44.136719 77.222656 44.164062 C 77.25 44.285156 77.277344 44.402344 77.304688 44.523438 C 77.054688 44.574219 76.675781 44.648438 76.492188 44.703125 C 76.847656 45.105469 77.109375 45.578125 77.253906 46.09375 C 76.519531 47.359375 73.664062 55.472656 78.308594 56.09375 C 82.953125 56.71875 82.359375 52.289062 81 49.734375 Z M 81 49.734375 "/>
</g>
</defs>
<g id="surface1">
<path style=" stroke:none;fill-rule:nonzero;fill:rgb(92.156863%,92.156863%,92.156863%);fill-opacity:1;" d="M 0 95.601562 L 125 95.601562 L 125 95.664062 L 0 95.664062 Z M 0 95.601562 "/>
<path style=" stroke:none;fill-rule:nonzero;fill:rgb(92.156863%,92.156863%,92.156863%);fill-opacity:1;" d="M 107.054688 99.621094 L 112.476562 99.621094 L 112.476562 99.683594 L 107.054688 99.683594 Z M 107.054688 99.621094 "/>
<path style=" stroke:none;fill-rule:nonzero;fill:rgb(92.156863%,92.156863%,92.156863%);fill-opacity:1;" d="M 77.640625 98.328125 L 86.167969 98.328125 L 86.167969 98.390625 L 77.640625 98.390625 Z M 77.640625 98.328125 "/>
<path style=" stroke:none;fill-rule:nonzero;fill:rgb(92.156863%,92.156863%,92.156863%);fill-opacity:1;" d="M 99.148438 97.300781 L 110.28125 97.300781 L 110.28125 97.363281 L 99.148438 97.363281 Z M 99.148438 97.300781 "/>
<path style=" stroke:none;fill-rule:nonzero;fill:rgb(92.156863%,92.156863%,92.156863%);fill-opacity:1;" d="M 40.46875 98.5625 L 43.253906 98.5625 L 43.253906 98.625 L 40.46875 98.625 Z M 40.46875 98.5625 "/>
<path style=" stroke:none;fill-rule:nonzero;fill:rgb(92.156863%,92.156863%,92.156863%);fill-opacity:1;" d="M 28.644531 98.5625 L 38.242188 98.5625 L 38.242188 98.625 L 28.644531 98.625 Z M 28.644531 98.5625 "/>
<path style=" stroke:none;fill-rule:nonzero;fill:rgb(92.156863%,92.156863%,92.156863%);fill-opacity:1;" d="M 16.578125 97.507812 L 23.503906 97.507812 L 23.503906 97.570312 L 16.578125 97.570312 Z M 16.578125 97.507812 "/>
<path style=" stroke:none;fill-rule:nonzero;fill:rgb(92.156863%,92.156863%,92.156863%);fill-opacity:1;" d="M 59.25 84.449219 L 10.976562 84.449219 C 10.191406 84.449219 9.550781 83.808594 9.550781 83.023438 L 9.550781 15.164062 C 9.558594 14.382812 10.195312 13.75 10.976562 13.75 L 59.25 13.75 C 60.039062 13.75 60.675781 14.390625 60.675781 15.175781 L 60.675781 83.023438 C 60.675781 83.8125 60.039062 84.449219 59.25 84.449219 Z M 10.976562 13.800781 C 10.222656 13.800781 9.613281 14.410156 9.613281 15.164062 L 9.613281 83.023438 C 9.613281 83.777344 10.222656 84.386719 10.976562 84.386719 L 59.25 84.386719 C 60.003906 84.386719 60.613281 83.777344 60.613281 83.023438 L 60.613281 15.164062 C 60.613281 14.410156 60.003906 13.800781 59.25 13.800781 Z M 10.976562 13.800781 "/>
<path style=" stroke:none;fill-rule:nonzero;fill:rgb(92.156863%,92.156863%,92.156863%);fill-opacity:1;" d="M 113.328125 84.449219 L 65.050781 84.449219 C 64.265625 84.449219 63.625 83.808594 63.625 83.023438 L 63.625 15.164062 C 63.632812 14.382812 64.269531 13.75 65.050781 13.75 L 113.328125 13.75 C 114.109375 13.753906 114.742188 14.382812 114.75 15.164062 L 114.75 83.023438 C 114.75 83.808594 114.113281 84.445312 113.328125 84.449219 Z M 65.050781 13.800781 C 64.300781 13.800781 63.6875 14.410156 63.6875 15.164062 L 63.6875 83.023438 C 63.6875 83.777344 64.300781 84.386719 65.050781 84.386719 L 113.328125 84.386719 C 114.082031 84.386719 114.691406 83.777344 114.691406 83.023438 L 114.691406 15.164062 C 114.691406 14.410156 114.082031 13.800781 113.328125 13.800781 Z M 65.050781 13.800781 "/>
<path style=" stroke:none;fill-rule:nonzero;fill:rgb(87.843137%,87.843137%,87.843137%);fill-opacity:1;" d="M 28.75 43.65625 C 31.636719 43.65625 33.976562 41.316406 33.976562 38.429688 C 33.976562 35.542969 31.636719 33.203125 28.75 33.203125 L 28.109375 33.203125 L 28.109375 43.65625 Z M 28.75 43.65625 "/>
<path style=" stroke:none;fill-rule:nonzero;fill:rgb(96.078431%,96.078431%,96.078431%);fill-opacity:1;" d="M 33.328125 38.429688 C 33.328125 41.316406 30.988281 43.65625 28.101562 43.65625 C 25.214844 43.65625 22.875 41.316406 22.875 38.429688 C 22.875 35.542969 25.214844 33.203125 28.101562 33.203125 C 30.988281 33.203125 33.328125 35.542969 33.328125 38.429688 Z M 33.328125 38.429688 "/>
<path style=" stroke:none;fill-rule:nonzero;fill:rgb(87.843137%,87.843137%,87.843137%);fill-opacity:1;" d="M 27.863281 39.085938 C 23.996094 39.085938 20.863281 35.949219 20.863281 32.085938 L 20.863281 27.90625 C 20.863281 27.542969 21.15625 27.25 21.519531 27.25 C 21.882812 27.25 22.175781 27.542969 22.175781 27.90625 L 22.175781 32.085938 C 22.179688 35.226562 24.722656 37.769531 27.859375 37.773438 C 28.105469 37.757812 28.335938 37.878906 28.464844 38.089844 C 28.589844 38.296875 28.589844 38.558594 28.464844 38.769531 C 28.335938 38.976562 28.105469 39.101562 27.859375 39.085938 Z M 27.863281 39.085938 "/>
<path style=" stroke:none;fill-rule:nonzero;fill:rgb(96.078431%,96.078431%,96.078431%);fill-opacity:1;" d="M 15.707031 31.585938 L 27.335938 31.585938 C 27.714844 31.585938 28.070312 31.414062 28.300781 31.113281 C 28.53125 30.816406 28.609375 30.425781 28.511719 30.0625 L 27.5 26.25 C 27.359375 25.71875 26.878906 25.347656 26.328125 25.34375 L 16.71875 25.34375 C 16.167969 25.347656 15.683594 25.71875 15.542969 26.25 L 14.542969 30.058594 C 14.445312 30.421875 14.519531 30.808594 14.746094 31.109375 C 14.976562 31.410156 15.332031 31.585938 15.707031 31.585938 Z M 15.707031 31.585938 "/>
<path style=" stroke:none;fill-rule:nonzero;fill:rgb(87.843137%,87.843137%,87.843137%);fill-opacity:1;" d="M 102.570312 43.65625 C 105.457031 43.65625 107.796875 41.316406 107.796875 38.429688 C 107.796875 35.542969 105.457031 33.203125 102.570312 33.203125 L 101.925781 33.203125 L 101.925781 43.65625 Z M 102.570312 43.65625 "/>
<path style=" stroke:none;fill-rule:nonzero;fill:rgb(96.078431%,96.078431%,96.078431%);fill-opacity:1;" d="M 107.15625 38.429688 C 107.15625 41.316406 104.816406 43.65625 101.925781 43.65625 C 99.039062 43.65625 96.699219 41.316406 96.699219 38.429688 C 96.699219 35.542969 99.039062 33.203125 101.925781 33.203125 C 104.816406 33.203125 107.15625 35.542969 107.15625 38.429688 Z M 107.15625 38.429688 "/>
<path style=" stroke:none;fill-rule:nonzero;fill:rgb(87.843137%,87.843137%,87.843137%);fill-opacity:1;" d="M 101.6875 39.085938 C 97.820312 39.085938 94.6875 35.949219 94.6875 32.085938 L 94.6875 27.90625 C 94.6875 27.542969 94.980469 27.25 95.34375 27.25 C 95.707031 27.25 96.003906 27.542969 96.003906 27.90625 L 96.003906 32.085938 C 96.003906 35.226562 98.546875 37.769531 101.683594 37.773438 C 101.929688 37.757812 102.160156 37.878906 102.289062 38.089844 C 102.414062 38.296875 102.414062 38.558594 102.289062 38.769531 C 102.160156 38.976562 101.929688 39.101562 101.683594 39.085938 Z M 101.6875 39.085938 "/>
<path style=" stroke:none;fill-rule:nonzero;fill:rgb(96.078431%,96.078431%,96.078431%);fill-opacity:1;" d="M 89.53125 31.585938 L 101.164062 31.585938 C 101.539062 31.585938 101.894531 31.414062 102.125 31.113281 C 102.355469 30.816406 102.433594 30.425781 102.335938 30.0625 L 101.335938 26.253906 C 101.195312 25.722656 100.714844 25.351562 100.164062 25.351562 L 90.542969 25.351562 C 89.992188 25.351562 89.507812 25.722656 89.367188 26.253906 L 88.367188 30.0625 C 88.269531 30.425781 88.347656 30.8125 88.574219 31.109375 C 88.804688 31.410156 89.15625 31.585938 89.53125 31.585938 Z M 89.53125 31.585938 "/>
<path style=" stroke:none;fill-rule:nonzero;fill:rgb(90.196078%,90.196078%,90.196078%);fill-opacity:1;" d="M 37.296875 78.964844 L 33.496094 78.964844 L 33.496094 64.234375 L 37.296875 64.234375 Z M 37.296875 78.964844 "/>
<path style=" stroke:none;fill-rule:nonzero;fill:rgb(94.117647%,94.117647%,94.117647%);fill-opacity:1;" d="M 23.1875 78.960938 L 35.804688 78.960938 L 37.710938 61.71875 L 25.09375 61.71875 Z M 23.1875 78.960938 "/>
<path style=" stroke:none;fill-rule:nonzero;fill:rgb(96.078431%,96.078431%,96.078431%);fill-opacity:1;" d="M 21.820312 78.960938 L 34.855469 78.960938 L 36.761719 61.71875 L 23.726562 61.71875 Z M 21.820312 78.960938 "/>
<path style=" stroke:none;fill-rule:nonzero;fill:rgb(100%,100%,100%);fill-opacity:1;" d="M 33.914062 77.605469 L 35.515625 63.078125 L 24.667969 63.078125 L 23.0625 77.605469 Z M 33.914062 77.605469 "/>
<path style=" stroke:none;fill-rule:nonzero;fill:rgb(96.078431%,96.078431%,96.078431%);fill-opacity:1;" d="M 31.671875 74.082031 L 31.75 73.5 C 32.152344 69.855469 29.878906 66.609375 26.921875 66.609375 L 26.855469 67.199219 C 26.453125 70.84375 28.726562 74.089844 31.683594 74.089844 Z M 31.671875 74.082031 "/>
<path style=" stroke:none;fill-rule:nonzero;fill:rgb(90.196078%,90.196078%,90.196078%);fill-opacity:1;" d="M 25.984375 95.601562 L 14.773438 95.601562 L 14.773438 78.960938 L 25.984375 78.960938 Z M 25.984375 95.601562 "/>
<path style=" stroke:none;fill-rule:nonzero;fill:rgb(94.117647%,94.117647%,94.117647%);fill-opacity:1;" d="M 15.898438 95.601562 L 14.769531 95.601562 L 14.769531 92.390625 L 17.078125 92.390625 Z M 15.898438 95.601562 "/>
<path style=" stroke:none;fill-rule:nonzero;fill:rgb(90.196078%,90.196078%,90.196078%);fill-opacity:1;" d="M 57.398438 95.601562 L 46.191406 95.601562 L 46.191406 78.960938 L 57.398438 78.960938 Z M 57.398438 95.601562 "/>
<path style=" stroke:none;fill-rule:nonzero;fill:rgb(94.117647%,94.117647%,94.117647%);fill-opacity:1;" d="M 47.171875 93.632812 L 14.769531 93.632812 L 14.769531 78.964844 L 47.171875 78.964844 Z M 47.171875 93.632812 "/>
<path style=" stroke:none;fill-rule:nonzero;fill:rgb(94.117647%,94.117647%,94.117647%);fill-opacity:1;" d="M 46.046875 95.601562 L 47.171875 95.601562 L 47.171875 92.390625 L 44.863281 92.390625 Z M 46.046875 95.601562 "/>
<path style=" stroke:none;fill-rule:nonzero;fill:rgb(90.196078%,90.196078%,90.196078%);fill-opacity:1;" d="M 46.296875 85.800781 L 15.644531 85.800781 L 15.644531 79.878906 L 46.296875 79.878906 Z M 46.296875 85.800781 "/>
<path style=" stroke:none;fill-rule:nonzero;fill:rgb(94.117647%,94.117647%,94.117647%);fill-opacity:1;" d="M 28.925781 83.75 L 33.015625 83.75 C 34.792969 83.75 36.488281 83.019531 37.710938 81.730469 L 24.234375 81.730469 C 25.453125 83.019531 27.152344 83.75 28.925781 83.75 Z M 28.925781 83.75 "/>
<path style=" stroke:none;fill-rule:nonzero;fill:rgb(90.196078%,90.196078%,90.196078%);fill-opacity:1;" d="M 46.296875 92.675781 L 15.644531 92.675781 L 15.644531 86.753906 L 46.296875 86.753906 Z M 46.296875 92.675781 "/>
<path style=" stroke:none;fill-rule:nonzero;fill:rgb(94.117647%,94.117647%,94.117647%);fill-opacity:1;" d="M 28.925781 90.613281 L 33.015625 90.613281 C 34.792969 90.617188 36.488281 89.886719 37.710938 88.59375 L 24.234375 88.59375 C 25.453125 89.882812 27.152344 90.613281 28.925781 90.613281 Z M 28.925781 90.613281 "/>
<path style=" stroke:none;fill-rule:nonzero;fill:rgb(90.196078%,90.196078%,90.196078%);fill-opacity:1;" d="M 45.121094 78.285156 L 45.410156 78.285156 C 45.410156 77.6875 45.410156 76.175781 45.441406 72.707031 C 45.492188 66.421875 45.59375 66.039062 45.59375 66.039062 L 44.902344 68.941406 C 44.464844 72.152344 45.03125 75.382812 45.121094 78.285156 Z M 45.121094 78.285156 "/>
<path style=" stroke:none;fill-rule:nonzero;fill:rgb(90.196078%,90.196078%,90.196078%);fill-opacity:1;" d="M 44.546875 68.5 C 43.546875 67.316406 41.433594 66.972656 39.265625 66.675781 C 38.414062 66.5625 41.503906 68.511719 43.015625 69.890625 C 44.191406 70.96875 44.941406 71.265625 45.265625 72.335938 C 45.429688 71 45.402344 69.527344 44.546875 68.5 Z M 44.546875 68.5 "/>
<path style=" stroke:none;fill-rule:nonzero;fill:rgb(90.196078%,90.196078%,90.196078%);fill-opacity:1;" d="M 45.863281 70.621094 C 46.863281 69.4375 48.976562 69.09375 51.148438 68.800781 C 52 68.683594 48.898438 70.632812 47.398438 72.015625 C 46.222656 73.089844 45.472656 73.386719 45.148438 74.457031 C 44.984375 73.121094 45 71.640625 45.863281 70.621094 Z M 45.863281 70.621094 "/>
<path style=" stroke:none;fill-rule:nonzero;fill:rgb(90.196078%,90.196078%,90.196078%);fill-opacity:1;" d="M 45.441406 65.75 C 46.191406 64.335938 48.054688 63 50.15625 62.5 C 50.984375 62.300781 48.246094 65.109375 47.203125 66.921875 C 46.398438 68.328125 45.328125 69.984375 45.160156 71.171875 C 44.910156 68.828125 44.695312 67.171875 45.441406 65.75 Z M 45.441406 65.75 "/>
<path style=" stroke:none;fill-rule:nonzero;fill:rgb(94.117647%,94.117647%,94.117647%);fill-opacity:1;" d="M 45.351562 78.960938 C 44.464844 78.960938 43.734375 78.519531 43.679688 77.949219 L 43.53125 76.980469 L 47.171875 76.980469 L 47.019531 77.949219 C 46.96875 78.519531 46.25 78.960938 45.351562 78.960938 Z M 45.351562 78.960938 "/>
<path style=" stroke:none;fill-rule:nonzero;fill:rgb(94.117647%,94.117647%,94.117647%);fill-opacity:1;" d="M 47.40625 77.351562 L 43.296875 77.351562 L 43.179688 76.269531 L 47.523438 76.269531 Z M 47.40625 77.351562 "/>
<path style=" stroke:none;fill-rule:nonzero;fill:rgb(90.196078%,90.196078%,90.196078%);fill-opacity:1;" d="M 82.4375 56.679688 L 42.386719 56.679688 L 42.386719 20.148438 L 82.4375 20.148438 Z M 82.4375 56.679688 "/>
<path style=" stroke:none;fill-rule:nonzero;fill:rgb(96.078431%,96.078431%,96.078431%);fill-opacity:1;" d="M 82.046875 56.679688 L 41.484375 56.679688 L 41.484375 20.148438 L 82.046875 20.148438 Z M 82.046875 56.679688 "/>
<path style=" stroke:none;fill-rule:nonzero;fill:rgb(98.039216%,98.039216%,98.039216%);fill-opacity:1;" d="M 80.425781 21.785156 L 80.425781 55.046875 L 43.101562 55.046875 L 43.101562 21.785156 Z M 80.425781 21.785156 "/>
<path style=" stroke:none;fill-rule:nonzero;fill:rgb(100%,100%,100%);fill-opacity:1;" d="M 75.847656 55.046875 L 61.15625 21.785156 L 56.167969 21.785156 L 70.859375 55.046875 Z M 75.847656 55.046875 "/>
<path style=" stroke:none;fill-rule:nonzero;fill:rgb(100%,100%,100%);fill-opacity:1;" d="M 69.441406 55.046875 L 54.753906 21.785156 L 51.316406 21.785156 L 66.007812 55.046875 Z M 69.441406 55.046875 "/>
<path style=" stroke:none;fill-rule:nonzero;fill:rgb(90.196078%,90.196078%,90.196078%);fill-opacity:1;" d="M 56.960938 21.78125 L 56.960938 55.042969 L 55.03125 55.042969 L 55.03125 21.78125 Z M 56.960938 21.78125 "/>
<path style=" stroke:none;fill-rule:nonzero;fill:rgb(90.196078%,90.196078%,90.196078%);fill-opacity:1;" d="M 69.789062 21.78125 L 69.789062 55.042969 L 67.859375 55.042969 L 67.859375 21.78125 Z M 69.789062 21.78125 "/>
<path style=" stroke:none;fill-rule:nonzero;fill:rgb(96.078431%,96.078431%,96.078431%);fill-opacity:1;" d="M 56.613281 20.566406 L 56.613281 56.082031 L 54.171875 56.082031 L 54.171875 20.566406 Z M 56.613281 20.566406 "/>
<path style=" stroke:none;fill-rule:nonzero;fill:rgb(96.078431%,96.078431%,96.078431%);fill-opacity:1;" d="M 69.441406 20.566406 L 69.441406 56.082031 L 67.003906 56.082031 L 67.003906 20.566406 Z M 69.441406 20.566406 "/>
<path style=" stroke:none;fill-rule:nonzero;fill:rgb(90.196078%,90.196078%,90.196078%);fill-opacity:1;" d="M 43.273438 21.785156 L 43.273438 55.046875 L 43.101562 55.046875 L 43.101562 21.785156 Z M 43.273438 21.785156 "/>
<path style=" stroke:none;fill-rule:nonzero;fill:rgb(90.196078%,90.196078%,90.196078%);fill-opacity:1;" d="M 40.804688 18.042969 L 84.195312 18.042969 C 84.308594 18.042969 84.402344 18.136719 84.40625 18.253906 C 84.402344 18.367188 84.308594 18.460938 84.195312 18.460938 L 40.804688 18.460938 C 40.691406 18.460938 40.597656 18.367188 40.59375 18.253906 C 40.597656 18.136719 40.691406 18.042969 40.804688 18.042969 Z M 40.804688 18.042969 "/>
<path style=" stroke:none;fill-rule:nonzero;fill:rgb(90.196078%,90.196078%,90.196078%);fill-opacity:1;" d="M 82.4375 19.421875 C 82.59375 19.417969 82.71875 19.292969 82.71875 19.136719 L 82.71875 18.53125 C 82.71875 18.457031 82.6875 18.386719 82.636719 18.332031 C 82.582031 18.28125 82.511719 18.25 82.4375 18.25 C 82.28125 18.25 82.15625 18.375 82.15625 18.53125 L 82.15625 19.136719 C 82.15625 19.292969 82.28125 19.417969 82.4375 19.421875 Z M 82.4375 19.421875 "/>
<path style=" stroke:none;fill-rule:nonzero;fill:rgb(90.196078%,90.196078%,90.196078%);fill-opacity:1;" d="M 43.949219 19.421875 C 44.105469 19.417969 44.230469 19.292969 44.234375 19.136719 L 44.234375 18.53125 C 44.234375 18.375 44.105469 18.25 43.949219 18.25 C 43.796875 18.25 43.671875 18.375 43.671875 18.53125 L 43.671875 19.136719 C 43.667969 19.292969 43.792969 19.417969 43.949219 19.421875 Z M 43.949219 19.421875 "/>
<use xlink:href="#surface5" mask="url(#mask0)"/>
<path style=" stroke:none;fill-rule:nonzero;fill:rgb(98.039216%,98.039216%,98.039216%);fill-opacity:1;" d="M 78.082031 64.992188 L 85.074219 64.992188 C 85.816406 64.992188 86.417969 65.59375 86.417969 66.335938 L 86.417969 69.574219 C 86.417969 70.316406 85.816406 70.917969 85.074219 70.917969 L 78.082031 70.917969 C 77.339844 70.917969 76.738281 70.316406 76.738281 69.574219 L 76.738281 66.335938 C 76.738281 65.59375 77.339844 64.992188 78.082031 64.992188 Z M 78.082031 64.992188 "/>
<path style=" stroke:none;fill-rule:nonzero;fill:rgb(90.196078%,90.196078%,90.196078%);fill-opacity:1;" d="M 77.191406 63.898438 L 85.964844 63.898438 C 86.214844 63.898438 86.417969 64.101562 86.417969 64.351562 L 86.417969 64.714844 C 86.417969 64.964844 86.214844 65.167969 85.964844 65.167969 L 77.191406 65.167969 C 76.941406 65.167969 76.738281 64.964844 76.738281 64.714844 L 76.738281 64.351562 C 76.738281 64.101562 76.941406 63.898438 77.191406 63.898438 Z M 77.191406 63.898438 "/>
<path style=" stroke:none;fill-rule:nonzero;fill:rgb(94.117647%,94.117647%,94.117647%);fill-opacity:1;" d="M 76.878906 77.5 C 76.878906 77.5 77.007812 81.667969 81.863281 81.667969 C 86.71875 81.667969 86.84375 77.5 86.84375 77.5 Z M 76.878906 77.5 "/>
<path style=" stroke:none;fill-rule:nonzero;fill:rgb(94.117647%,94.117647%,94.117647%);fill-opacity:1;" d="M 87.949219 77.5 C 87.949219 77.5 88.078125 81.667969 92.933594 81.667969 C 97.789062 81.667969 97.914062 77.5 97.914062 77.5 Z M 87.949219 77.5 "/>
<path style=" stroke:none;fill-rule:nonzero;fill:rgb(94.117647%,94.117647%,94.117647%);fill-opacity:1;" d="M 85.910156 62.308594 L 95.511719 62.308594 C 96.53125 62.308594 97.359375 63.136719 97.359375 64.160156 L 97.359375 69.070312 C 97.359375 70.089844 96.53125 70.921875 95.511719 70.921875 L 85.910156 70.921875 C 84.886719 70.921875 84.058594 70.089844 84.058594 69.070312 L 84.058594 64.160156 C 84.058594 63.136719 84.886719 62.308594 85.910156 62.308594 Z M 85.910156 62.308594 "/>
<path style=" stroke:none;fill-rule:nonzero;fill:rgb(96.078431%,96.078431%,96.078431%);fill-opacity:1;" d="M 84.679688 60.804688 L 96.738281 60.804688 C 97.082031 60.804688 97.359375 61.082031 97.359375 61.425781 L 97.359375 61.929688 C 97.359375 62.273438 97.082031 62.550781 96.738281 62.550781 L 84.679688 62.550781 C 84.335938 62.550781 84.058594 62.273438 84.058594 61.929688 L 84.058594 61.425781 C 84.058594 61.082031 84.335938 60.804688 84.679688 60.804688 Z M 84.679688 60.804688 "/>
<path style=" stroke:none;fill-rule:nonzero;fill:rgb(90.196078%,90.196078%,90.196078%);fill-opacity:1;" d="M 74.484375 95.601562 L 73.222656 95.601562 L 73.222656 74.941406 L 74.484375 74.941406 Z M 74.484375 95.601562 "/>
<path style=" stroke:none;fill-rule:nonzero;fill:rgb(90.196078%,90.196078%,90.196078%);fill-opacity:1;" d="M 102.78125 70.917969 L 109.605469 70.917969 L 109.605469 74.9375 L 102.78125 74.9375 Z M 102.78125 70.917969 "/>
<path style=" stroke:none;fill-rule:nonzero;fill:rgb(96.078431%,96.078431%,96.078431%);fill-opacity:1;" d="M 102.78125 74.941406 L 68.859375 74.941406 L 68.859375 70.921875 L 102.78125 70.921875 Z M 102.78125 74.941406 "/>
<path style=" stroke:none;fill-rule:nonzero;fill:rgb(90.196078%,90.196078%,90.196078%);fill-opacity:1;" d="M 102.78125 81.65625 L 109.605469 81.65625 L 109.605469 85.675781 L 102.78125 85.675781 Z M 102.78125 81.65625 "/>
<path style=" stroke:none;fill-rule:nonzero;fill:rgb(96.078431%,96.078431%,96.078431%);fill-opacity:1;" d="M 102.78125 85.675781 L 68.859375 85.675781 L 68.859375 81.65625 L 102.78125 81.65625 Z M 102.78125 85.675781 "/>
<path style=" stroke:none;fill-rule:nonzero;fill:rgb(90.196078%,90.196078%,90.196078%);fill-opacity:1;" d="M 108.402344 95.601562 L 107.140625 95.601562 L 107.140625 74.941406 L 108.402344 74.941406 Z M 108.402344 95.601562 "/>
<path style=" stroke:none;fill-rule:nonzero;fill:rgb(96.078431%,96.078431%,96.078431%);fill-opacity:1;" d="M 102.78125 95.601562 L 101.523438 95.601562 L 101.523438 74.941406 L 102.78125 74.941406 Z M 102.78125 95.601562 "/>
<path style=" stroke:none;fill-rule:nonzero;fill:rgb(96.078431%,96.078431%,96.078431%);fill-opacity:1;" d="M 70.121094 95.601562 L 68.859375 95.601562 L 68.859375 74.941406 L 70.121094 74.941406 Z M 70.121094 95.601562 "/>
<path style=" stroke:none;fill-rule:nonzero;fill:rgb(96.078431%,96.078431%,96.078431%);fill-opacity:1;" d="M 110.972656 104.058594 C 110.972656 102.496094 89.269531 101.230469 62.5 101.230469 C 35.730469 101.230469 14.027344 102.496094 14.027344 104.058594 C 14.027344 105.621094 35.730469 106.890625 62.5 106.890625 C 89.269531 106.890625 110.972656 105.621094 110.972656 104.058594 Z M 110.972656 104.058594 "/>
<path style=" stroke:none;fill-rule:nonzero;fill:rgb(47.058824%,76.078431%,67.843137%);fill-opacity:1;" d="M 65.101562 91.375 L 33.210938 91.375 C 32.144531 91.359375 31.273438 90.527344 31.210938 89.464844 L 28.351562 34.078125 C 28.316406 33.578125 28.496094 33.089844 28.839844 32.730469 C 29.183594 32.367188 29.660156 32.164062 30.160156 32.171875 L 62.050781 32.171875 C 63.117188 32.183594 63.988281 33.015625 64.050781 34.078125 L 66.90625 89.464844 C 66.9375 89.960938 66.761719 90.449219 66.421875 90.8125 C 66.078125 91.175781 65.601562 91.378906 65.101562 91.375 Z M 65.101562 91.375 "/>
<use xlink:href="#surface8" mask="url(#mask1)"/>
<path style=" stroke:none;fill-rule:nonzero;fill:rgb(47.058824%,76.078431%,67.843137%);fill-opacity:1;" d="M 55.378906 30.363281 L 58.90625 30.363281 L 58.90625 30.613281 L 55.378906 30.613281 Z M 55.378906 30.363281 "/>
<path style=" stroke:none;fill-rule:nonzero;fill:rgb(47.058824%,76.078431%,67.843137%);fill-opacity:1;" d="M 52.863281 30.363281 L 54.15625 30.363281 L 54.15625 30.613281 L 52.863281 30.613281 Z M 52.863281 30.363281 "/>
<path style=" stroke:none;fill-rule:nonzero;fill:rgb(47.058824%,76.078431%,67.843137%);fill-opacity:1;" d="M 66.476562 87.859375 L 35.976562 87.859375 C 34.957031 87.851562 34.117188 87.054688 34.054688 86.039062 L 31.324219 33.0625 C 31.292969 32.585938 31.464844 32.117188 31.792969 31.773438 C 32.121094 31.425781 32.578125 31.230469 33.058594 31.238281 L 63.558594 31.238281 C 64.578125 31.25 65.414062 32.046875 65.476562 33.0625 L 68.203125 86.039062 C 68.234375 86.511719 68.066406 86.980469 67.738281 87.328125 C 67.410156 87.671875 66.953125 87.867188 66.476562 87.859375 Z M 66.476562 87.859375 "/>
<path style=" stroke:none;fill-rule:nonzero;fill:rgb(100%,100%,100%);fill-opacity:1;" d="M 66.476562 86.640625 L 35.976562 86.640625 C 35.605469 86.628906 35.300781 86.339844 35.273438 85.972656 L 32.539062 33 C 32.527344 32.859375 32.578125 32.714844 32.675781 32.613281 C 32.773438 32.507812 32.910156 32.453125 33.054688 32.457031 L 63.554688 32.457031 C 63.925781 32.472656 64.226562 32.757812 64.253906 33.128906 L 67 86.101562 C 67.011719 86.242188 66.964844 86.382812 66.867188 86.484375 C 66.765625 86.589844 66.628906 86.648438 66.488281 86.640625 Z M 33.054688 32.519531 C 32.929688 32.515625 32.808594 32.566406 32.71875 32.65625 C 32.636719 32.75 32.59375 32.871094 32.601562 32.996094 L 35.332031 85.96875 C 35.359375 86.304688 35.636719 86.566406 35.972656 86.578125 L 66.472656 86.578125 C 66.597656 86.585938 66.71875 86.535156 66.804688 86.445312 C 66.890625 86.351562 66.933594 86.226562 66.921875 86.101562 L 64.195312 33.128906 C 64.167969 32.792969 63.894531 32.53125 63.558594 32.519531 Z M 33.054688 32.519531 "/>
<use xlink:href="#surface11" mask="url(#mask2)"/>
<path style=" stroke:none;fill-rule:nonzero;fill:rgb(100%,100%,100%);fill-opacity:1;" d="M 56.5 45.152344 C 56.570312 46.382812 56.324219 47.605469 55.78125 48.710938 C 54.589844 51.132812 52.113281 52.652344 49.414062 52.625 C 46.628906 52.601562 44.058594 51.113281 42.644531 48.710938 C 41.996094 47.632812 41.625 46.410156 41.558594 45.152344 C 41.433594 43.203125 42.128906 41.289062 43.472656 39.871094 C 44.816406 38.453125 46.691406 37.660156 48.644531 37.683594 C 52.816406 37.726562 56.246094 40.988281 56.5 45.152344 Z M 56.5 45.152344 "/>
<path style=" stroke:none;fill-rule:nonzero;fill:rgb(47.058824%,76.078431%,67.843137%);fill-opacity:1;" d="M 55.773438 48.710938 C 54.582031 51.132812 52.105469 52.652344 49.40625 52.625 C 46.621094 52.601562 44.050781 51.113281 42.636719 48.710938 C 44.539062 47.402344 46.792969 46.703125 49.101562 46.710938 C 51.472656 46.722656 53.789062 47.417969 55.773438 48.710938 Z M 55.773438 48.710938 "/>
<path style=" stroke:none;fill-rule:nonzero;fill:rgb(47.058824%,76.078431%,67.843137%);fill-opacity:1;" d="M 51.152344 40.273438 C 49.804688 38.957031 47.695312 38.929688 46.445312 40.210938 C 45.195312 41.496094 45.277344 43.601562 46.628906 44.917969 C 47.980469 46.234375 50.085938 46.261719 51.335938 44.980469 C 52.585938 43.695312 52.503906 41.589844 51.152344 40.273438 Z M 51.152344 40.273438 "/>
<path style=" stroke:none;fill-rule:nonzero;fill:rgb(100%,100%,100%);fill-opacity:1;" d="M 62.101562 67.25 L 38.21875 67.25 C 37.789062 67.246094 37.433594 66.910156 37.40625 66.476562 L 37.226562 62.976562 C 37.214844 62.777344 37.285156 62.578125 37.425781 62.433594 C 37.566406 62.285156 37.757812 62.203125 37.960938 62.207031 L 61.84375 62.207031 C 62.273438 62.210938 62.628906 62.546875 62.65625 62.976562 L 62.835938 66.476562 C 62.847656 66.679688 62.777344 66.878906 62.636719 67.023438 C 62.5 67.171875 62.304688 67.253906 62.101562 67.25 Z M 62.101562 67.25 "/>
<use xlink:href="#surface14" mask="url(#mask3)"/>
<use xlink:href="#surface17" mask="url(#mask4)"/>
<path style=" stroke:none;fill-rule:nonzero;fill:rgb(100%,100%,100%);fill-opacity:1;" d="M 62.539062 75.714844 L 38.65625 75.714844 C 38.222656 75.710938 37.871094 75.371094 37.84375 74.941406 L 37.664062 71.441406 C 37.648438 71.242188 37.722656 71.042969 37.859375 70.898438 C 38 70.75 38.191406 70.667969 38.394531 70.671875 L 62.277344 70.671875 C 62.710938 70.675781 63.0625 71.011719 63.089844 71.441406 L 63.273438 74.941406 C 63.285156 75.144531 63.210938 75.339844 63.074219 75.488281 C 62.933594 75.632812 62.742188 75.714844 62.539062 75.714844 Z M 62.539062 75.714844 "/>
<path style=" stroke:none;fill-rule:nonzero;fill:rgb(14.901961%,19.607843%,21.960784%);fill-opacity:1;" d="M 41.25 64.726562 C 41.265625 64.949219 41.183594 65.167969 41.03125 65.332031 C 40.875 65.496094 40.660156 65.585938 40.4375 65.582031 C 39.960938 65.578125 39.570312 65.203125 39.539062 64.726562 C 39.523438 64.503906 39.605469 64.285156 39.757812 64.121094 C 39.910156 63.960938 40.125 63.871094 40.351562 63.871094 C 40.828125 63.878906 41.21875 64.25 41.25 64.726562 Z M 41.25 64.726562 "/>
<path style=" stroke:none;fill-rule:nonzero;fill:rgb(14.901961%,19.607843%,21.960784%);fill-opacity:1;" d="M 43.882812 64.726562 C 43.898438 64.949219 43.816406 65.167969 43.664062 65.332031 C 43.511719 65.496094 43.296875 65.585938 43.074219 65.582031 C 42.59375 65.578125 42.203125 65.203125 42.175781 64.726562 C 42.160156 64.503906 42.238281 64.285156 42.394531 64.121094 C 42.546875 63.960938 42.761719 63.871094 42.984375 63.871094 C 43.460938 63.878906 43.855469 64.25 43.882812 64.726562 Z M 43.882812 64.726562 "/>
<path style=" stroke:none;fill-rule:nonzero;fill:rgb(14.901961%,19.607843%,21.960784%);fill-opacity:1;" d="M 46.5 64.726562 C 46.515625 64.949219 46.4375 65.167969 46.28125 65.332031 C 46.128906 65.496094 45.914062 65.585938 45.691406 65.582031 C 45.210938 65.578125 44.820312 65.203125 44.789062 64.726562 C 44.777344 64.503906 44.855469 64.285156 45.011719 64.121094 C 45.164062 63.960938 45.378906 63.871094 45.601562 63.871094 C 46.078125 63.878906 46.472656 64.25 46.5 64.726562 Z M 46.5 64.726562 "/>
<path style=" stroke:none;fill-rule:nonzero;fill:rgb(14.901961%,19.607843%,21.960784%);fill-opacity:1;" d="M 49.136719 64.726562 C 49.152344 64.949219 49.070312 65.167969 48.917969 65.332031 C 48.765625 65.492188 48.550781 65.585938 48.328125 65.582031 C 47.851562 65.578125 47.457031 65.203125 47.425781 64.726562 C 47.414062 64.503906 47.492188 64.285156 47.648438 64.125 C 47.800781 63.960938 48.015625 63.871094 48.238281 63.871094 C 48.714844 63.878906 49.109375 64.25 49.136719 64.726562 Z M 49.136719 64.726562 "/>
<path style=" stroke:none;fill-rule:nonzero;fill:rgb(14.901961%,19.607843%,21.960784%);fill-opacity:1;" d="M 41.691406 73.1875 C 41.707031 73.410156 41.628906 73.628906 41.472656 73.792969 C 41.320312 73.953125 41.105469 74.046875 40.882812 74.042969 C 40.40625 74.035156 40.011719 73.664062 39.984375 73.1875 C 39.96875 72.964844 40.046875 72.746094 40.203125 72.582031 C 40.355469 72.421875 40.570312 72.328125 40.796875 72.332031 C 41.273438 72.339844 41.664062 72.710938 41.691406 73.1875 Z M 41.691406 73.1875 "/>
<path style=" stroke:none;fill-rule:nonzero;fill:rgb(14.901961%,19.607843%,21.960784%);fill-opacity:1;" d="M 44.320312 73.1875 C 44.332031 73.410156 44.253906 73.628906 44.101562 73.792969 C 43.949219 73.953125 43.734375 74.042969 43.511719 74.042969 C 43.03125 74.035156 42.640625 73.664062 42.609375 73.1875 C 42.59375 72.964844 42.675781 72.746094 42.828125 72.582031 C 42.980469 72.421875 43.195312 72.328125 43.421875 72.332031 C 43.898438 72.339844 44.289062 72.710938 44.320312 73.1875 Z M 44.320312 73.1875 "/>
<path style=" stroke:none;fill-rule:nonzero;fill:rgb(14.901961%,19.607843%,21.960784%);fill-opacity:1;" d="M 46.949219 73.1875 C 46.960938 73.410156 46.882812 73.628906 46.726562 73.792969 C 46.574219 73.953125 46.359375 74.046875 46.136719 74.042969 C 45.65625 74.039062 45.265625 73.664062 45.238281 73.1875 C 45.222656 72.964844 45.300781 72.746094 45.457031 72.582031 C 45.609375 72.421875 45.824219 72.328125 46.046875 72.332031 C 46.523438 72.339844 46.917969 72.710938 46.949219 73.1875 Z M 46.949219 73.1875 "/>
<path style=" stroke:none;fill-rule:nonzero;fill:rgb(14.901961%,19.607843%,21.960784%);fill-opacity:1;" d="M 49.574219 73.1875 C 49.585938 73.410156 49.507812 73.628906 49.355469 73.792969 C 49.199219 73.953125 48.984375 74.046875 48.761719 74.042969 C 48.285156 74.035156 47.890625 73.664062 47.863281 73.1875 C 47.847656 72.964844 47.929688 72.746094 48.082031 72.582031 C 48.238281 72.421875 48.453125 72.328125 48.675781 72.332031 C 49.152344 72.335938 49.542969 72.710938 49.574219 73.1875 Z M 49.574219 73.1875 "/>
<path style=" stroke:none;fill-rule:nonzero;fill:rgb(14.901961%,19.607843%,21.960784%);fill-opacity:1;" d="M 52.199219 73.1875 C 52.214844 73.410156 52.136719 73.628906 51.980469 73.792969 C 51.828125 73.953125 51.613281 74.046875 51.390625 74.042969 C 50.914062 74.035156 50.519531 73.664062 50.488281 73.1875 C 50.476562 72.964844 50.554688 72.746094 50.710938 72.582031 C 50.863281 72.421875 51.078125 72.332031 51.300781 72.332031 C 51.777344 72.339844 52.171875 72.710938 52.199219 73.1875 Z M 52.199219 73.1875 "/>
<path style=" stroke:none;fill-rule:nonzero;fill:rgb(14.901961%,19.607843%,21.960784%);fill-opacity:1;" d="M 54.828125 73.1875 C 54.839844 73.410156 54.761719 73.628906 54.609375 73.792969 C 54.453125 73.953125 54.238281 74.046875 54.015625 74.042969 C 53.539062 74.035156 53.144531 73.664062 53.117188 73.1875 C 53.101562 72.964844 53.183594 72.746094 53.335938 72.582031 C 53.488281 72.421875 53.703125 72.328125 53.925781 72.332031 C 54.40625 72.339844 54.796875 72.710938 54.828125 73.1875 Z M 54.828125 73.1875 "/>
<path style=" stroke:none;fill-rule:nonzero;fill:rgb(50.196078%,24.313725%,23.529412%);fill-opacity:1;" d="M 83.25 44.15625 C 83.3125 44.25 83.34375 44.300781 83.386719 44.367188 L 83.496094 44.550781 C 83.570312 44.675781 83.636719 44.800781 83.699219 44.925781 C 83.824219 45.175781 83.949219 45.425781 84.046875 45.675781 C 84.257812 46.171875 84.4375 46.679688 84.585938 47.199219 C 84.890625 48.21875 85.089844 49.269531 85.183594 50.332031 L 85.199219 50.53125 C 85.203125 50.570312 85.203125 50.609375 85.199219 50.648438 L 85.199219 50.78125 C 85.203125 50.957031 85.195312 51.128906 85.171875 51.300781 C 85.121094 51.621094 85.039062 51.933594 84.921875 52.234375 C 84.699219 52.773438 84.410156 53.277344 84.054688 53.734375 C 83.394531 54.582031 82.609375 55.324219 81.726562 55.9375 L 81.039062 55.128906 C 81.664062 54.421875 82.222656 53.652344 82.699219 52.832031 C 82.910156 52.460938 83.078125 52.066406 83.199219 51.652344 C 83.246094 51.476562 83.273438 51.296875 83.28125 51.117188 C 83.289062 51.039062 83.289062 50.960938 83.28125 50.886719 L 83.28125 50.832031 C 83.28125 50.808594 83.28125 50.785156 83.28125 50.761719 L 83.25 50.585938 C 83.089844 49.65625 82.863281 48.738281 82.570312 47.835938 C 82.425781 47.390625 82.246094 46.957031 82.070312 46.535156 C 81.984375 46.324219 81.882812 46.113281 81.78125 45.914062 L 81.628906 45.621094 L 81.550781 45.484375 L 81.484375 45.371094 Z M 83.25 44.15625 "/>
<path style=" stroke:none;fill-rule:nonzero;fill:rgb(49.803922%,24.313725%,23.137255%);fill-opacity:1;" d="M 80.925781 55.941406 L 81.828125 57.855469 L 82.546875 56.238281 C 82.546875 56.238281 81.910156 54.835938 81.046875 54.96875 Z M 80.925781 55.941406 "/>
<path style=" stroke:none;fill-rule:nonzero;fill:rgb(49.803922%,24.313725%,23.137255%);fill-opacity:1;" d="M 82.476562 57.949219 L 83.199219 56.769531 L 82.546875 56.238281 L 81.828125 57.855469 Z M 82.476562 57.949219 "/>
<path style=" stroke:none;fill-rule:nonzero;fill:rgb(47.058824%,76.078431%,67.843137%);fill-opacity:1;" d="M 78.40625 102.054688 C 78.59375 102.050781 78.78125 102.023438 78.960938 101.980469 C 78.980469 101.972656 78.996094 101.960938 79 101.941406 C 79.003906 101.921875 78.996094 101.902344 78.976562 101.890625 C 78.90625 101.84375 78.269531 101.433594 78.023438 101.542969 C 77.96875 101.566406 77.933594 101.621094 77.925781 101.683594 C 77.914062 101.773438 77.941406 101.867188 78.011719 101.933594 C 78.125 102.019531 78.265625 102.0625 78.40625 102.054688 Z M 78.820312 101.90625 C 78.457031 101.984375 78.183594 101.96875 78.070312 101.871094 C 78.023438 101.828125 78.003906 101.757812 78.015625 101.695312 C 78.015625 101.652344 78.042969 101.640625 78.058594 101.632812 C 78.195312 101.574219 78.5625 101.75 78.820312 101.90625 Z M 78.820312 101.90625 "/>
<path style=" stroke:none;fill-rule:nonzero;fill:rgb(47.058824%,76.078431%,67.843137%);fill-opacity:1;" d="M 78.949219 101.980469 L 78.976562 101.980469 C 78.992188 101.96875 79 101.953125 79 101.933594 C 79 101.910156 79 101.308594 78.769531 101.105469 C 78.710938 101.054688 78.636719 101.03125 78.558594 101.039062 C 78.480469 101.039062 78.410156 101.097656 78.390625 101.175781 C 78.34375 101.414062 78.726562 101.863281 78.925781 101.980469 Z M 78.59375 101.132812 C 78.632812 101.132812 78.671875 101.148438 78.703125 101.175781 C 78.835938 101.371094 78.902344 101.601562 78.898438 101.835938 C 78.699219 101.675781 78.460938 101.335938 78.488281 101.191406 C 78.488281 101.171875 78.507812 101.140625 78.570312 101.132812 Z M 78.59375 101.132812 "/>
<path style=" stroke:none;fill-rule:nonzero;fill:rgb(47.058824%,76.078431%,67.843137%);fill-opacity:1;" d="M 76.046875 101.035156 C 76.058594 101.019531 76.0625 101 76.054688 100.980469 C 76.046875 100.964844 76.03125 100.953125 76.011719 100.949219 C 75.910156 100.949219 75.011719 100.90625 74.808594 101.128906 L 74.808594 101.140625 C 74.773438 101.1875 74.765625 101.246094 74.785156 101.296875 C 74.8125 101.382812 74.878906 101.453125 74.96875 101.480469 C 75.257812 101.570312 75.769531 101.242188 76.050781 101.039062 Z M 74.882812 101.191406 C 74.996094 101.074219 75.488281 101.039062 75.859375 101.046875 C 75.472656 101.308594 75.148438 101.433594 74.988281 101.386719 C 74.929688 101.367188 74.886719 101.324219 74.867188 101.265625 C 74.855469 101.246094 74.855469 101.222656 74.867188 101.203125 Z M 74.882812 101.191406 "/>
<path style=" stroke:none;fill-rule:nonzero;fill:rgb(47.058824%,76.078431%,67.843137%);fill-opacity:1;" d="M 76.046875 101.035156 C 76.054688 101.019531 76.054688 101 76.046875 100.984375 C 76.035156 100.964844 75.753906 100.484375 75.425781 100.386719 C 75.328125 100.355469 75.226562 100.371094 75.140625 100.421875 C 75.019531 100.488281 75.011719 100.574219 75.027344 100.625 C 75.09375 100.859375 75.730469 101.0625 76.003906 101.058594 C 76.023438 101.058594 76.039062 101.050781 76.046875 101.035156 Z M 75.148438 100.535156 C 75.164062 100.519531 75.179688 100.507812 75.199219 100.5 C 75.261719 100.460938 75.335938 100.449219 75.40625 100.472656 C 75.625 100.53125 75.828125 100.808594 75.921875 100.949219 C 75.621094 100.914062 75.171875 100.734375 75.132812 100.59375 C 75.125 100.570312 75.132812 100.546875 75.148438 100.53125 Z M 75.148438 100.535156 "/>
<path style=" stroke:none;fill-rule:nonzero;fill:rgb(49.803922%,24.313725%,23.137255%);fill-opacity:1;" d="M 78.800781 36.832031 C 78.550781 38.082031 78.011719 40.785156 78.878906 41.613281 C 78.878906 41.613281 78.539062 42.863281 76.230469 42.863281 C 73.691406 42.863281 75.015625 41.613281 75.015625 41.613281 C 76.402344 41.285156 76.367188 40.253906 76.125 39.289062 Z M 78.800781 36.832031 "/>
<path style=" stroke:none;fill-rule:nonzero;fill:rgb(14.901961%,19.607843%,21.960784%);fill-opacity:1;" d="M 74.570312 33.902344 C 74.585938 33.90625 74.597656 33.90625 74.613281 33.902344 C 74.636719 33.890625 74.65625 33.871094 74.664062 33.84375 C 74.671875 33.820312 74.667969 33.792969 74.65625 33.765625 C 74.519531 33.476562 74.253906 33.273438 73.9375 33.21875 C 73.882812 33.214844 73.835938 33.25 73.828125 33.304688 C 73.820312 33.359375 73.859375 33.410156 73.914062 33.414062 C 74.164062 33.460938 74.375 33.628906 74.480469 33.859375 C 74.5 33.886719 74.535156 33.90625 74.570312 33.902344 Z M 74.570312 33.902344 "/>
<path style=" stroke:none;fill-rule:nonzero;fill:rgb(38.823529%,5.882353%,5.882353%);fill-opacity:1;" d="M 73.8125 35 C 73.617188 35.363281 73.371094 35.703125 73.082031 36 C 73.238281 36.144531 73.453125 36.210938 73.664062 36.183594 Z M 73.8125 35 "/>
<path style=" stroke:none;fill-rule:nonzero;fill:rgb(14.901961%,19.607843%,21.960784%);fill-opacity:1;" d="M 74 34.71875 C 73.980469 34.886719 73.871094 35.011719 73.765625 34.996094 C 73.65625 34.984375 73.582031 34.835938 73.601562 34.671875 C 73.621094 34.503906 73.730469 34.378906 73.851562 34.390625 C 73.976562 34.402344 74.015625 34.550781 74 34.71875 Z M 74 34.71875 "/>
<path style=" stroke:none;fill-rule:nonzero;fill:rgb(14.901961%,19.607843%,21.960784%);fill-opacity:1;" d="M 73.886719 34.40625 L 73.5 34.25 C 73.5 34.25 73.664062 34.578125 73.886719 34.40625 Z M 73.886719 34.40625 "/>
<path style=" stroke:none;fill-rule:nonzero;fill:rgb(49.803922%,24.313725%,23.137255%);fill-opacity:1;" d="M 78.253906 100.558594 L 76.214844 101.035156 L 74.976562 96.34375 L 77.015625 95.871094 Z M 78.253906 100.558594 "/>
<path style=" stroke:none;fill-rule:nonzero;fill:rgb(49.803922%,24.313725%,23.137255%);fill-opacity:1;" d="M 81.386719 101.929688 L 79.292969 101.929688 L 79.453125 97.082031 L 81.550781 97.082031 Z M 81.386719 101.929688 "/>
<path style=" stroke:none;fill-rule:nonzero;fill:rgb(14.901961%,19.607843%,21.960784%);fill-opacity:1;" d="M 79.125 101.6875 L 81.476562 101.6875 C 81.5625 101.6875 81.632812 101.75 81.644531 101.832031 L 81.914062 103.691406 C 81.921875 103.789062 81.894531 103.882812 81.828125 103.953125 C 81.765625 104.023438 81.671875 104.066406 81.578125 104.066406 C 80.757812 104.050781 80.363281 104.003906 79.328125 104.003906 C 78.691406 104.003906 77.761719 104.070312 76.882812 104.070312 C 76.003906 104.070312 75.953125 103.199219 76.324219 103.121094 C 77.960938 102.765625 78.222656 102.28125 78.773438 101.816406 C 78.871094 101.734375 78.996094 101.6875 79.125 101.6875 Z M 79.125 101.6875 "/>
<path style=" stroke:none;fill-rule:nonzero;fill:rgb(14.901961%,19.607843%,21.960784%);fill-opacity:1;" d="M 76.035156 100.722656 L 78.171875 99.738281 C 78.246094 99.703125 78.335938 99.730469 78.382812 99.800781 L 79.40625 101.378906 C 79.453125 101.460938 79.464844 101.5625 79.4375 101.652344 C 79.40625 101.742188 79.339844 101.816406 79.253906 101.859375 C 78.503906 102.1875 78.125 102.308594 77.183594 102.742188 C 76.609375 103.007812 75.433594 103.617188 74.640625 103.992188 C 73.84375 104.367188 73.433594 103.589844 73.734375 103.363281 C 75.078125 102.363281 75.460938 101.648438 75.769531 100.996094 C 75.820312 100.875 75.917969 100.777344 76.035156 100.722656 Z M 76.035156 100.722656 "/>
<use xlink:href="#surface20" mask="url(#mask5)"/>
<use xlink:href="#surface23" mask="url(#mask6)"/>
<path style=" stroke:none;fill-rule:nonzero;fill:rgb(14.901961%,19.607843%,21.960784%);fill-opacity:1;" d="M 82.5 42.089844 C 83.371094 42.28125 84.300781 45.410156 84.300781 45.410156 L 81.839844 48.027344 C 81.839844 48.027344 79.796875 45.085938 80.214844 44.007812 C 80.636719 42.878906 81.460938 41.863281 82.5 42.089844 Z M 82.5 42.089844 "/>
<use xlink:href="#surface26" mask="url(#mask7)"/>
<path style=" stroke:none;fill-rule:nonzero;fill:rgb(14.901961%,19.607843%,21.960784%);fill-opacity:1;" d="M 71.476562 42.152344 C 71.476562 42.152344 70.476562 42.503906 72.476562 54.789062 L 80.976562 54.789062 C 80.835938 51.328125 80.828125 49.195312 82.476562 42.089844 C 81.285156 41.84375 80.078125 41.683594 78.863281 41.613281 C 77.578125 41.523438 76.289062 41.523438 75.003906 41.613281 C 73.359375 41.765625 71.476562 42.152344 71.476562 42.152344 Z M 71.476562 42.152344 "/>
<use xlink:href="#surface29" mask="url(#mask8)"/>
<path style=" stroke:none;fill-rule:nonzero;fill:rgb(50.196078%,24.313725%,23.529412%);fill-opacity:1;" d="M 72.308594 45 C 71.851562 46.15625 71.335938 47.285156 70.761719 48.386719 C 70.195312 49.53125 69.527344 50.617188 68.761719 51.636719 L 68.601562 51.835938 L 68.523438 51.933594 C 68.496094 51.964844 68.472656 51.996094 68.429688 52.039062 C 68.28125 52.203125 68.113281 52.351562 67.929688 52.480469 C 67.609375 52.703125 67.257812 52.878906 66.886719 53 C 66.238281 53.207031 65.566406 53.328125 64.886719 53.355469 C 63.613281 53.40625 62.339844 53.292969 61.09375 53.015625 L 61.234375 51.96875 C 61.808594 51.96875 62.410156 51.96875 62.984375 51.921875 C 63.558594 51.890625 64.128906 51.828125 64.699219 51.730469 C 65.222656 51.648438 65.738281 51.503906 66.234375 51.300781 C 66.429688 51.214844 66.617188 51.101562 66.785156 50.964844 C 66.847656 50.910156 66.90625 50.851562 66.957031 50.785156 C 66.957031 50.785156 66.988281 50.746094 67.007812 50.71875 L 67.066406 50.636719 L 67.183594 50.46875 C 67.808594 49.5 68.367188 48.488281 68.855469 47.441406 C 69.355469 46.378906 69.855469 45.277344 70.3125 44.191406 Z M 72.308594 45 "/>
<path style=" stroke:none;fill-rule:nonzero;fill:rgb(14.901961%,19.607843%,21.960784%);fill-opacity:1;" d="M 71.476562 42.152344 C 70.433594 42.402344 69.15625 45.261719 69.15625 45.261719 L 71.316406 48.4375 C 71.316406 48.4375 74.191406 44.816406 73.851562 43.710938 C 73.5 42.558594 72.75 41.84375 71.476562 42.152344 Z M 71.476562 42.152344 "/>
<path style=" stroke:none;fill-rule:nonzero;fill:rgb(49.803922%,24.313725%,23.137255%);fill-opacity:1;" d="M 61.832031 52.128906 L 60.03125 51.296875 L 59.851562 53.085938 C 59.851562 53.085938 61.351562 53.53125 62.101562 53.085938 Z M 61.832031 52.128906 "/>
<path style=" stroke:none;fill-rule:nonzero;fill:rgb(49.803922%,24.313725%,23.137255%);fill-opacity:1;" d="M 58.953125 51.113281 L 58.78125 52.480469 L 59.851562 53.085938 L 60.03125 51.296875 Z M 58.953125 51.113281 "/>
<path style=" stroke:none;fill-rule:nonzero;fill:rgb(49.803922%,24.313725%,23.137255%);fill-opacity:1;" d="M 79.703125 34.839844 C 79.324219 36.882812 79.203125 37.757812 78.035156 38.683594 C 76.285156 40.078125 73.847656 39.164062 73.613281 37.050781 C 73.398438 35.144531 74.058594 32.125 76.175781 31.550781 C 77.125 31.289062 78.140625 31.539062 78.859375 32.207031 C 79.578125 32.878906 79.898438 33.875 79.703125 34.839844 Z M 79.703125 34.839844 "/>
<path style=" stroke:none;fill-rule:nonzero;fill:rgb(14.901961%,19.607843%,21.960784%);fill-opacity:1;" d="M 75.21875 35.269531 C 75.101562 36.3125 75.054688 39.019531 77.34375 39.105469 C 80.148438 39.207031 80.988281 36.8125 80.738281 35.855469 C 82.199219 34.667969 82.40625 32.625 80.765625 31.0625 C 79.128906 29.5 75.515625 30.371094 74.515625 31.894531 C 73.25 33.78125 75.21875 35.269531 75.21875 35.269531 Z M 75.21875 35.269531 "/>
<path style=" stroke:none;fill-rule:nonzero;fill:rgb(47.058824%,76.078431%,67.843137%);fill-opacity:1;" d="M 78.023438 31.671875 C 77.890625 30.570312 77.996094 29.8125 79.023438 29.8125 C 80.054688 29.8125 81.460938 30.183594 81.976562 31.238281 C 82.488281 32.289062 82.53125 33.9375 81.09375 33.769531 C 79.65625 33.601562 78.1875 32.984375 78.023438 31.671875 Z M 78.023438 31.671875 "/>
<path style=" stroke:none;fill-rule:nonzero;fill:rgb(14.901961%,19.607843%,21.960784%);fill-opacity:1;" d="M 79.621094 31.40625 C 79.371094 30.09375 80.542969 26.40625 83.390625 26.15625 C 84.710938 26.042969 85.320312 27.460938 84.640625 27.699219 C 85.890625 27.683594 86.691406 29.335938 85.523438 29.582031 C 86.445312 30.171875 86.21875 31.382812 84.90625 31.976562 C 83.925781 32.425781 79.957031 33.21875 79.621094 31.40625 Z M 79.621094 31.40625 "/>
<path style=" stroke:none;fill-rule:nonzero;fill:rgb(14.901961%,19.607843%,21.960784%);fill-opacity:1;" d="M 82.664062 32.8125 C 81.746094 32.8125 80.789062 32.675781 80.191406 32.28125 C 79.855469 32.078125 79.636719 31.722656 79.605469 31.328125 C 79.601562 31.296875 79.628906 31.265625 79.664062 31.261719 C 79.679688 31.261719 79.695312 31.265625 79.707031 31.277344 C 79.722656 31.289062 79.730469 31.304688 79.730469 31.320312 C 79.761719 31.675781 79.957031 31.992188 80.261719 32.175781 C 81.394531 32.925781 84.011719 32.675781 84.828125 32.425781 C 85.53125 32.199219 86.011719 31.75 86.105469 31.234375 C 86.164062 30.851562 86.003906 30.464844 85.6875 30.234375 C 85.675781 30.222656 85.667969 30.207031 85.667969 30.191406 C 85.667969 30.175781 85.675781 30.160156 85.6875 30.148438 C 85.710938 30.125 85.75 30.125 85.773438 30.148438 C 86.132812 30.40625 86.308594 30.84375 86.238281 31.28125 C 86.136719 31.84375 85.628906 32.324219 84.878906 32.566406 C 84.152344 32.75 83.410156 32.832031 82.664062 32.8125 Z M 82.664062 32.8125 "/>
<path style=" stroke:none;fill-rule:nonzero;fill:rgb(49.803922%,24.313725%,23.137255%);fill-opacity:1;" d="M 74.578125 35 C 74.347656 35.328125 74.25 35.730469 74.3125 36.128906 C 74.394531 36.652344 74.90625 36.6875 75.273438 36.351562 C 75.644531 36.015625 75.96875 35.414062 75.695312 34.976562 C 75.570312 34.785156 75.359375 34.671875 75.132812 34.675781 C 74.902344 34.683594 74.695312 34.804688 74.578125 35 Z M 74.578125 35 "/>
<path style=" stroke:none;fill-rule:nonzero;fill:rgb(47.058824%,76.078431%,67.843137%);fill-opacity:1;" d="M 74.722656 54.789062 C 74.722656 54.789062 75.9375 69.164062 77.199219 77.261719 C 78.21875 83.804688 79.023438 99.097656 79.023438 99.097656 L 81.878906 99.097656 C 81.878906 99.097656 82.890625 84.261719 82.378906 77.792969 C 81.070312 61.417969 83.988281 60.082031 80.984375 54.792969 Z M 74.722656 54.789062 "/>
<use xlink:href="#surface32" mask="url(#mask9)"/>
<path style=" stroke:none;fill-rule:nonzero;fill:rgb(47.058824%,76.078431%,67.843137%);fill-opacity:1;" d="M 72.726562 54.699219 C 72.726562 54.699219 70.085938 70.398438 69.671875 77.472656 C 70.707031 84.015625 74.941406 97.84375 74.941406 97.84375 L 77.539062 96.902344 C 77.539062 96.902344 76.101562 81.824219 74.539062 77.695312 C 78.058594 65.851562 80.640625 62.859375 79.890625 54.789062 C 78.085938 54.789062 72.726562 54.699219 72.726562 54.699219 Z M 72.726562 54.699219 "/>
<path style=" stroke:none;fill-rule:nonzero;fill:rgb(14.901961%,19.607843%,21.960784%);fill-opacity:1;" d="M 74.59375 98.535156 L 78.105469 97.582031 L 77.90625 96.183594 L 74.148438 97.199219 Z M 74.59375 98.535156 "/>
<path style=" stroke:none;fill-rule:nonzero;fill:rgb(14.901961%,19.607843%,21.960784%);fill-opacity:1;" d="M 78.628906 99.15625 L 82.265625 99.15625 L 82.457031 97.878906 L 78.609375 97.75 Z M 78.628906 99.15625 "/>
<path style=" stroke:none;fill-rule:nonzero;fill:rgb(47.058824%,76.078431%,67.843137%);fill-opacity:1;" d="M 81.109375 54.289062 L 81.492188 55.050781 C 81.523438 55.113281 81.453125 55.171875 81.355469 55.171875 L 72.433594 55.171875 C 72.359375 55.171875 72.296875 55.136719 72.289062 55.085938 L 72.210938 54.335938 C 72.210938 54.28125 72.273438 54.238281 72.359375 54.238281 L 80.96875 54.238281 C 81.023438 54.230469 81.074219 54.25 81.109375 54.289062 Z M 81.109375 54.289062 "/>
<use xlink:href="#surface35" mask="url(#mask10)"/>
<path style=" stroke:none;fill-rule:nonzero;fill:rgb(47.058824%,76.078431%,67.843137%);fill-opacity:1;" d="M 79.953125 55.25 L 80.183594 55.25 C 80.230469 55.25 80.265625 55.226562 80.261719 55.199219 L 80.152344 54.199219 C 80.152344 54.167969 80.109375 54.144531 80.066406 54.144531 L 79.832031 54.144531 C 79.789062 54.144531 79.753906 54.167969 79.753906 54.199219 L 79.863281 55.199219 C 79.867188 55.230469 79.90625 55.25 79.953125 55.25 Z M 79.953125 55.25 "/>
<path style=" stroke:none;fill-rule:nonzero;fill:rgb(47.058824%,76.078431%,67.843137%);fill-opacity:1;" d="M 76.859375 47.96875 C 76.800781 47.96875 76.75 47.933594 76.734375 47.878906 C 75.921875 44.863281 74.234375 42.378906 73.417969 42.003906 C 73.355469 41.964844 73.277344 41.949219 73.203125 41.96875 C 73.164062 41.988281 73.113281 41.984375 73.074219 41.960938 C 73.039062 41.933594 73.015625 41.886719 73.023438 41.84375 C 73.027344 41.796875 73.058594 41.757812 73.101562 41.738281 C 73.242188 41.6875 73.394531 41.703125 73.523438 41.773438 C 74.386719 42.183594 76.097656 44.636719 76.953125 47.71875 C 77.566406 47.71875 78.511719 47.636719 78.738281 47.613281 C 79.023438 47.273438 81.121094 44.65625 80.335938 41.789062 C 80.328125 41.753906 80.332031 41.722656 80.347656 41.691406 C 80.367188 41.664062 80.394531 41.644531 80.425781 41.636719 C 80.492188 41.617188 80.558594 41.65625 80.578125 41.722656 C 81.449219 44.914062 78.921875 47.789062 78.890625 47.816406 C 78.871094 47.84375 78.84375 47.855469 78.8125 47.859375 C 78.800781 47.859375 77.550781 47.96875 76.859375 47.96875 Z M 76.859375 47.96875 "/>
<path style=" stroke:none;fill-rule:nonzero;fill:rgb(47.058824%,76.078431%,67.843137%);fill-opacity:1;" d="M 81 49.734375 C 79.636719 47.183594 79.078125 47.003906 78.835938 46.183594 C 79.019531 45.722656 79.285156 45.300781 79.613281 44.933594 C 79.449219 44.886719 79.09375 44.816406 78.863281 44.773438 C 78.886719 44.660156 78.914062 44.550781 78.941406 44.441406 C 78.691406 44.414062 78.4375 44.425781 78.191406 44.476562 L 78.191406 44.226562 C 77.871094 44.160156 77.546875 44.136719 77.222656 44.164062 C 77.25 44.285156 77.277344 44.402344 77.304688 44.523438 C 77.054688 44.574219 76.675781 44.648438 76.492188 44.703125 C 76.847656 45.105469 77.109375 45.578125 77.253906 46.09375 C 76.519531 47.359375 73.664062 55.472656 78.308594 56.09375 C 82.953125 56.71875 82.359375 52.289062 81 49.734375 Z M 81 49.734375 "/>
<use xlink:href="#surface38" mask="url(#mask11)"/>
<path style=" stroke:none;fill-rule:nonzero;fill:rgb(47.058824%,76.078431%,67.843137%);fill-opacity:1;" d="M 77.066406 45.851562 C 77.035156 45.980469 77.023438 46.113281 77.027344 46.246094 C 77.027344 46.335938 77.277344 46.398438 77.554688 46.425781 C 77.832031 46.453125 78.996094 46.5 78.960938 46.371094 C 78.921875 46.238281 79.015625 46.0625 79.023438 45.953125 C 79.027344 45.84375 78.558594 45.835938 78.167969 45.851562 C 77.773438 45.867188 77.140625 45.710938 77.066406 45.851562 Z M 77.066406 45.851562 "/>
<path style=" stroke:none;fill-rule:nonzero;fill:rgb(47.058824%,76.078431%,67.843137%);fill-opacity:1;" d="M 74.363281 55.25 L 74.59375 55.25 C 74.636719 55.25 74.671875 55.226562 74.671875 55.199219 L 74.5625 54.199219 C 74.5625 54.167969 74.519531 54.144531 74.472656 54.144531 L 74.25 54.144531 C 74.203125 54.144531 74.171875 54.167969 74.171875 54.199219 L 74.28125 55.199219 C 74.273438 55.230469 74.316406 55.25 74.363281 55.25 Z M 74.363281 55.25 "/>
</g>
</svg>
